<ttFont>
    <TTGlyph name=".notdef" xMin="195" yMin="0" xMax="1034" yMax="1462">
      <contour>
        <pt x="195" y="1462" on="1"/>
        <pt x="1034" y="1462" on="1"/>
        <pt x="1034" y="0" on="1"/>
        <pt x="195" y="0" on="1"/>
      </contour>
      <contour>
        <pt x="299" y="104" on="1"/>
        <pt x="930" y="104" on="1"/>
        <pt x="930" y="1358" on="1"/>
        <pt x="299" y="1358" on="1"/>
      </contour>
    </TTGlyph>
    <TTGlyph name="A" xMin="-121" yMin="0" xMax="1249" yMax="1462">
      <contour>
        <pt x="858" y="274" on="1"/>
        <pt x="410" y="274" on="1"/>
        <pt x="285" y="0" on="1"/>
        <pt x="-121" y="0" on="1"/>
        <pt x="623" y="1462" on="1"/>
        <pt x="1126" y="1462" on="1"/>
        <pt x="1249" y="0" on="1"/>
        <pt x="868" y="0" on="1"/>
      </contour>
      <contour>
        <pt x="553" y="586" on="1"/>
        <pt x="846" y="586" on="1"/>
        <pt x="829" y="1010" on="1"/>
        <pt x="827" y="1096" on="1"/>
        <pt x="827" y="1171" on="0"/>
        <pt x="831" y="1227" on="1"/>
        <pt x="807" y="1141" on="0"/>
        <pt x="770" y="1061" on="1"/>
      </contour>
    </TTGlyph>
    <TTGlyph name="AE" xMin="-125" yMin="0" xMax="1997" yMax="1462">
      <contour>
        <pt x="1688" y="0" on="1"/>
        <pt x="819" y="0" on="1"/>
        <pt x="877" y="274" on="1"/>
        <pt x="459" y="274" on="1"/>
        <pt x="289" y="0" on="1"/>
        <pt x="-125" y="0" on="1"/>
        <pt x="784" y="1462" on="1"/>
        <pt x="1997" y="1462" on="1"/>
        <pt x="1931" y="1145" on="1"/>
        <pt x="1454" y="1145" on="1"/>
        <pt x="1407" y="915" on="1"/>
        <pt x="1851" y="915" on="1"/>
        <pt x="1780" y="598" on="1"/>
        <pt x="1335" y="598" on="1"/>
        <pt x="1278" y="322" on="1"/>
        <pt x="1755" y="322" on="1"/>
      </contour>
      <contour>
        <pt x="948" y="602" on="1"/>
        <pt x="1061" y="1145" on="1"/>
        <pt x="993" y="1145" on="1"/>
        <pt x="662" y="602" on="1"/>
      </contour>
    </TTGlyph>
    <TTGlyph name="AEacute" xMin="-125" yMin="0" xMax="1997" yMax="1907">
      <component glyphName="AE" x="0" y="0" flags="0x204"/>
      <component glyphName="acute" x="676" y="338" flags="0x4"/>
    </TTGlyph>
    <TTGlyph name="Aacute" xMin="-121" yMin="0" xMax="1430" yMax="1907">
      <component glyphName="A" x="0" y="0" flags="0x204"/>
      <component glyphName="acute" x="256" y="338" flags="0x4"/>
    </TTGlyph>
    <TTGlyph name="Abreve" xMin="-121" yMin="0" xMax="1329" yMax="1950">
      <component glyphName="A" x="0" y="0" flags="0x204"/>
      <component glyphName="breve" x="119" y="338" flags="0x4"/>
    </TTGlyph>
    <TTGlyph name="Acircumflex" xMin="-121" yMin="0" xMax="1335" yMax="1907">
      <component glyphName="A" x="0" y="0" flags="0x204"/>
      <component glyphName="circumflex" x="145" y="338" flags="0x4"/>
    </TTGlyph>
    <TTGlyph name="Adieresis" xMin="-121" yMin="0" xMax="1358" yMax="1909">
      <component glyphName="A" x="0" y="0" flags="0x204"/>
      <component glyphName="dieresis" x="166" y="338" flags="0x4"/>
    </TTGlyph>
    <TTGlyph name="Agrave" xMin="-121" yMin="0" xMax="1249" yMax="1907">
      <component glyphName="A" x="0" y="0" flags="0x204"/>
      <component glyphName="grave" x="66" y="338" flags="0x4"/>
    </TTGlyph>
    <TTGlyph name="Alpha" xMin="-121" yMin="0" xMax="1249" yMax="1462">
      <component glyphName="A" x="0" y="0" flags="0x204"/>
    </TTGlyph>
    <TTGlyph name="Alphatonos" xMin="-121" yMin="0" xMax="1249" yMax="1525">
      <component glyphName="A" x="0" y="0" flags="0x204"/>
      <component glyphName="tonos" x="-493" y="-105" flags="0x4"/>
    </TTGlyph>
    <TTGlyph name="Amacron" xMin="-121" yMin="0" xMax="1265" yMax="1815">
      <component glyphName="A" x="0" y="0" flags="0x204"/>
      <component glyphName="macron" x="178" y="338" flags="0x4"/>
    </TTGlyph>
    <TTGlyph name="Aogonek" xMin="-121" yMin="-524" xMax="1249" yMax="1462">
      <component glyphName="A" x="0" y="0" flags="0x204"/>
      <component glyphName="ogonek" x="965" y="0" flags="0x4"/>
    </TTGlyph>
    <TTGlyph name="Aring" xMin="-121" yMin="0" xMax="1249" yMax="1804">
      <component glyphName="A" x="0" y="0" flags="0x204"/>
      <component glyphName="ring" x="86" y="61" flags="0x4"/>
    </TTGlyph>
    <TTGlyph name="Aringacute" xMin="-121" yMin="0" xMax="1389" yMax="1962">
      <contour>
        <pt x="1147" y="1489" on="1"/>
        <pt x="1147" y="1445" on="0"/>
        <pt x="1114" y="1362" on="0"/>
        <pt x="1087" y="1335" on="1"/>
        <pt x="1249" y="0" on="1"/>
        <pt x="868" y="0" on="1"/>
        <pt x="850" y="274" on="1"/>
        <pt x="410" y="274" on="1"/>
        <pt x="285" y="0" on="1"/>
        <pt x="-121" y="0" on="1"/>
        <pt x="623" y="1397" on="1"/>
        <pt x="610" y="1435" on="0"/>
        <pt x="610" y="1487" on="1"/>
        <pt x="610" y="1601" on="0"/>
        <pt x="757" y="1741" on="0"/>
        <pt x="879" y="1741" on="1"/>
        <pt x="997" y="1741" on="0"/>
        <pt x="1147" y="1600" on="0"/>
      </contour>
      <contour>
        <pt x="795" y="1102" on="1"/>
        <pt x="768" y="1030" on="1"/>
        <pt x="745" y="977" on="1"/>
        <pt x="553" y="586" on="1"/>
        <pt x="838" y="586" on="1"/>
        <pt x="811" y="891" on="1"/>
        <pt x="805" y="1029" on="0"/>
        <pt x="805" y="1102" on="1"/>
      </contour>
      <contour>
        <pt x="762" y="1802" on="1"/>
        <pt x="883" y="1886" on="0"/>
        <pt x="963" y="1962" on="1"/>
        <pt x="1389" y="1962" on="1"/>
        <pt x="1389" y="1954" on="1"/>
        <pt x="1277" y="1869" on="0"/>
        <pt x="1040" y="1792" on="1"/>
        <pt x="762" y="1792" on="1"/>
      </contour>
      <contour>
        <pt x="967" y="1487" on="1"/>
        <pt x="967" y="1525" on="0"/>
        <pt x="914" y="1573" on="0"/>
        <pt x="879" y="1573" on="1"/>
        <pt x="843" y="1573" on="0"/>
        <pt x="791" y="1525" on="0"/>
        <pt x="791" y="1487" on="1"/>
        <pt x="791" y="1450" on="0"/>
        <pt x="835" y="1403" on="0"/>
        <pt x="877" y="1403" on="1"/>
        <pt x="915" y="1403" on="0"/>
        <pt x="967" y="1452" on="0"/>
      </contour>
      <contour>
        <pt x="914" y="1462" on="1"/>
      </contour>
    </TTGlyph>
    <TTGlyph name="Atilde" xMin="-121" yMin="0" xMax="1364" yMax="1919">
      <component glyphName="A" x="0" y="0" flags="0x204"/>
      <component glyphName="tilde" x="158" y="338" flags="0x4"/>
    </TTGlyph>
    <TTGlyph name="B" xMin="33" yMin="0" xMax="1270" yMax="1462">
      <contour>
        <pt x="342" y="1462" on="1"/>
        <pt x="829" y="1462" on="1"/>
        <pt x="1046" y="1462" on="0"/>
        <pt x="1270" y="1297" on="0"/>
        <pt x="1270" y="1143" on="1"/>
        <pt x="1270" y="855" on="0"/>
        <pt x="973" y="766" on="1"/>
        <pt x="973" y="758" on="1"/>
        <pt x="1061" y="729" on="0"/>
        <pt x="1165" y="584" on="0"/>
        <pt x="1165" y="479" on="1"/>
        <pt x="1165" y="250" on="0"/>
        <pt x="860" y="0" on="0"/>
        <pt x="580" y="0" on="1"/>
        <pt x="33" y="0" on="1"/>
      </contour>
      <contour>
        <pt x="614" y="901" on="1"/>
        <pt x="686" y="901" on="1"/>
        <pt x="774" y="901" on="0"/>
        <pt x="864" y="977" on="0"/>
        <pt x="864" y="1061" on="1"/>
        <pt x="864" y="1163" on="0"/>
        <pt x="737" y="1163" on="1"/>
        <pt x="674" y="1163" on="1"/>
      </contour>
      <contour>
        <pt x="555" y="612" on="1"/>
        <pt x="489" y="305" on="1"/>
        <pt x="571" y="305" on="1"/>
        <pt x="657" y="305" on="0"/>
        <pt x="772" y="402" on="0"/>
        <pt x="772" y="475" on="1"/>
        <pt x="772" y="544" on="0"/>
        <pt x="706" y="612" on="0"/>
        <pt x="623" y="612" on="1"/>
      </contour>
    </TTGlyph>
    <TTGlyph name="Beta" xMin="33" yMin="0" xMax="1270" yMax="1462">
      <component glyphName="B" x="0" y="0" flags="0x204"/>
    </TTGlyph>
    <TTGlyph name="C" xMin="104" yMin="-20" xMax="1362" yMax="1485">
      <contour>
        <pt x="881" y="1159" on="1"/>
        <pt x="773" y="1159" on="0"/>
        <pt x="599" y="1003" on="0"/>
        <pt x="500" y="729" on="0"/>
        <pt x="500" y="569" on="1"/>
        <pt x="500" y="435" on="0"/>
        <pt x="612" y="303" on="0"/>
        <pt x="717" y="303" on="1"/>
        <pt x="800" y="303" on="0"/>
        <pt x="970" y="344" on="0"/>
        <pt x="1085" y="393" on="1"/>
        <pt x="1085" y="70" on="1"/>
        <pt x="882" y="-20" on="0"/>
        <pt x="645" y="-20" on="1"/>
        <pt x="385" y="-20" on="0"/>
        <pt x="104" y="277" on="0"/>
        <pt x="104" y="549" on="1"/>
        <pt x="104" y="815" on="0"/>
        <pt x="307" y="1259" on="0"/>
        <pt x="656" y="1485" on="0"/>
        <pt x="881" y="1485" on="1"/>
        <pt x="1146" y="1485" on="0"/>
        <pt x="1362" y="1354" on="1"/>
        <pt x="1214" y="1049" on="1"/>
        <pt x="1121" y="1104" on="0"/>
        <pt x="965" y="1159" on="0"/>
      </contour>
    </TTGlyph>
    <TTGlyph name="Cacute" xMin="104" yMin="-20" xMax="1385" yMax="1907">
      <component glyphName="C" x="0" y="0" flags="0x204"/>
      <component glyphName="acute" x="211" y="338" flags="0x4"/>
    </TTGlyph>
    <TTGlyph name="Ccaron" xMin="104" yMin="-20" xMax="1374" yMax="1907">
      <component glyphName="C" x="0" y="0" flags="0x204"/>
      <component glyphName="caron" x="117" y="338" flags="0x4"/>
    </TTGlyph>
    <TTGlyph name="Ccedilla" xMin="104" yMin="-492" xMax="1362" yMax="1485">
      <component glyphName="C" x="0" y="0" flags="0x204"/>
      <component glyphName="cedilla" x="526" y="0" flags="0x4"/>
    </TTGlyph>
    <TTGlyph name="Ccircumflex" xMin="104" yMin="-20" xMax="1366" yMax="1907">
      <component glyphName="C" x="0" y="0" flags="0x204"/>
      <component glyphName="circumflex" x="176" y="338" flags="0x4"/>
    </TTGlyph>
    <TTGlyph name="Cdot" xMin="104" yMin="-20" xMax="1362" yMax="1929">
      <component glyphName="C" x="0" y="0" flags="0x204"/>
      <component glyphName="dotaccent" x="422" y="338" flags="0x4"/>
    </TTGlyph>
    <TTGlyph name="Chi" xMin="-125" yMin="0" xMax="1511" yMax="1462">
      <component glyphName="X" x="0" y="0" flags="0x204"/>
    </TTGlyph>
    <TTGlyph name="D" xMin="33" yMin="0" xMax="1337" yMax="1462">
      <contour>
        <pt x="1337" y="909" on="1"/>
        <pt x="1337" y="629" on="0"/>
        <pt x="1139" y="218" on="0"/>
        <pt x="762" y="0" on="0"/>
        <pt x="504" y="0" on="1"/>
        <pt x="33" y="0" on="1"/>
        <pt x="342" y="1462" on="1"/>
        <pt x="758" y="1462" on="1"/>
        <pt x="1034" y="1462" on="0"/>
        <pt x="1337" y="1173" on="0"/>
      </contour>
      <contour>
        <pt x="563" y="324" on="1"/>
        <pt x="673" y="324" on="0"/>
        <pt x="846" y="464" on="0"/>
        <pt x="942" y="723" on="0"/>
        <pt x="942" y="889" on="1"/>
        <pt x="942" y="1014" on="0"/>
        <pt x="834" y="1143" on="0"/>
        <pt x="737" y="1143" on="1"/>
        <pt x="666" y="1143" on="1"/>
        <pt x="494" y="324" on="1"/>
      </contour>
    </TTGlyph>
    <TTGlyph name="Dcaron" xMin="33" yMin="0" xMax="1347" yMax="1907">
      <component glyphName="D" x="0" y="0" flags="0x204"/>
      <component glyphName="caron" x="90" y="338" flags="0x4"/>
    </TTGlyph>
    <TTGlyph name="Dcroat" xMin="10" yMin="0" xMax="1337" yMax="1462">
      <component glyphName="Eth" x="0" y="0" flags="0x204"/>
    </TTGlyph>
    <TTGlyph name="Delta" xMin="-72" yMin="0" xMax="1212" yMax="1462">
      <contour>
        <pt x="-72" y="0" on="1"/>
        <pt x="-27" y="225" on="1"/>
        <pt x="625" y="1462" on="1"/>
        <pt x="1108" y="1462" on="1"/>
        <pt x="1212" y="225" on="1"/>
        <pt x="1163" y="0" on="1"/>
      </contour>
      <contour>
        <pt x="408" y="311" on="1"/>
        <pt x="838" y="311" on="1"/>
        <pt x="815" y="1071" on="1"/>
        <pt x="815" y="1146" on="0"/>
        <pt x="819" y="1202" on="1"/>
        <pt x="795" y="1116" on="0"/>
        <pt x="758" y="1036" on="1"/>
      </contour>
    </TTGlyph>
    <TTGlyph name="E" xMin="33" yMin="0" xMax="1210" yMax="1462">
      <contour>
        <pt x="901" y="0" on="1"/>
        <pt x="33" y="0" on="1"/>
        <pt x="342" y="1462" on="1"/>
        <pt x="1210" y="1462" on="1"/>
        <pt x="1145" y="1145" on="1"/>
        <pt x="668" y="1145" on="1"/>
        <pt x="621" y="915" on="1"/>
        <pt x="1065" y="915" on="1"/>
        <pt x="993" y="598" on="1"/>
        <pt x="549" y="598" on="1"/>
        <pt x="492" y="322" on="1"/>
        <pt x="969" y="322" on="1"/>
      </contour>
    </TTGlyph>
    <TTGlyph name="Eacute" xMin="33" yMin="0" xMax="1299" yMax="1907">
      <component glyphName="E" x="0" y="0" flags="0x204"/>
      <component glyphName="acute" x="125" y="338" flags="0x4"/>
    </TTGlyph>
    <TTGlyph name="Ebreve" xMin="33" yMin="0" xMax="1220" yMax="1950">
      <component glyphName="E" x="0" y="0" flags="0x204"/>
      <component glyphName="breve" x="10" y="338" flags="0x4"/>
    </TTGlyph>
    <TTGlyph name="Ecaron" xMin="33" yMin="0" xMax="1300" yMax="1907">
      <component glyphName="E" x="0" y="0" flags="0x204"/>
      <component glyphName="caron" x="43" y="338" flags="0x4"/>
    </TTGlyph>
    <TTGlyph name="Ecircumflex" xMin="33" yMin="0" xMax="1239" yMax="1907">
      <component glyphName="E" x="0" y="0" flags="0x204"/>
      <component glyphName="circumflex" x="49" y="338" flags="0x4"/>
    </TTGlyph>
    <TTGlyph name="Edieresis" xMin="33" yMin="0" xMax="1239" yMax="1909">
      <component glyphName="E" x="0" y="0" flags="0x204"/>
      <component glyphName="dieresis" x="47" y="338" flags="0x4"/>
    </TTGlyph>
    <TTGlyph name="Edotaccent" xMin="33" yMin="0" xMax="1210" yMax="1900">
      <component glyphName="E" x="0" y="0" flags="0x204"/>
      <component glyphName="dotaccent" x="270" y="309" flags="0x4"/>
    </TTGlyph>
    <TTGlyph name="Egrave" xMin="33" yMin="0" xMax="1210" yMax="1907">
      <component glyphName="E" x="0" y="0" flags="0x204"/>
      <component glyphName="grave" x="-42" y="338" flags="0x4"/>
    </TTGlyph>
    <TTGlyph name="Emacron" xMin="33" yMin="0" xMax="1210" yMax="1815">
      <component glyphName="E" x="0" y="0" flags="0x204"/>
      <component glyphName="macron" x="84" y="338" flags="0x4"/>
    </TTGlyph>
    <TTGlyph name="Eng" xMin="33" yMin="-461" xMax="1628" yMax="1462">
      <contour>
        <pt x="745" y="-461" on="1"/>
        <pt x="639" y="-461" on="0"/>
        <pt x="532" y="-432" on="1"/>
        <pt x="532" y="-125" on="1"/>
        <pt x="627" y="-150" on="0"/>
        <pt x="723" y="-150" on="1"/>
        <pt x="819" y="-150" on="0"/>
        <pt x="941" y="-65" on="0"/>
        <pt x="961" y="8" on="1"/>
        <pt x="575" y="1028" on="1"/>
        <pt x="567" y="1028" on="1"/>
        <pt x="538" y="737" on="0"/>
        <pt x="510" y="610" on="1"/>
        <pt x="381" y="0" on="1"/>
        <pt x="33" y="0" on="1"/>
        <pt x="342" y="1462" on="1"/>
        <pt x="772" y="1462" on="1"/>
        <pt x="1098" y="590" on="1"/>
        <pt x="1106" y="590" on="1"/>
        <pt x="1115" y="668" on="0"/>
        <pt x="1156" y="883" on="0"/>
        <pt x="1280" y="1462" on="1"/>
        <pt x="1628" y="1462" on="1"/>
        <pt x="1319" y="0" on="1"/>
        <pt x="1266" y="-249" on="0"/>
        <pt x="994" y="-461" on="0"/>
      </contour>
    </TTGlyph>
    <TTGlyph name="Eogonek" xMin="33" yMin="-524" xMax="1210" yMax="1462">
      <component glyphName="E" x="0" y="0" flags="0x204"/>
      <component glyphName="ogonek" x="494" y="0" flags="0x4"/>
    </TTGlyph>
    <TTGlyph name="Epsilon" xMin="33" yMin="0" xMax="1210" yMax="1462">
      <component glyphName="E" x="0" y="0" flags="0x204"/>
    </TTGlyph>
    <TTGlyph name="Epsilontonos" xMin="9" yMin="0" xMax="1376" yMax="1525">
      <component glyphName="tonos" x="-517" y="-105" flags="0x4"/>
      <component glyphName="E" x="166" y="0" flags="0x4"/>
    </TTGlyph>
    <TTGlyph name="Eta" xMin="33" yMin="0" xMax="1473" yMax="1462">
      <component glyphName="H" x="0" y="0" flags="0x204"/>
    </TTGlyph>
    <TTGlyph name="Etatonos" xMin="9" yMin="0" xMax="1625" yMax="1525">
      <component glyphName="tonos" x="-517" y="-105" flags="0x4"/>
      <component glyphName="H" x="152" y="0" flags="0x4"/>
    </TTGlyph>
    <TTGlyph name="Eth" xMin="10" yMin="0" xMax="1337" yMax="1462">
      <contour>
        <pt x="80" y="883" on="1"/>
        <pt x="219" y="883" on="1"/>
        <pt x="342" y="1462" on="1"/>
        <pt x="772" y="1462" on="1"/>
        <pt x="1043" y="1462" on="0"/>
        <pt x="1337" y="1175" on="0"/>
        <pt x="1337" y="909" on="1"/>
        <pt x="1337" y="475" on="0"/>
        <pt x="911" y="0" on="0"/>
        <pt x="526" y="0" on="1"/>
        <pt x="33" y="0" on="1"/>
        <pt x="152" y="563" on="1"/>
        <pt x="10" y="563" on="1"/>
      </contour>
      <contour>
        <pt x="563" y="324" on="1"/>
        <pt x="674" y="324" on="0"/>
        <pt x="848" y="467" on="0"/>
        <pt x="942" y="732" on="0"/>
        <pt x="942" y="901" on="1"/>
        <pt x="942" y="1017" on="0"/>
        <pt x="834" y="1143" on="0"/>
        <pt x="737" y="1143" on="1"/>
        <pt x="666" y="1143" on="1"/>
        <pt x="610" y="883" on="1"/>
        <pt x="788" y="883" on="1"/>
        <pt x="719" y="563" on="1"/>
        <pt x="543" y="563" on="1"/>
        <pt x="494" y="324" on="1"/>
      </contour>
    </TTGlyph>
    <TTGlyph name="Euro" xMin="53" yMin="-20" xMax="1280" yMax="1487">
      <contour>
        <pt x="905" y="1178" on="1"/>
        <pt x="763" y="1178" on="0"/>
        <pt x="686" y="983" on="1"/>
        <pt x="983" y="983" on="1"/>
        <pt x="938" y="778" on="1"/>
        <pt x="629" y="778" on="1"/>
        <pt x="611" y="719" on="0"/>
        <pt x="604" y="655" on="1"/>
        <pt x="850" y="655" on="1"/>
        <pt x="807" y="451" on="1"/>
        <pt x="580" y="451" on="1"/>
        <pt x="580" y="369" on="0"/>
        <pt x="635" y="307" on="0"/>
        <pt x="713" y="307" on="1"/>
        <pt x="788" y="307" on="0"/>
        <pt x="928" y="344" on="0"/>
        <pt x="1006" y="375" on="1"/>
        <pt x="1006" y="45" on="1"/>
        <pt x="880" y="-20" on="0"/>
        <pt x="651" y="-20" on="1"/>
        <pt x="420" y="-20" on="0"/>
        <pt x="199" y="208" on="0"/>
        <pt x="193" y="451" on="1"/>
        <pt x="53" y="451" on="1"/>
        <pt x="96" y="655" on="1"/>
        <pt x="205" y="655" on="1"/>
        <pt x="227" y="778" on="1"/>
        <pt x="121" y="778" on="1"/>
        <pt x="168" y="983" on="1"/>
        <pt x="285" y="983" on="1"/>
        <pt x="369" y="1226" on="0"/>
        <pt x="687" y="1487" on="0"/>
        <pt x="905" y="1487" on="1"/>
        <pt x="1020" y="1487" on="0"/>
        <pt x="1194" y="1437" on="0"/>
        <pt x="1280" y="1382" on="1"/>
        <pt x="1126" y="1100" on="1"/>
        <pt x="1006" y="1178" on="0"/>
      </contour>
    </TTGlyph>
    <TTGlyph name="F" xMin="33" yMin="0" xMax="1204" yMax="1462">
      <contour>
        <pt x="424" y="0" on="1"/>
        <pt x="33" y="0" on="1"/>
        <pt x="342" y="1462" on="1"/>
        <pt x="1204" y="1462" on="1"/>
        <pt x="1137" y="1145" on="1"/>
        <pt x="666" y="1145" on="1"/>
        <pt x="608" y="866" on="1"/>
        <pt x="1044" y="866" on="1"/>
        <pt x="975" y="547" on="1"/>
        <pt x="537" y="547" on="1"/>
      </contour>
    </TTGlyph>
    <TTGlyph name="G" xMin="104" yMin="-20" xMax="1409" yMax="1485">
      <contour>
        <pt x="731" y="856" on="1"/>
        <pt x="1341" y="856" on="1"/>
        <pt x="1174" y="61" on="1"/>
        <pt x="924" y="-20" on="0"/>
        <pt x="653" y="-20" on="1"/>
        <pt x="392" y="-20" on="0"/>
        <pt x="104" y="284" on="0"/>
        <pt x="104" y="563" on="1"/>
        <pt x="104" y="830" on="0"/>
        <pt x="324" y="1260" on="0"/>
        <pt x="707" y="1485" on="0"/>
        <pt x="961" y="1485" on="1"/>
        <pt x="1227" y="1485" on="0"/>
        <pt x="1409" y="1378" on="1"/>
        <pt x="1262" y="1069" on="1"/>
        <pt x="1109" y="1159" on="0"/>
        <pt x="956" y="1159" on="1"/>
        <pt x="824" y="1159" on="0"/>
        <pt x="621" y="1014" on="0"/>
        <pt x="500" y="730" on="0"/>
        <pt x="500" y="569" on="1"/>
        <pt x="500" y="305" on="0"/>
        <pt x="709" y="305" on="1"/>
        <pt x="772" y="305" on="0"/>
        <pt x="842" y="319" on="1"/>
        <pt x="893" y="551" on="1"/>
        <pt x="664" y="551" on="1"/>
      </contour>
    </TTGlyph>
    <TTGlyph name="Gamma" xMin="33" yMin="0" xMax="1204" yMax="1462">
      <contour>
        <pt x="424" y="0" on="1"/>
        <pt x="33" y="0" on="1"/>
        <pt x="342" y="1462" on="1"/>
        <pt x="1204" y="1462" on="1"/>
        <pt x="1137" y="1143" on="1"/>
        <pt x="666" y="1143" on="1"/>
      </contour>
    </TTGlyph>
    <TTGlyph name="Gbreve" xMin="104" yMin="-20" xMax="1409" yMax="1950">
      <component glyphName="G" x="0" y="0" flags="0x204"/>
      <component glyphName="breve" x="135" y="338" flags="0x4"/>
    </TTGlyph>
    <TTGlyph name="Gcircumflex" xMin="104" yMin="-20" xMax="1413" yMax="1907">
      <component glyphName="G" x="0" y="0" flags="0x204"/>
      <component glyphName="circumflex" x="223" y="338" flags="0x4"/>
    </TTGlyph>
    <TTGlyph name="Gcommaaccent" xMin="104" yMin="-453" xMax="1409" yMax="1485">
      <component glyphName="G" x="0" y="0" flags="0x204"/>
      <component glyphName="commaaccent" x="266" y="0" flags="0x4"/>
    </TTGlyph>
    <TTGlyph name="Gdot" xMin="104" yMin="-20" xMax="1409" yMax="1929">
      <component glyphName="G" x="0" y="0" flags="0x204"/>
      <component glyphName="dotaccent" x="418" y="338" flags="0x4"/>
    </TTGlyph>
    <TTGlyph name="H" xMin="33" yMin="0" xMax="1473" yMax="1462">
      <contour>
        <pt x="1163" y="0" on="1"/>
        <pt x="772" y="0" on="1"/>
        <pt x="897" y="596" on="1"/>
        <pt x="551" y="596" on="1"/>
        <pt x="424" y="0" on="1"/>
        <pt x="33" y="0" on="1"/>
        <pt x="342" y="1462" on="1"/>
        <pt x="733" y="1462" on="1"/>
        <pt x="621" y="920" on="1"/>
        <pt x="969" y="920" on="1"/>
        <pt x="1081" y="1462" on="1"/>
        <pt x="1473" y="1462" on="1"/>
      </contour>
    </TTGlyph>
    <TTGlyph name="Hbar" xMin="33" yMin="0" xMax="1612" yMax="1462">
      <contour>
        <pt x="1440" y="1305" on="1"/>
        <pt x="1612" y="1305" on="1"/>
        <pt x="1563" y="1069" on="1"/>
        <pt x="1389" y="1069" on="1"/>
        <pt x="1163" y="0" on="1"/>
        <pt x="772" y="0" on="1"/>
        <pt x="897" y="594" on="1"/>
        <pt x="551" y="594" on="1"/>
        <pt x="424" y="0" on="1"/>
        <pt x="33" y="0" on="1"/>
        <pt x="258" y="1069" on="1"/>
        <pt x="88" y="1069" on="1"/>
        <pt x="135" y="1305" on="1"/>
        <pt x="307" y="1305" on="1"/>
        <pt x="342" y="1462" on="1"/>
        <pt x="733" y="1462" on="1"/>
        <pt x="702" y="1305" on="1"/>
        <pt x="1049" y="1305" on="1"/>
        <pt x="1081" y="1462" on="1"/>
        <pt x="1473" y="1462" on="1"/>
      </contour>
      <contour>
        <pt x="969" y="920" on="1"/>
        <pt x="997" y="1069" on="1"/>
        <pt x="649" y="1069" on="1"/>
        <pt x="621" y="920" on="1"/>
      </contour>
    </TTGlyph>
    <TTGlyph name="Hcircumflex" xMin="33" yMin="0" xMax="1473" yMax="1907">
      <component glyphName="H" x="0" y="0" flags="0x204"/>
      <component glyphName="circumflex" x="182" y="338" flags="0x4"/>
    </TTGlyph>
    <TTGlyph name="I" xMin="31" yMin="0" xMax="737" yMax="1462">
      <contour>
        <pt x="31" y="0" on="1"/>
        <pt x="340" y="1462" on="1"/>
        <pt x="737" y="1462" on="1"/>
        <pt x="428" y="0" on="1"/>
      </contour>
    </TTGlyph>
    <TTGlyph name="I.alt" xMin="-74" yMin="0" xMax="985" yMax="1462">
      <contour>
        <pt x="672" y="0" on="1"/>
        <pt x="-74" y="0" on="1"/>
        <pt x="-27" y="223" on="1"/>
        <pt x="166" y="303" on="1"/>
        <pt x="346" y="1151" on="1"/>
        <pt x="186" y="1237" on="1"/>
        <pt x="233" y="1462" on="1"/>
        <pt x="985" y="1462" on="1"/>
        <pt x="938" y="1237" on="1"/>
        <pt x="737" y="1151" on="1"/>
        <pt x="557" y="303" on="1"/>
        <pt x="719" y="223" on="1"/>
      </contour>
    </TTGlyph>
    <TTGlyph name="IJ" xMin="31" yMin="-461" xMax="1499" yMax="1462">
      <component glyphName="I" x="0" y="0" flags="0x4"/>
      <component glyphName="J" x="727" y="0" flags="0x4"/>
    </TTGlyph>
    <TTGlyph name="IJ.alt" xMin="-74" yMin="-461" xMax="1644" yMax="1462">
      <component glyphName="J" x="872" y="0" flags="0x4"/>
      <component glyphName="I.alt" x="0" y="0" flags="0x4"/>
    </TTGlyph>
    <TTGlyph name="Iacute" xMin="31" yMin="0" xMax="1066" yMax="1907">
      <component glyphName="I" x="0" y="0" flags="0x204"/>
      <component glyphName="acute" x="-108" y="338" flags="0x4"/>
    </TTGlyph>
    <TTGlyph name="Iacute.alt" xMin="-74" yMin="0" xMax="1152" yMax="1907">
      <component glyphName="I.alt" x="0" y="0" flags="0x204"/>
      <component glyphName="acute" x="-22" y="338" flags="0x4"/>
    </TTGlyph>
    <TTGlyph name="Ibreve" xMin="31" yMin="0" xMax="994" yMax="1950">
      <component glyphName="I" x="0" y="0" flags="0x204"/>
      <component glyphName="breve" x="-216" y="338" flags="0x4"/>
    </TTGlyph>
    <TTGlyph name="Ibreve.alt" xMin="-74" yMin="0" xMax="1064" yMax="1950">
      <component glyphName="I.alt" x="0" y="0" flags="0x204"/>
      <component glyphName="breve" x="-146" y="338" flags="0x4"/>
    </TTGlyph>
    <TTGlyph name="Icircumflex" xMin="31" yMin="0" xMax="1015" yMax="1907">
      <component glyphName="I" x="0" y="0" flags="0x204"/>
      <component glyphName="circumflex" x="-175" y="338" flags="0x4"/>
    </TTGlyph>
    <TTGlyph name="Icircumflex.alt" xMin="-74" yMin="0" xMax="1068" yMax="1907">
      <component glyphName="I.alt" x="0" y="0" flags="0x204"/>
      <component glyphName="circumflex" x="-122" y="338" flags="0x4"/>
    </TTGlyph>
    <TTGlyph name="Idieresis" xMin="31" yMin="0" xMax="1015" yMax="1909">
      <component glyphName="I" x="0" y="0" flags="0x204"/>
      <component glyphName="dieresis" x="-177" y="338" flags="0x4"/>
    </TTGlyph>
    <TTGlyph name="Idieresis.alt" xMin="-74" yMin="0" xMax="1093" yMax="1909">
      <component glyphName="I.alt" x="0" y="0" flags="0x204"/>
      <component glyphName="dieresis" x="-99" y="338" flags="0x4"/>
    </TTGlyph>
    <TTGlyph name="Idotaccent" xMin="31" yMin="0" xMax="786" yMax="1929">
      <component glyphName="I" x="0" y="0" flags="0x204"/>
      <component glyphName="dotaccent" x="49" y="338" flags="0x4"/>
    </TTGlyph>
    <TTGlyph name="Idotaccent.alt" xMin="-74" yMin="0" xMax="985" yMax="1929">
      <component glyphName="I.alt" x="0" y="0" flags="0x204"/>
      <component glyphName="dotaccent" x="102" y="338" flags="0x4"/>
    </TTGlyph>
    <TTGlyph name="Igrave" xMin="31" yMin="0" xMax="749" yMax="1907">
      <component glyphName="I" x="0" y="0" flags="0x204"/>
      <component glyphName="grave" x="-226" y="338" flags="0x4"/>
    </TTGlyph>
    <TTGlyph name="Igrave.alt" xMin="-74" yMin="0" xMax="985" yMax="1907">
      <component glyphName="I.alt" x="0" y="0" flags="0x204"/>
      <component glyphName="grave" x="-218" y="338" flags="0x4"/>
    </TTGlyph>
    <TTGlyph name="Imacron" xMin="31" yMin="0" xMax="928" yMax="1815">
      <component glyphName="I" x="0" y="0" flags="0x204"/>
      <component glyphName="macron" x="-159" y="338" flags="0x4"/>
    </TTGlyph>
    <TTGlyph name="Imacron.alt" xMin="-74" yMin="0" xMax="1010" yMax="1815">
      <component glyphName="I.alt" x="0" y="0" flags="0x204"/>
      <component glyphName="macron" x="-77" y="338" flags="0x4"/>
    </TTGlyph>
    <TTGlyph name="Iogonek" xMin="-96" yMin="-524" xMax="737" yMax="1462">
      <component glyphName="I" x="0" y="0" flags="0x204"/>
      <component glyphName="ogonek" x="94" y="0" flags="0x4"/>
    </TTGlyph>
    <TTGlyph name="Iogonek.alt" xMin="-74" yMin="-524" xMax="985" yMax="1462">
      <component glyphName="I.alt" x="0" y="0" flags="0x204"/>
      <component glyphName="ogonek" x="170" y="0" flags="0x4"/>
    </TTGlyph>
    <TTGlyph name="Iota" xMin="31" yMin="0" xMax="737" yMax="1462">
      <component glyphName="I" x="0" y="0" flags="0x204"/>
    </TTGlyph>
    <TTGlyph name="Iota.alt" xMin="-74" yMin="0" xMax="985" yMax="1462">
      <component glyphName="I.alt" x="0" y="0" flags="0x204"/>
    </TTGlyph>
    <TTGlyph name="Iotadieresis" xMin="31" yMin="0" xMax="1015" yMax="1909">
      <component glyphName="I" x="0" y="0" flags="0x204"/>
      <component glyphName="dieresis" x="-177" y="338" flags="0x4"/>
    </TTGlyph>
    <TTGlyph name="Iotadieresis.alt" xMin="-74" yMin="0" xMax="1082" yMax="1909">
      <component glyphName="I.alt" x="0" y="0" flags="0x204"/>
      <component glyphName="dieresis" x="-110" y="338" flags="0x4"/>
    </TTGlyph>
    <TTGlyph name="Iotatonos" xMin="9" yMin="0" xMax="893" yMax="1525">
      <component glyphName="I" x="156" y="0" flags="0x4"/>
      <component glyphName="tonos" x="-517" y="-105" flags="0x4"/>
    </TTGlyph>
    <TTGlyph name="Iotatonos.alt" xMin="-270" yMin="0" xMax="985" yMax="1525">
      <component glyphName="I.alt" x="0" y="0" flags="0x204"/>
      <component glyphName="tonos" x="-796" y="-105" flags="0x4"/>
    </TTGlyph>
    <TTGlyph name="Itilde" xMin="31" yMin="0" xMax="1019" yMax="1919">
      <component glyphName="I" x="0" y="0" flags="0x204"/>
      <component glyphName="tilde" x="-187" y="338" flags="0x4"/>
    </TTGlyph>
    <TTGlyph name="Itilde.alt" xMin="-74" yMin="0" xMax="1115" yMax="1919">
      <component glyphName="I.alt" x="0" y="0" flags="0x204"/>
      <component glyphName="tilde" x="-91" y="338" flags="0x4"/>
    </TTGlyph>
    <TTGlyph name="J" xMin="-328" yMin="-461" xMax="772" yMax="1462">
      <contour>
        <pt x="-115" y="-461" on="1"/>
        <pt x="-221" y="-461" on="0"/>
        <pt x="-328" y="-432" on="1"/>
        <pt x="-328" y="-113" on="1"/>
        <pt x="-229" y="-137" on="0"/>
        <pt x="-154" y="-137" on="1"/>
        <pt x="-47" y="-137" on="0"/>
        <pt x="63" y="-19" on="0"/>
        <pt x="92" y="117" on="1"/>
        <pt x="381" y="1462" on="1"/>
        <pt x="772" y="1462" on="1"/>
        <pt x="473" y="68" on="1"/>
        <pt x="430" y="-132" on="0"/>
        <pt x="290" y="-357" on="0"/>
        <pt x="65" y="-461" on="0"/>
      </contour>
    </TTGlyph>
    <TTGlyph name="Jcircumflex" xMin="-328" yMin="-461" xMax="1050" yMax="1907">
      <component glyphName="J" x="0" y="0" flags="0x204"/>
      <component glyphName="circumflex" x="-140" y="338" flags="0x4"/>
    </TTGlyph>
    <TTGlyph name="K" xMin="33" yMin="0" xMax="1522" yMax="1462">
      <contour>
        <pt x="1241" y="0" on="1"/>
        <pt x="803" y="0" on="1"/>
        <pt x="629" y="578" on="1"/>
        <pt x="532" y="522" on="1"/>
        <pt x="424" y="0" on="1"/>
        <pt x="33" y="0" on="1"/>
        <pt x="342" y="1462" on="1"/>
        <pt x="733" y="1462" on="1"/>
        <pt x="598" y="838" on="1"/>
        <pt x="636" y="897" on="1"/>
        <pt x="724" y="1040" on="0"/>
        <pt x="766" y="1092" on="1"/>
        <pt x="1063" y="1462" on="1"/>
        <pt x="1522" y="1462" on="1"/>
        <pt x="971" y="788" on="1"/>
      </contour>
    </TTGlyph>
    <TTGlyph name="Kappa" xMin="33" yMin="0" xMax="1522" yMax="1462">
      <component glyphName="K" x="0" y="0" flags="0x204"/>
    </TTGlyph>
    <TTGlyph name="Kcommaaccent" xMin="33" yMin="-453" xMax="1522" yMax="1462">
      <component glyphName="K" x="0" y="0" flags="0x204"/>
      <component glyphName="commaaccent" x="205" y="0" flags="0x4"/>
    </TTGlyph>
    <TTGlyph name="L" xMin="33" yMin="0" xMax="969" yMax="1462">
      <contour>
        <pt x="33" y="0" on="1"/>
        <pt x="342" y="1462" on="1"/>
        <pt x="733" y="1462" on="1"/>
        <pt x="492" y="319" on="1"/>
        <pt x="969" y="319" on="1"/>
        <pt x="901" y="0" on="1"/>
      </contour>
    </TTGlyph>
    <TTGlyph name="Lacute" xMin="33" yMin="0" xMax="1105" yMax="1907">
      <component glyphName="L" x="0" y="0" flags="0x204"/>
      <component glyphName="acute" x="-69" y="338" flags="0x4"/>
    </TTGlyph>
    <TTGlyph name="Lambda" xMin="-117" yMin="0" xMax="1149" yMax="1462">
      <contour>
        <pt x="297" y="0" on="1"/>
        <pt x="-117" y="0" on="1"/>
        <pt x="606" y="1462" on="1"/>
        <pt x="1042" y="1462" on="1"/>
        <pt x="1149" y="0" on="1"/>
        <pt x="766" y="0" on="1"/>
        <pt x="739" y="711" on="1"/>
        <pt x="737" y="791" on="1"/>
        <pt x="737" y="852" on="1"/>
        <pt x="737" y="1009" on="0"/>
        <pt x="754" y="1108" on="1"/>
        <pt x="745" y="1108" on="1"/>
        <pt x="730" y="1042" on="0"/>
        <pt x="674" y="872" on="0"/>
        <pt x="645" y="805" on="1"/>
      </contour>
    </TTGlyph>
    <TTGlyph name="Lcaron" xMin="33" yMin="0" xMax="1276" yMax="1463">
      <component glyphName="L" x="0" y="0" flags="0x204"/>
      <component glyphName="caroncommaaccent" x="326" y="-93" flags="0x4"/>
    </TTGlyph>
    <TTGlyph name="Lcommaaccent" xMin="33" yMin="-453" xMax="969" yMax="1462">
      <component glyphName="L" x="0" y="0" flags="0x204"/>
      <component glyphName="commaaccent" x="63" y="0" flags="0x4"/>
    </TTGlyph>
    <TTGlyph name="Ldot" xMin="33" yMin="0" xMax="1134" yMax="1462">
      <component glyphName="L" x="0" y="0" flags="0x204"/>
      <component glyphName="dotaccent" x="397" y="-648" flags="0x4"/>
    </TTGlyph>
    <TTGlyph name="Lslash" xMin="-47" yMin="0" xMax="989" yMax="1462">
      <contour>
        <pt x="362" y="1462" on="1"/>
        <pt x="754" y="1462" on="1"/>
        <pt x="664" y="1042" on="1"/>
        <pt x="836" y="1133" on="1"/>
        <pt x="967" y="889" on="1"/>
        <pt x="590" y="692" on="1"/>
        <pt x="512" y="319" on="1"/>
        <pt x="989" y="319" on="1"/>
        <pt x="922" y="0" on="1"/>
        <pt x="53" y="0" on="1"/>
        <pt x="156" y="485" on="1"/>
        <pt x="78" y="446" on="1"/>
        <pt x="-47" y="688" on="1"/>
        <pt x="227" y="834" on="1"/>
      </contour>
    </TTGlyph>
    <TTGlyph name="M" xMin="33" yMin="0" xMax="1872" yMax="1462">
      <contour>
        <pt x="588" y="0" on="1"/>
        <pt x="588" y="1049" on="1"/>
        <pt x="580" y="1049" on="1"/>
        <pt x="513" y="632" on="0"/>
        <pt x="494" y="537" on="1"/>
        <pt x="381" y="0" on="1"/>
        <pt x="33" y="0" on="1"/>
        <pt x="342" y="1462" on="1"/>
        <pt x="860" y="1462" on="1"/>
        <pt x="860" y="424" on="1"/>
        <pt x="868" y="424" on="1"/>
        <pt x="1346" y="1462" on="1"/>
        <pt x="1872" y="1462" on="1"/>
        <pt x="1559" y="0" on="1"/>
        <pt x="1208" y="0" on="1"/>
        <pt x="1325" y="549" on="1"/>
        <pt x="1375" y="777" on="0"/>
        <pt x="1433" y="985" on="1"/>
        <pt x="1448" y="1049" on="1"/>
        <pt x="1440" y="1049" on="1"/>
        <pt x="958" y="0" on="1"/>
      </contour>
    </TTGlyph>
    <TTGlyph name="Mu" xMin="33" yMin="0" xMax="1872" yMax="1462">
      <component glyphName="M" x="0" y="0" flags="0x204"/>
    </TTGlyph>
    <TTGlyph name="N" xMin="33" yMin="0" xMax="1628" yMax="1462">
      <contour>
        <pt x="1319" y="0" on="1"/>
        <pt x="864" y="0" on="1"/>
        <pt x="575" y="1028" on="1"/>
        <pt x="567" y="1028" on="1"/>
        <pt x="538" y="737" on="0"/>
        <pt x="510" y="610" on="1"/>
        <pt x="381" y="0" on="1"/>
        <pt x="33" y="0" on="1"/>
        <pt x="342" y="1462" on="1"/>
        <pt x="797" y="1462" on="1"/>
        <pt x="1083" y="479" on="1"/>
        <pt x="1092" y="479" on="1"/>
        <pt x="1121" y="715" on="0"/>
        <pt x="1149" y="850" on="1"/>
        <pt x="1280" y="1462" on="1"/>
        <pt x="1628" y="1462" on="1"/>
      </contour>
    </TTGlyph>
    <TTGlyph name="Nacute" xMin="33" yMin="0" xMax="1628" yMax="1907">
      <component glyphName="N" x="0" y="0" flags="0x204"/>
      <component glyphName="acute" x="336" y="338" flags="0x4"/>
    </TTGlyph>
    <TTGlyph name="Ncaron" xMin="33" yMin="0" xMax="1628" yMax="1907">
      <component glyphName="N" x="0" y="0" flags="0x204"/>
      <component glyphName="caron" x="250" y="338" flags="0x4"/>
    </TTGlyph>
    <TTGlyph name="Ncommaaccent" xMin="33" yMin="-453" xMax="1628" yMax="1462">
      <component glyphName="N" x="0" y="0" flags="0x204"/>
      <component glyphName="commaaccent" x="299" y="0" flags="0x4"/>
    </TTGlyph>
    <TTGlyph name="Ntilde" xMin="33" yMin="0" xMax="1628" yMax="1919">
      <component glyphName="N" x="0" y="0" flags="0x204"/>
      <component glyphName="tilde" x="252" y="338" flags="0x4"/>
    </TTGlyph>
    <TTGlyph name="Nu" xMin="33" yMin="0" xMax="1628" yMax="1462">
      <component glyphName="N" x="0" y="0" flags="0x204"/>
    </TTGlyph>
    <TTGlyph name="O" xMin="104" yMin="-20" xMax="1446" yMax="1485">
      <contour>
        <pt x="897" y="1485" on="1"/>
        <pt x="1157" y="1485" on="0"/>
        <pt x="1446" y="1188" on="0"/>
        <pt x="1446" y="922" on="1"/>
        <pt x="1446" y="656" on="0"/>
        <pt x="1247" y="215" on="0"/>
        <pt x="897" y="-20" on="0"/>
        <pt x="666" y="-20" on="1"/>
        <pt x="397" y="-20" on="0"/>
        <pt x="104" y="278" on="0"/>
        <pt x="104" y="543" on="1"/>
        <pt x="104" y="808" on="0"/>
        <pt x="310" y="1252" on="0"/>
        <pt x="665" y="1485" on="0"/>
      </contour>
      <contour>
        <pt x="1051" y="918" on="1"/>
        <pt x="1051" y="1032" on="0"/>
        <pt x="955" y="1161" on="0"/>
        <pt x="864" y="1161" on="1"/>
        <pt x="765" y="1161" on="0"/>
        <pt x="599" y="993" on="0"/>
        <pt x="500" y="699" on="0"/>
        <pt x="500" y="545" on="1"/>
        <pt x="500" y="303" on="0"/>
        <pt x="700" y="303" on="1"/>
        <pt x="795" y="303" on="0"/>
        <pt x="958" y="469" on="0"/>
        <pt x="1051" y="751" on="0"/>
      </contour>
    </TTGlyph>
    <TTGlyph name="OE" xMin="104" yMin="-20" xMax="1968" yMax="1485">
      <contour>
        <pt x="1659" y="0" on="1"/>
        <pt x="844" y="0" on="1"/>
        <pt x="740" y="-20" on="0"/>
        <pt x="647" y="-20" on="1"/>
        <pt x="391" y="-20" on="0"/>
        <pt x="104" y="273" on="0"/>
        <pt x="104" y="528" on="1"/>
        <pt x="104" y="724" on="0"/>
        <pt x="221" y="1090" on="0"/>
        <pt x="433" y="1350" on="0"/>
        <pt x="726" y="1485" on="0"/>
        <pt x="903" y="1485" on="1"/>
        <pt x="997" y="1485" on="0"/>
        <pt x="1094" y="1462" on="1"/>
        <pt x="1968" y="1462" on="1"/>
        <pt x="1901" y="1143" on="1"/>
        <pt x="1423" y="1143" on="1"/>
        <pt x="1376" y="918" on="1"/>
        <pt x="1821" y="918" on="1"/>
        <pt x="1749" y="596" on="1"/>
        <pt x="1305" y="596" on="1"/>
        <pt x="1247" y="324" on="1"/>
        <pt x="1724" y="324" on="1"/>
      </contour>
      <contour>
        <pt x="682" y="309" on="1"/>
        <pt x="778" y="309" on="0"/>
        <pt x="862" y="350" on="1"/>
        <pt x="1024" y="1112" on="1"/>
        <pt x="971" y="1161" on="0"/>
        <pt x="870" y="1161" on="1"/>
        <pt x="774" y="1161" on="0"/>
        <pt x="601" y="985" on="0"/>
        <pt x="500" y="691" on="0"/>
        <pt x="500" y="526" on="1"/>
        <pt x="500" y="309" on="0"/>
      </contour>
    </TTGlyph>
    <TTGlyph name="Oacute" xMin="104" yMin="-20" xMax="1446" yMax="1907">
      <component glyphName="O" x="0" y="0" flags="0x204"/>
      <component glyphName="acute" x="264" y="338" flags="0x4"/>
    </TTGlyph>
    <TTGlyph name="Obreve" xMin="104" yMin="-20" xMax="1446" yMax="1950">
      <component glyphName="O" x="0" y="0" flags="0x204"/>
      <component glyphName="breve" x="145" y="338" flags="0x4"/>
    </TTGlyph>
    <TTGlyph name="Ocircumflex" xMin="104" yMin="-20" xMax="1446" yMax="1907">
      <component glyphName="O" x="0" y="0" flags="0x204"/>
      <component glyphName="circumflex" x="178" y="338" flags="0x4"/>
    </TTGlyph>
    <TTGlyph name="Odieresis" xMin="104" yMin="-20" xMax="1446" yMax="1909">
      <component glyphName="O" x="0" y="0" flags="0x204"/>
      <component glyphName="dieresis" x="176" y="338" flags="0x4"/>
    </TTGlyph>
    <TTGlyph name="Ograve" xMin="104" yMin="-20" xMax="1446" yMax="1907">
      <component glyphName="O" x="0" y="0" flags="0x204"/>
      <component glyphName="grave" x="127" y="338" flags="0x4"/>
    </TTGlyph>
    <TTGlyph name="Ohorn" xMin="104" yMin="-20" xMax="1849" yMax="1556">
      <contour>
        <pt x="897" y="1485" on="1"/>
        <pt x="1199" y="1485" on="0"/>
        <pt x="1343" y="1286" on="1"/>
        <pt x="1433" y="1406" on="0"/>
        <pt x="1458" y="1556" on="1"/>
        <pt x="1837" y="1556" on="1"/>
        <pt x="1849" y="1530" on="1"/>
        <pt x="1733" y="1179" on="0"/>
        <pt x="1434" y="1063" on="1"/>
        <pt x="1446" y="995" on="0"/>
        <pt x="1446" y="922" on="1"/>
        <pt x="1446" y="656" on="0"/>
        <pt x="1247" y="215" on="0"/>
        <pt x="897" y="-20" on="0"/>
        <pt x="666" y="-20" on="1"/>
        <pt x="397" y="-20" on="0"/>
        <pt x="104" y="278" on="0"/>
        <pt x="104" y="543" on="1"/>
        <pt x="104" y="808" on="0"/>
        <pt x="310" y="1252" on="0"/>
        <pt x="665" y="1485" on="0"/>
      </contour>
      <contour>
        <pt x="1051" y="918" on="1"/>
        <pt x="1051" y="1032" on="0"/>
        <pt x="955" y="1161" on="0"/>
        <pt x="864" y="1161" on="1"/>
        <pt x="765" y="1161" on="0"/>
        <pt x="599" y="993" on="0"/>
        <pt x="500" y="699" on="0"/>
        <pt x="500" y="545" on="1"/>
        <pt x="500" y="303" on="0"/>
        <pt x="700" y="303" on="1"/>
        <pt x="795" y="303" on="0"/>
        <pt x="958" y="469" on="0"/>
        <pt x="1051" y="751" on="0"/>
      </contour>
    </TTGlyph>
    <TTGlyph name="Ohungarumlaut" xMin="104" yMin="-20" xMax="1564" yMax="1907">
      <component glyphName="O" x="0" y="0" flags="0x204"/>
      <component glyphName="hungarumlaut" x="311" y="338" flags="0x4"/>
    </TTGlyph>
    <TTGlyph name="Omacron" xMin="104" yMin="-20" xMax="1446" yMax="1815">
      <component glyphName="O" x="0" y="0" flags="0x204"/>
      <component glyphName="macron" x="205" y="338" flags="0x4"/>
    </TTGlyph>
    <TTGlyph name="Omega" xMin="-84" yMin="0" xMax="1520" yMax="1485">
      <component glyphName="uni03A9" x="0" y="0" flags="0x204"/>
    </TTGlyph>
    <TTGlyph name="Omegatonos" xMin="31" yMin="0" xMax="1676" yMax="1525">
      <component glyphName="uni03A9" x="156" y="0" flags="0x4"/>
      <component glyphName="tonos" x="-495" y="-105" flags="0x4"/>
    </TTGlyph>
    <TTGlyph name="Omicron" xMin="104" yMin="-20" xMax="1446" yMax="1485">
      <component glyphName="O" x="0" y="0" flags="0x204"/>
    </TTGlyph>
    <TTGlyph name="Omicrontonos" xMin="44" yMin="-20" xMax="1591" yMax="1525">
      <component glyphName="tonos" x="-482" y="-105" flags="0x4"/>
      <component glyphName="O" x="145" y="0" flags="0x4"/>
    </TTGlyph>
    <TTGlyph name="Oslash" xMin="94" yMin="-86" xMax="1446" yMax="1528">
      <contour>
        <pt x="879" y="1485" on="1"/>
        <pt x="1061" y="1485" on="0"/>
        <pt x="1194" y="1413" on="1"/>
        <pt x="1286" y="1528" on="1"/>
        <pt x="1442" y="1409" on="1"/>
        <pt x="1343" y="1284" on="1"/>
        <pt x="1446" y="1141" on="0"/>
        <pt x="1446" y="922" on="1"/>
        <pt x="1446" y="664" on="0"/>
        <pt x="1249" y="219" on="0"/>
        <pt x="904" y="-20" on="0"/>
        <pt x="684" y="-20" on="1"/>
        <pt x="492" y="-20" on="0"/>
        <pt x="360" y="49" on="1"/>
        <pt x="254" y="-86" on="1"/>
        <pt x="94" y="31" on="1"/>
        <pt x="211" y="176" on="1"/>
        <pt x="104" y="317" on="0"/>
        <pt x="104" y="543" on="1"/>
        <pt x="104" y="805" on="0"/>
        <pt x="306" y="1250" on="0"/>
        <pt x="655" y="1485" on="0"/>
      </contour>
      <contour>
        <pt x="500" y="539" on="1"/>
        <pt x="967" y="1128" on="1"/>
        <pt x="922" y="1161" on="0"/>
        <pt x="852" y="1161" on="1"/>
        <pt x="758" y="1161" on="0"/>
        <pt x="596" y="997" on="0"/>
        <pt x="500" y="713" on="0"/>
        <pt x="500" y="549" on="1"/>
      </contour>
      <contour>
        <pt x="700" y="303" on="1"/>
        <pt x="795" y="303" on="0"/>
        <pt x="957" y="466" on="0"/>
        <pt x="1051" y="748" on="0"/>
        <pt x="1051" y="915" on="1"/>
        <pt x="586" y="332" on="1"/>
        <pt x="632" y="303" on="0"/>
      </contour>
    </TTGlyph>
    <TTGlyph name="Oslashacute" xMin="94" yMin="-86" xMax="1446" yMax="1907">
      <component glyphName="Oslash" x="0" y="0" flags="0x204"/>
      <component glyphName="acute" x="264" y="338" flags="0x4"/>
    </TTGlyph>
    <TTGlyph name="Otilde" xMin="104" yMin="-20" xMax="1446" yMax="1919">
      <component glyphName="O" x="0" y="0" flags="0x204"/>
      <component glyphName="tilde" x="188" y="338" flags="0x4"/>
    </TTGlyph>
    <TTGlyph name="P" xMin="33" yMin="0" xMax="1251" yMax="1462">
      <contour>
        <pt x="1251" y="1024" on="1"/>
        <pt x="1251" y="772" on="0"/>
        <pt x="908" y="485" on="0"/>
        <pt x="610" y="485" on="1"/>
        <pt x="524" y="485" on="1"/>
        <pt x="424" y="0" on="1"/>
        <pt x="33" y="0" on="1"/>
        <pt x="342" y="1462" on="1"/>
        <pt x="715" y="1462" on="1"/>
        <pt x="974" y="1462" on="0"/>
        <pt x="1251" y="1235" on="0"/>
      </contour>
      <contour>
        <pt x="594" y="805" on="1"/>
        <pt x="657" y="805" on="1"/>
        <pt x="748" y="805" on="0"/>
        <pt x="860" y="922" on="0"/>
        <pt x="860" y="1012" on="1"/>
        <pt x="860" y="1071" on="0"/>
        <pt x="788" y="1143" on="0"/>
        <pt x="725" y="1143" on="1"/>
        <pt x="666" y="1143" on="1"/>
      </contour>
    </TTGlyph>
    <TTGlyph name="Phi" xMin="92" yMin="-20" xMax="1679" yMax="1483">
      <contour>
        <pt x="92" y="678" on="1"/>
        <pt x="92" y="964" on="0"/>
        <pt x="467" y="1288" on="0"/>
        <pt x="817" y="1303" on="1"/>
        <pt x="854" y="1483" on="1"/>
        <pt x="1223" y="1483" on="1"/>
        <pt x="1186" y="1303" on="1"/>
        <pt x="1416" y="1280" on="0"/>
        <pt x="1679" y="1028" on="0"/>
        <pt x="1679" y="829" on="1"/>
        <pt x="1679" y="533" on="0"/>
        <pt x="1309" y="218" on="0"/>
        <pt x="952" y="205" on="1"/>
        <pt x="903" y="-20" on="1"/>
        <pt x="535" y="-20" on="1"/>
        <pt x="584" y="205" on="1"/>
        <pt x="353" y="228" on="0"/>
        <pt x="92" y="478" on="0"/>
      </contour>
      <contour>
        <pt x="477" y="698" on="1"/>
        <pt x="477" y="598" on="0"/>
        <pt x="564" y="508" on="0"/>
        <pt x="649" y="502" on="1"/>
        <pt x="754" y="1004" on="1"/>
        <pt x="621" y="998" on="0"/>
        <pt x="477" y="841" on="0"/>
      </contour>
      <contour>
        <pt x="1294" y="807" on="1"/>
        <pt x="1294" y="982" on="0"/>
        <pt x="1122" y="1004" on="1"/>
        <pt x="1018" y="504" on="1"/>
        <pt x="1151" y="506" on="0"/>
        <pt x="1294" y="663" on="0"/>
      </contour>
    </TTGlyph>
    <TTGlyph name="Pi" xMin="33" yMin="0" xMax="1473" yMax="1462">
      <contour>
        <pt x="1163" y="0" on="1"/>
        <pt x="772" y="0" on="1"/>
        <pt x="1010" y="1139" on="1"/>
        <pt x="664" y="1139" on="1"/>
        <pt x="424" y="0" on="1"/>
        <pt x="33" y="0" on="1"/>
        <pt x="342" y="1462" on="1"/>
        <pt x="1473" y="1462" on="1"/>
      </contour>
    </TTGlyph>
    <TTGlyph name="Psi" xMin="160" yMin="0" xMax="1870" yMax="1462">
      <contour>
        <pt x="952" y="0" on="1"/>
        <pt x="584" y="0" on="1"/>
        <pt x="668" y="397" on="1"/>
        <pt x="426" y="401" on="0"/>
        <pt x="160" y="612" on="0"/>
        <pt x="160" y="805" on="1"/>
        <pt x="160" y="881" on="0"/>
        <pt x="176" y="956" on="1"/>
        <pt x="285" y="1462" on="1"/>
        <pt x="664" y="1462" on="1"/>
        <pt x="557" y="952" on="1"/>
        <pt x="541" y="877" on="0"/>
        <pt x="541" y="840" on="1"/>
        <pt x="541" y="794" on="0"/>
        <pt x="572" y="741" on="0"/>
        <pt x="641" y="717" on="0"/>
        <pt x="723" y="717" on="1"/>
        <pt x="735" y="717" on="1"/>
        <pt x="893" y="1462" on="1"/>
        <pt x="1262" y="1462" on="1"/>
        <pt x="1106" y="717" on="1"/>
        <pt x="1130" y="717" on="1"/>
        <pt x="1215" y="717" on="0"/>
        <pt x="1304" y="760" on="0"/>
        <pt x="1364" y="860" on="0"/>
        <pt x="1382" y="948" on="1"/>
        <pt x="1491" y="1462" on="1"/>
        <pt x="1870" y="1462" on="1"/>
        <pt x="1747" y="899" on="1"/>
        <pt x="1704" y="704" on="0"/>
        <pt x="1537" y="499" on="0"/>
        <pt x="1249" y="402" on="0"/>
        <pt x="1038" y="397" on="1"/>
      </contour>
    </TTGlyph>
    <TTGlyph name="Q" xMin="104" yMin="-348" xMax="1446" yMax="1485">
      <contour>
        <pt x="903" y="1485" on="1"/>
        <pt x="1161" y="1485" on="0"/>
        <pt x="1446" y="1186" on="0"/>
        <pt x="1446" y="922" on="1"/>
        <pt x="1446" y="642" on="0"/>
        <pt x="1218" y="184" on="0"/>
        <pt x="1022" y="74" on="1"/>
        <pt x="1260" y="-348" on="1"/>
        <pt x="821" y="-348" on="1"/>
        <pt x="659" y="-20" on="1"/>
        <pt x="647" y="-20" on="1"/>
        <pt x="389" y="-20" on="0"/>
        <pt x="104" y="279" on="0"/>
        <pt x="104" y="543" on="1"/>
        <pt x="104" y="808" on="0"/>
        <pt x="309" y="1250" on="0"/>
        <pt x="668" y="1485" on="0"/>
      </contour>
      <contour>
        <pt x="870" y="1157" on="1"/>
        <pt x="767" y="1157" on="0"/>
        <pt x="596" y="991" on="0"/>
        <pt x="500" y="705" on="0"/>
        <pt x="500" y="539" on="1"/>
        <pt x="500" y="424" on="0"/>
        <pt x="595" y="309" on="0"/>
        <pt x="682" y="309" on="1"/>
        <pt x="784" y="309" on="0"/>
        <pt x="953" y="471" on="0"/>
        <pt x="1051" y="758" on="0"/>
        <pt x="1051" y="926" on="1"/>
        <pt x="1051" y="1040" on="0"/>
        <pt x="957" y="1157" on="0"/>
      </contour>
    </TTGlyph>
    <TTGlyph name="R" xMin="33" yMin="0" xMax="1249" yMax="1462">
      <contour>
        <pt x="537" y="532" on="1"/>
        <pt x="424" y="0" on="1"/>
        <pt x="33" y="0" on="1"/>
        <pt x="342" y="1462" on="1"/>
        <pt x="729" y="1462" on="1"/>
        <pt x="981" y="1462" on="0"/>
        <pt x="1249" y="1262" on="0"/>
        <pt x="1249" y="1061" on="1"/>
        <pt x="1249" y="905" on="0"/>
        <pt x="1107" y="673" on="0"/>
        <pt x="967" y="612" on="1"/>
        <pt x="1191" y="96" on="1"/>
        <pt x="1231" y="0" on="1"/>
        <pt x="805" y="0" on="1"/>
        <pt x="610" y="532" on="1"/>
      </contour>
      <contour>
        <pt x="600" y="829" on="1"/>
        <pt x="651" y="829" on="1"/>
        <pt x="746" y="829" on="0"/>
        <pt x="858" y="938" on="0"/>
        <pt x="858" y="1036" on="1"/>
        <pt x="858" y="1098" on="0"/>
        <pt x="789" y="1163" on="0"/>
        <pt x="723" y="1163" on="1"/>
        <pt x="670" y="1163" on="1"/>
      </contour>
    </TTGlyph>
    <TTGlyph name="Racute" xMin="33" yMin="0" xMax="1305" yMax="1907">
      <component glyphName="R" x="0" y="0" flags="0x204"/>
      <component glyphName="acute" x="131" y="338" flags="0x4"/>
    </TTGlyph>
    <TTGlyph name="Rcaron" xMin="33" yMin="0" xMax="1304" yMax="1907">
      <component glyphName="R" x="0" y="0" flags="0x204"/>
      <component glyphName="caron" x="47" y="338" flags="0x4"/>
    </TTGlyph>
    <TTGlyph name="Rcommaaccent" xMin="33" yMin="-453" xMax="1249" yMax="1462">
      <component glyphName="R" x="0" y="0" flags="0x204"/>
      <component glyphName="commaaccent" x="211" y="0" flags="0x4"/>
    </TTGlyph>
    <TTGlyph name="Rho" xMin="33" yMin="0" xMax="1251" yMax="1462">
      <component glyphName="P" x="0" y="0" flags="0x204"/>
    </TTGlyph>
    <TTGlyph name="S" xMin="43" yMin="-20" xMax="1143" yMax="1483">
      <contour>
        <pt x="977" y="449" on="1"/>
        <pt x="977" y="227" on="0"/>
        <pt x="683" y="-20" on="0"/>
        <pt x="420" y="-20" on="1"/>
        <pt x="310" y="-20" on="0"/>
        <pt x="114" y="29" on="0"/>
        <pt x="43" y="76" on="1"/>
        <pt x="43" y="426" on="1"/>
        <pt x="127" y="373" on="0"/>
        <pt x="344" y="301" on="0"/>
        <pt x="432" y="301" on="1"/>
        <pt x="506" y="301" on="0"/>
        <pt x="582" y="363" on="0"/>
        <pt x="582" y="420" on="1"/>
        <pt x="582" y="447" on="0"/>
        <pt x="558" y="494" on="0"/>
        <pt x="514" y="541" on="0"/>
        <pt x="418" y="621" on="1"/>
        <pt x="301" y="715" on="0"/>
        <pt x="195" y="911" on="0"/>
        <pt x="195" y="1028" on="1"/>
        <pt x="195" y="1159" on="0"/>
        <pt x="326" y="1368" on="0"/>
        <pt x="565" y="1483" on="0"/>
        <pt x="713" y="1483" on="1"/>
        <pt x="952" y="1483" on="0"/>
        <pt x="1143" y="1376" on="1"/>
        <pt x="1008" y="1079" on="1"/>
        <pt x="837" y="1167" on="0"/>
        <pt x="717" y="1167" on="1"/>
        <pt x="653" y="1167" on="0"/>
        <pt x="584" y="1111" on="0"/>
        <pt x="584" y="1057" on="1"/>
        <pt x="584" y="1008" on="0"/>
        <pt x="651" y="923" on="0"/>
        <pt x="745" y="852" on="1"/>
        <pt x="863" y="765" on="0"/>
        <pt x="977" y="573" on="0"/>
      </contour>
    </TTGlyph>
    <TTGlyph name="Sacute" xMin="43" yMin="-20" xMax="1262" yMax="1907">
      <component glyphName="S" x="0" y="0" flags="0x204"/>
      <component glyphName="acute" x="88" y="338" flags="0x4"/>
    </TTGlyph>
    <TTGlyph name="Scaron" xMin="43" yMin="-20" xMax="1256" yMax="1907">
      <component glyphName="S" x="0" y="0" flags="0x204"/>
      <component glyphName="caron" x="-1" y="338" flags="0x4"/>
    </TTGlyph>
    <TTGlyph name="Scedilla" xMin="43" yMin="-492" xMax="1143" yMax="1483">
      <component glyphName="S" x="0" y="0" flags="0x204"/>
      <component glyphName="cedilla" x="393" y="0" flags="0x4"/>
    </TTGlyph>
    <TTGlyph name="Scircumflex" xMin="43" yMin="-20" xMax="1213" yMax="1907">
      <component glyphName="S" x="0" y="0" flags="0x204"/>
      <component glyphName="circumflex" x="23" y="338" flags="0x4"/>
    </TTGlyph>
    <TTGlyph name="Scommaaccent" xMin="43" yMin="-453" xMax="1143" yMax="1483">
      <component glyphName="S" x="0" y="0" flags="0x204"/>
      <component glyphName="commaaccent" x="27" y="0" flags="0x4"/>
    </TTGlyph>
    <TTGlyph name="Sigma" xMin="-61" yMin="0" xMax="1202" yMax="1462">
      <contour>
        <pt x="-61" y="0" on="1"/>
        <pt x="-4" y="281" on="1"/>
        <pt x="506" y="762" on="1"/>
        <pt x="199" y="1186" on="1"/>
        <pt x="258" y="1462" on="1"/>
        <pt x="1202" y="1462" on="1"/>
        <pt x="1135" y="1143" on="1"/>
        <pt x="647" y="1143" on="1"/>
        <pt x="938" y="737" on="1"/>
        <pt x="500" y="319" on="1"/>
        <pt x="1016" y="319" on="1"/>
        <pt x="950" y="0" on="1"/>
      </contour>
    </TTGlyph>
    <TTGlyph name="T" xMin="156" yMin="0" xMax="1253" yMax="1462">
      <contour>
        <pt x="627" y="0" on="1"/>
        <pt x="236" y="0" on="1"/>
        <pt x="473" y="1139" on="1"/>
        <pt x="156" y="1139" on="1"/>
        <pt x="225" y="1462" on="1"/>
        <pt x="1253" y="1462" on="1"/>
        <pt x="1182" y="1139" on="1"/>
        <pt x="864" y="1139" on="1"/>
      </contour>
    </TTGlyph>
    <TTGlyph name="Tau" xMin="156" yMin="0" xMax="1253" yMax="1462">
      <component glyphName="T" x="0" y="0" flags="0x204"/>
    </TTGlyph>
    <TTGlyph name="Tbar" xMin="143" yMin="0" xMax="1253" yMax="1462">
      <contour>
        <pt x="807" y="862" on="1"/>
        <pt x="1014" y="862" on="1"/>
        <pt x="944" y="543" on="1"/>
        <pt x="739" y="543" on="1"/>
        <pt x="627" y="0" on="1"/>
        <pt x="236" y="0" on="1"/>
        <pt x="348" y="543" on="1"/>
        <pt x="143" y="543" on="1"/>
        <pt x="211" y="862" on="1"/>
        <pt x="416" y="862" on="1"/>
        <pt x="473" y="1139" on="1"/>
        <pt x="156" y="1139" on="1"/>
        <pt x="225" y="1462" on="1"/>
        <pt x="1253" y="1462" on="1"/>
        <pt x="1182" y="1139" on="1"/>
        <pt x="864" y="1139" on="1"/>
      </contour>
    </TTGlyph>
    <TTGlyph name="Tcaron" xMin="156" yMin="0" xMax="1271" yMax="1907">
      <component glyphName="T" x="0" y="0" flags="0x204"/>
      <component glyphName="caron" x="14" y="338" flags="0x4"/>
    </TTGlyph>
    <TTGlyph name="Tcedilla" xMin="156" yMin="-492" xMax="1253" yMax="1462">
      <component glyphName="T" x="0" y="0" flags="0x204"/>
      <component glyphName="cedilla" x="399" y="0" flags="0x4"/>
    </TTGlyph>
    <TTGlyph name="Tcommaaccent" xMin="116" yMin="-453" xMax="1253" yMax="1462">
      <component glyphName="T" x="0" y="0" flags="0x204"/>
      <component glyphName="commaaccent" x="14" y="0" flags="0x4"/>
    </TTGlyph>
    <TTGlyph name="Theta" xMin="104" yMin="-20" xMax="1507" yMax="1485">
      <contour>
        <pt x="1040" y="893" on="1"/>
        <pt x="971" y="586" on="1"/>
        <pt x="584" y="586" on="1"/>
        <pt x="653" y="893" on="1"/>
      </contour>
      <contour>
        <pt x="913" y="1485" on="1"/>
        <pt x="1201" y="1485" on="0"/>
        <pt x="1507" y="1182" on="0"/>
        <pt x="1507" y="903" on="1"/>
        <pt x="1507" y="652" on="0"/>
        <pt x="1297" y="214" on="0"/>
        <pt x="937" y="-20" on="0"/>
        <pt x="711" y="-20" on="1"/>
        <pt x="413" y="-20" on="0"/>
        <pt x="104" y="286" on="0"/>
        <pt x="104" y="575" on="1"/>
        <pt x="104" y="822" on="0"/>
        <pt x="318" y="1255" on="0"/>
        <pt x="681" y="1485" on="0"/>
      </contour>
      <contour>
        <pt x="1112" y="895" on="1"/>
        <pt x="1112" y="1016" on="0"/>
        <pt x="996" y="1161" on="0"/>
        <pt x="891" y="1161" on="1"/>
        <pt x="784" y="1161" on="0"/>
        <pt x="604" y="1001" on="0"/>
        <pt x="500" y="720" on="0"/>
        <pt x="500" y="565" on="1"/>
        <pt x="500" y="431" on="0"/>
        <pt x="611" y="303" on="0"/>
        <pt x="723" y="303" on="1"/>
        <pt x="834" y="303" on="0"/>
        <pt x="1013" y="456" on="0"/>
        <pt x="1112" y="731" on="0"/>
      </contour>
    </TTGlyph>
    <TTGlyph name="Thorn" xMin="33" yMin="0" xMax="1208" yMax="1462">
      <contour>
        <pt x="342" y="1462" on="1"/>
        <pt x="733" y="1462" on="1"/>
        <pt x="688" y="1251" on="1"/>
        <pt x="939" y="1251" on="0"/>
        <pt x="1208" y="1023" on="0"/>
        <pt x="1208" y="811" on="1"/>
        <pt x="1208" y="561" on="0"/>
        <pt x="867" y="274" on="0"/>
        <pt x="567" y="274" on="1"/>
        <pt x="481" y="274" on="1"/>
        <pt x="424" y="0" on="1"/>
        <pt x="33" y="0" on="1"/>
      </contour>
      <contour>
        <pt x="551" y="594" on="1"/>
        <pt x="614" y="594" on="1"/>
        <pt x="708" y="594" on="0"/>
        <pt x="817" y="692" on="0"/>
        <pt x="817" y="799" on="1"/>
        <pt x="817" y="857" on="0"/>
        <pt x="734" y="932" on="0"/>
        <pt x="668" y="932" on="1"/>
        <pt x="623" y="932" on="1"/>
      </contour>
    </TTGlyph>
    <TTGlyph name="U" xMin="125" yMin="-20" xMax="1450" yMax="1462">
      <contour>
        <pt x="1450" y="1462" on="1"/>
        <pt x="1251" y="530" on="1"/>
        <pt x="1192" y="249" on="0"/>
        <pt x="860" y="-20" on="0"/>
        <pt x="575" y="-20" on="1"/>
        <pt x="441" y="-20" on="0"/>
        <pt x="236" y="90" on="0"/>
        <pt x="125" y="288" on="0"/>
        <pt x="125" y="410" on="1"/>
        <pt x="125" y="474" on="0"/>
        <pt x="137" y="539" on="1"/>
        <pt x="336" y="1462" on="1"/>
        <pt x="727" y="1462" on="1"/>
        <pt x="532" y="549" on="1"/>
        <pt x="518" y="481" on="0"/>
        <pt x="518" y="434" on="1"/>
        <pt x="518" y="307" on="0"/>
        <pt x="639" y="307" on="1"/>
        <pt x="733" y="307" on="0"/>
        <pt x="840" y="436" on="0"/>
        <pt x="868" y="569" on="1"/>
        <pt x="1059" y="1462" on="1"/>
      </contour>
    </TTGlyph>
    <TTGlyph name="Uacute" xMin="125" yMin="-20" xMax="1450" yMax="1907">
      <component glyphName="U" x="0" y="0" flags="0x204"/>
      <component glyphName="acute" x="272" y="338" flags="0x4"/>
    </TTGlyph>
    <TTGlyph name="Ubreve" xMin="125" yMin="-20" xMax="1450" yMax="1950">
      <component glyphName="U" x="0" y="0" flags="0x204"/>
      <component glyphName="breve" x="139" y="338" flags="0x4"/>
    </TTGlyph>
    <TTGlyph name="Ucircumflex" xMin="125" yMin="-20" xMax="1450" yMax="1907">
      <component glyphName="U" x="0" y="0" flags="0x204"/>
      <component glyphName="circumflex" x="186" y="338" flags="0x4"/>
    </TTGlyph>
    <TTGlyph name="Udieresis" xMin="125" yMin="-20" xMax="1450" yMax="1909">
      <component glyphName="U" x="0" y="0" flags="0x204"/>
      <component glyphName="dieresis" x="197" y="338" flags="0x4"/>
    </TTGlyph>
    <TTGlyph name="Ugrave" xMin="125" yMin="-20" xMax="1450" yMax="1907">
      <component glyphName="U" x="0" y="0" flags="0x204"/>
      <component glyphName="grave" x="70" y="338" flags="0x4"/>
    </TTGlyph>
    <TTGlyph name="Uhorn" xMin="125" yMin="-20" xMax="1966" yMax="1556">
      <contour>
        <pt x="1450" y="1462" on="1"/>
        <pt x="1413" y="1286" on="1"/>
        <pt x="1484" y="1311" on="0"/>
        <pt x="1563" y="1434" on="0"/>
        <pt x="1575" y="1556" on="1"/>
        <pt x="1954" y="1556" on="1"/>
        <pt x="1966" y="1530" on="1"/>
        <pt x="1879" y="1283" on="0"/>
        <pt x="1582" y="1060" on="0"/>
        <pt x="1362" y="1053" on="1"/>
        <pt x="1251" y="530" on="1"/>
        <pt x="1192" y="249" on="0"/>
        <pt x="860" y="-20" on="0"/>
        <pt x="575" y="-20" on="1"/>
        <pt x="441" y="-20" on="0"/>
        <pt x="236" y="90" on="0"/>
        <pt x="125" y="288" on="0"/>
        <pt x="125" y="410" on="1"/>
        <pt x="125" y="474" on="0"/>
        <pt x="137" y="539" on="1"/>
        <pt x="336" y="1462" on="1"/>
        <pt x="727" y="1462" on="1"/>
        <pt x="532" y="549" on="1"/>
        <pt x="518" y="481" on="0"/>
        <pt x="518" y="434" on="1"/>
        <pt x="518" y="307" on="0"/>
        <pt x="639" y="307" on="1"/>
        <pt x="733" y="307" on="0"/>
        <pt x="840" y="436" on="0"/>
        <pt x="868" y="569" on="1"/>
        <pt x="1059" y="1462" on="1"/>
      </contour>
    </TTGlyph>
    <TTGlyph name="Uhungarumlaut" xMin="125" yMin="-20" xMax="1566" yMax="1907">
      <component glyphName="U" x="0" y="0" flags="0x204"/>
      <component glyphName="hungarumlaut" x="313" y="338" flags="0x4"/>
    </TTGlyph>
    <TTGlyph name="Umacron" xMin="125" yMin="-20" xMax="1450" yMax="1815">
      <component glyphName="U" x="0" y="0" flags="0x204"/>
      <component glyphName="macron" x="195" y="338" flags="0x4"/>
    </TTGlyph>
    <TTGlyph name="Uogonek" xMin="125" yMin="-524" xMax="1450" yMax="1462">
      <component glyphName="U" x="0" y="0" flags="0x204"/>
      <component glyphName="ogonek" x="498" y="0" flags="0x4"/>
    </TTGlyph>
    <TTGlyph name="Upsilon" xMin="164" yMin="0" xMax="1405" yMax="1462">
      <component glyphName="Y" x="0" y="0" flags="0x204"/>
    </TTGlyph>
    <TTGlyph name="Upsilondieresis" xMin="164" yMin="0" xMax="1405" yMax="1909">
      <component glyphName="Y" x="0" y="0" flags="0x204"/>
      <component glyphName="dieresis" x="41" y="338" flags="0x4"/>
    </TTGlyph>
    <TTGlyph name="Upsilontonos" xMin="9" yMin="0" xMax="1757" yMax="1525">
      <component glyphName="Y" x="352" y="0" flags="0x4"/>
      <component glyphName="tonos" x="-517" y="-105" flags="0x4"/>
    </TTGlyph>
    <TTGlyph name="Uring" xMin="125" yMin="-20" xMax="1450" yMax="2081">
      <component glyphName="U" x="0" y="0" flags="0x204"/>
      <component glyphName="ring" x="117" y="338" flags="0x4"/>
    </TTGlyph>
    <TTGlyph name="Utilde" xMin="125" yMin="-20" xMax="1450" yMax="1919">
      <component glyphName="U" x="0" y="0" flags="0x204"/>
      <component glyphName="tilde" x="176" y="338" flags="0x4"/>
    </TTGlyph>
    <TTGlyph name="V" xMin="150" yMin="0" xMax="1415" yMax="1462">
      <contour>
        <pt x="1001" y="1462" on="1"/>
        <pt x="1415" y="1462" on="1"/>
        <pt x="690" y="0" on="1"/>
        <pt x="254" y="0" on="1"/>
        <pt x="150" y="1462" on="1"/>
        <pt x="532" y="1462" on="1"/>
        <pt x="559" y="661" on="1"/>
        <pt x="559" y="610" on="1"/>
        <pt x="559" y="466" on="0"/>
        <pt x="543" y="354" on="1"/>
        <pt x="551" y="354" on="1"/>
        <pt x="565" y="418" on="0"/>
        <pt x="626" y="605" on="0"/>
        <pt x="651" y="657" on="1"/>
      </contour>
    </TTGlyph>
    <TTGlyph name="W" xMin="152" yMin="0" xMax="2089" yMax="1462">
      <contour>
        <pt x="487" y="354" on="1"/>
        <pt x="527" y="458" on="1"/>
        <pt x="621" y="690" on="1"/>
        <pt x="956" y="1462" on="1"/>
        <pt x="1292" y="1462" on="1"/>
        <pt x="1292" y="670" on="1"/>
        <pt x="1292" y="514" on="0"/>
        <pt x="1266" y="354" on="1"/>
        <pt x="1276" y="382" on="0"/>
        <pt x="1399" y="700" on="1"/>
        <pt x="1702" y="1462" on="1"/>
        <pt x="2089" y="1462" on="1"/>
        <pt x="1454" y="0" on="1"/>
        <pt x="993" y="0" on="1"/>
        <pt x="993" y="620" on="1"/>
        <pt x="993" y="775" on="0"/>
        <pt x="1006" y="944" on="1"/>
        <pt x="973" y="811" on="0"/>
        <pt x="888" y="595" on="1"/>
        <pt x="635" y="0" on="1"/>
        <pt x="201" y="0" on="1"/>
        <pt x="152" y="1462" on="1"/>
        <pt x="522" y="1462" on="1"/>
        <pt x="512" y="729" on="1"/>
        <pt x="506" y="462" on="0"/>
      </contour>
    </TTGlyph>
    <TTGlyph name="Wacute" xMin="152" yMin="0" xMax="2089" yMax="1907">
      <component glyphName="W" x="0" y="0" flags="0x204"/>
      <component glyphName="acute" x="494" y="338" flags="0x4"/>
    </TTGlyph>
    <TTGlyph name="Wcircumflex" xMin="152" yMin="0" xMax="2089" yMax="1907">
      <component glyphName="W" x="0" y="0" flags="0x204"/>
      <component glyphName="circumflex" x="401" y="338" flags="0x4"/>
    </TTGlyph>
    <TTGlyph name="Wdieresis" xMin="152" yMin="0" xMax="2089" yMax="1909">
      <component glyphName="W" x="0" y="0" flags="0x204"/>
      <component glyphName="dieresis" x="397" y="338" flags="0x4"/>
    </TTGlyph>
    <TTGlyph name="Wgrave" xMin="152" yMin="0" xMax="2089" yMax="1907">
      <component glyphName="W" x="0" y="0" flags="0x204"/>
      <component glyphName="grave" x="317" y="338" flags="0x4"/>
    </TTGlyph>
    <TTGlyph name="X" xMin="-125" yMin="0" xMax="1511" yMax="1462">
      <contour>
        <pt x="1235" y="0" on="1"/>
        <pt x="803" y="0" on="1"/>
        <pt x="657" y="498" on="1"/>
        <pt x="319" y="0" on="1"/>
        <pt x="-125" y="0" on="1"/>
        <pt x="438" y="776" on="1"/>
        <pt x="215" y="1462" on="1"/>
        <pt x="631" y="1462" on="1"/>
        <pt x="754" y="993" on="1"/>
        <pt x="1063" y="1462" on="1"/>
        <pt x="1511" y="1462" on="1"/>
        <pt x="973" y="737" on="1"/>
      </contour>
    </TTGlyph>
    <TTGlyph name="Xi" xMin="-41" yMin="0" xMax="1198" yMax="1462">
      <contour>
        <pt x="236" y="915" on="1"/>
        <pt x="1022" y="915" on="1"/>
        <pt x="950" y="598" on="1"/>
        <pt x="162" y="598" on="1"/>
      </contour>
      <contour>
        <pt x="287" y="1462" on="1"/>
        <pt x="1198" y="1462" on="1"/>
        <pt x="1130" y="1145" on="1"/>
        <pt x="219" y="1145" on="1"/>
      </contour>
      <contour>
        <pt x="993" y="322" on="1"/>
        <pt x="928" y="0" on="1"/>
        <pt x="-41" y="0" on="1"/>
        <pt x="23" y="322" on="1"/>
      </contour>
    </TTGlyph>
    <TTGlyph name="Y" xMin="164" yMin="0" xMax="1405" yMax="1462">
      <contour>
        <pt x="657" y="920" on="1"/>
        <pt x="969" y="1462" on="1"/>
        <pt x="1405" y="1462" on="1"/>
        <pt x="793" y="567" on="1"/>
        <pt x="672" y="0" on="1"/>
        <pt x="281" y="0" on="1"/>
        <pt x="401" y="567" on="1"/>
        <pt x="164" y="1462" on="1"/>
        <pt x="567" y="1462" on="1"/>
      </contour>
    </TTGlyph>
    <TTGlyph name="Yacute" xMin="164" yMin="0" xMax="1405" yMax="1907">
      <component glyphName="Y" x="0" y="0" flags="0x204"/>
      <component glyphName="acute" x="162" y="338" flags="0x4"/>
    </TTGlyph>
    <TTGlyph name="Ycircumflex" xMin="164" yMin="0" xMax="1405" yMax="1907">
      <component glyphName="Y" x="0" y="0" flags="0x204"/>
      <component glyphName="circumflex" x="68" y="338" flags="0x4"/>
    </TTGlyph>
    <TTGlyph name="Ydieresis" xMin="164" yMin="0" xMax="1405" yMax="1909">
      <component glyphName="Y" x="0" y="0" flags="0x204"/>
      <component glyphName="dieresis" x="61" y="338" flags="0x4"/>
    </TTGlyph>
    <TTGlyph name="Ygrave" xMin="164" yMin="0" xMax="1405" yMax="1907">
      <component glyphName="Y" x="0" y="0" flags="0x204"/>
      <component glyphName="grave" x="-9" y="338" flags="0x4"/>
    </TTGlyph>
    <TTGlyph name="Z" xMin="-92" yMin="0" xMax="1219" yMax="1462">
      <contour>
        <pt x="942" y="0" on="1"/>
        <pt x="-92" y="0" on="1"/>
        <pt x="-45" y="242" on="1"/>
        <pt x="645" y="1143" on="1"/>
        <pt x="166" y="1143" on="1"/>
        <pt x="233" y="1462" on="1"/>
        <pt x="1219" y="1462" on="1"/>
        <pt x="1167" y="1217" on="1"/>
        <pt x="467" y="319" on="1"/>
        <pt x="1010" y="319" on="1"/>
      </contour>
    </TTGlyph>
    <TTGlyph name="Zacute" xMin="-92" yMin="0" xMax="1233" yMax="1907">
      <component glyphName="Z" x="0" y="0" flags="0x204"/>
      <component glyphName="acute" x="59" y="338" flags="0x4"/>
    </TTGlyph>
    <TTGlyph name="Zcaron" xMin="-92" yMin="0" xMax="1252" yMax="1907">
      <component glyphName="Z" x="0" y="0" flags="0x204"/>
      <component glyphName="caron" x="-5" y="338" flags="0x4"/>
    </TTGlyph>
    <TTGlyph name="Zdotaccent" xMin="-92" yMin="0" xMax="1219" yMax="1929">
      <component glyphName="Z" x="0" y="0" flags="0x204"/>
      <component glyphName="dotaccent" x="227" y="338" flags="0x4"/>
    </TTGlyph>
    <TTGlyph name="Zeta" xMin="-92" yMin="0" xMax="1219" yMax="1462">
      <component glyphName="Z" x="0" y="0" flags="0x204"/>
    </TTGlyph>
    <TTGlyph name="a" xMin="84" yMin="-20" xMax="1221" yMax="1153">
      <contour>
        <pt x="565" y="291" on="1"/>
        <pt x="615" y="291" on="0"/>
        <pt x="706" y="408" on="0"/>
        <pt x="760" y="604" on="0"/>
        <pt x="760" y="698" on="1"/>
        <pt x="760" y="763" on="0"/>
        <pt x="720" y="842" on="0"/>
        <pt x="678" y="842" on="1"/>
        <pt x="602" y="842" on="0"/>
        <pt x="479" y="589" on="0"/>
        <pt x="479" y="434" on="1"/>
        <pt x="479" y="291" on="0"/>
      </contour>
      <contour>
        <pt x="981" y="0" on="1"/>
        <pt x="672" y="0" on="1"/>
        <pt x="682" y="123" on="1"/>
        <pt x="674" y="123" on="1"/>
        <pt x="618" y="45" on="0"/>
        <pt x="488" y="-20" on="0"/>
        <pt x="406" y="-20" on="1"/>
        <pt x="248" y="-20" on="0"/>
        <pt x="84" y="203" on="0"/>
        <pt x="84" y="412" on="1"/>
        <pt x="84" y="591" on="0"/>
        <pt x="230" y="963" on="0"/>
        <pt x="453" y="1153" on="0"/>
        <pt x="588" y="1153" on="1"/>
        <pt x="672" y="1153" on="0"/>
        <pt x="800" y="1078" on="0"/>
        <pt x="850" y="993" on="1"/>
        <pt x="858" y="993" on="1"/>
        <pt x="911" y="1133" on="1"/>
        <pt x="1221" y="1133" on="1"/>
      </contour>
    </TTGlyph>
    <TTGlyph name="aacute" xMin="84" yMin="-20" xMax="1252" yMax="1569">
      <component glyphName="a" x="0" y="0" flags="0x204"/>
      <component glyphName="acute" x="78" y="0" flags="0x4"/>
    </TTGlyph>
    <TTGlyph name="abreve" xMin="84" yMin="-20" xMax="1221" yMax="1612">
      <component glyphName="a" x="0" y="0" flags="0x204"/>
      <component glyphName="breve" x="-32" y="0" flags="0x4"/>
    </TTGlyph>
    <TTGlyph name="acircumflex" xMin="84" yMin="-20" xMax="1221" yMax="1566">
      <component glyphName="a" x="0" y="0" flags="0x204"/>
      <component glyphName="circumflex" x="8" y="-3" flags="0x4"/>
    </TTGlyph>
    <TTGlyph name="acute" xMin="453" yMin="1241" xMax="1174" yMax="1569">
      <contour>
        <pt x="453" y="1264" on="1"/>
        <pt x="576" y="1366" on="0"/>
        <pt x="735" y="1569" on="1"/>
        <pt x="1174" y="1569" on="1"/>
        <pt x="1174" y="1554" on="1"/>
        <pt x="1129" y="1500" on="0"/>
        <pt x="836" y="1294" on="0"/>
        <pt x="737" y="1241" on="1"/>
        <pt x="453" y="1241" on="1"/>
      </contour>
    </TTGlyph>
    <TTGlyph name="adieresis" xMin="84" yMin="-20" xMax="1221" yMax="1571">
      <component glyphName="a" x="0" y="0" flags="0x204"/>
      <component glyphName="dieresis" x="-5" y="0" flags="0x4"/>
    </TTGlyph>
    <TTGlyph name="ae" xMin="84" yMin="-20" xMax="1743" yMax="1153">
      <contour>
        <pt x="1192" y="-20" on="1"/>
        <pt x="1013" y="-20" on="0"/>
        <pt x="930" y="92" on="1"/>
        <pt x="899" y="0" on="1"/>
        <pt x="672" y="0" on="1"/>
        <pt x="682" y="123" on="1"/>
        <pt x="674" y="123" on="1"/>
        <pt x="618" y="45" on="0"/>
        <pt x="488" y="-20" on="0"/>
        <pt x="406" y="-20" on="1"/>
        <pt x="248" y="-20" on="0"/>
        <pt x="84" y="203" on="0"/>
        <pt x="84" y="412" on="1"/>
        <pt x="84" y="591" on="0"/>
        <pt x="230" y="963" on="0"/>
        <pt x="453" y="1153" on="0"/>
        <pt x="588" y="1153" on="1"/>
        <pt x="680" y="1153" on="0"/>
        <pt x="800" y="1077" on="0"/>
        <pt x="850" y="993" on="1"/>
        <pt x="858" y="993" on="1"/>
        <pt x="911" y="1133" on="1"/>
        <pt x="1118" y="1133" on="1"/>
        <pt x="1118" y="1038" on="1"/>
        <pt x="1176" y="1094" on="0"/>
        <pt x="1325" y="1153" on="0"/>
        <pt x="1397" y="1153" on="1"/>
        <pt x="1554" y="1153" on="0"/>
        <pt x="1743" y="980" on="0"/>
        <pt x="1743" y="838" on="1"/>
        <pt x="1743" y="637" on="0"/>
        <pt x="1429" y="422" on="0"/>
        <pt x="1135" y="422" on="1"/>
        <pt x="1075" y="422" on="1"/>
        <pt x="1075" y="406" on="1"/>
        <pt x="1075" y="258" on="0"/>
        <pt x="1239" y="258" on="1"/>
        <pt x="1318" y="258" on="0"/>
        <pt x="1470" y="305" on="0"/>
        <pt x="1567" y="356" on="1"/>
        <pt x="1567" y="82" on="1"/>
        <pt x="1468" y="24" on="0"/>
        <pt x="1301" y="-20" on="0"/>
      </contour>
      <contour>
        <pt x="565" y="291" on="1"/>
        <pt x="641" y="291" on="0"/>
        <pt x="758" y="537" on="0"/>
        <pt x="758" y="698" on="1"/>
        <pt x="758" y="763" on="0"/>
        <pt x="712" y="842" on="0"/>
        <pt x="670" y="842" on="1"/>
        <pt x="621" y="842" on="0"/>
        <pt x="533" y="727" on="0"/>
        <pt x="479" y="532" on="0"/>
        <pt x="479" y="434" on="1"/>
        <pt x="479" y="291" on="0"/>
      </contour>
      <contour>
        <pt x="1292" y="891" on="1"/>
        <pt x="1231" y="891" on="0"/>
        <pt x="1125" y="752" on="0"/>
        <pt x="1114" y="664" on="1"/>
        <pt x="1143" y="664" on="1"/>
        <pt x="1252" y="664" on="0"/>
        <pt x="1376" y="747" on="0"/>
        <pt x="1376" y="815" on="1"/>
        <pt x="1376" y="847" on="0"/>
        <pt x="1336" y="891" on="0"/>
      </contour>
    </TTGlyph>
    <TTGlyph name="aeacute" xMin="84" yMin="-20" xMax="1743" yMax="1569">
      <component glyphName="ae" x="0" y="0" flags="0x204"/>
      <component glyphName="acute" x="387" y="0" flags="0x4"/>
    </TTGlyph>
    <TTGlyph name="afii00208" xMin="33" yMin="416" xMax="1944" yMax="690">
      <component glyphName="emdash" x="0" y="0" flags="0x204"/>
    </TTGlyph>
    <TTGlyph name="afii08941" xMin="-18" yMin="0" xMax="1223" yMax="1483">
      <contour>
        <pt x="373" y="1024" on="1"/>
        <pt x="403" y="1198" on="0"/>
        <pt x="520" y="1392" on="0"/>
        <pt x="705" y="1483" on="0"/>
        <pt x="850" y="1483" on="1"/>
        <pt x="939" y="1483" on="0"/>
        <pt x="1115" y="1445" on="0"/>
        <pt x="1223" y="1397" on="1"/>
        <pt x="1079" y="1098" on="1"/>
        <pt x="960" y="1161" on="0"/>
        <pt x="866" y="1161" on="1"/>
        <pt x="829" y="1161" on="0"/>
        <pt x="788" y="1114" on="0"/>
        <pt x="774" y="1049" on="1"/>
        <pt x="768" y="1024" on="1"/>
        <pt x="1020" y="1024" on="1"/>
        <pt x="975" y="819" on="1"/>
        <pt x="725" y="819" on="1"/>
        <pt x="700" y="696" on="1"/>
        <pt x="948" y="696" on="1"/>
        <pt x="905" y="492" on="1"/>
        <pt x="653" y="492" on="1"/>
        <pt x="639" y="412" on="0"/>
        <pt x="469" y="330" on="1"/>
        <pt x="1073" y="330" on="1"/>
        <pt x="1001" y="0" on="1"/>
        <pt x="-18" y="0" on="1"/>
        <pt x="45" y="313" on="1"/>
        <pt x="151" y="345" on="0"/>
        <pt x="241" y="424" on="0"/>
        <pt x="260" y="492" on="1"/>
        <pt x="68" y="492" on="1"/>
        <pt x="111" y="696" on="1"/>
        <pt x="303" y="696" on="1"/>
        <pt x="330" y="819" on="1"/>
        <pt x="141" y="819" on="1"/>
        <pt x="186" y="1024" on="1"/>
      </contour>
    </TTGlyph>
    <TTGlyph name="afii10017" xMin="-121" yMin="0" xMax="1249" yMax="1462">
      <component glyphName="A" x="0" y="0" flags="0x204"/>
    </TTGlyph>
    <TTGlyph name="afii10018" xMin="33" yMin="0" xMax="1204" yMax="1462">
      <contour>
        <pt x="1204" y="1462" on="1"/>
        <pt x="1137" y="1143" on="1"/>
        <pt x="664" y="1143" on="1"/>
        <pt x="618" y="920" on="1"/>
        <pt x="647" y="920" on="1"/>
        <pt x="883" y="920" on="0"/>
        <pt x="1145" y="697" on="0"/>
        <pt x="1145" y="504" on="1"/>
        <pt x="1145" y="268" on="0"/>
        <pt x="834" y="0" on="0"/>
        <pt x="549" y="0" on="1"/>
        <pt x="33" y="0" on="1"/>
        <pt x="340" y="1462" on="1"/>
      </contour>
      <contour>
        <pt x="492" y="305" on="1"/>
        <pt x="569" y="305" on="1"/>
        <pt x="657" y="305" on="0"/>
        <pt x="752" y="400" on="0"/>
        <pt x="752" y="483" on="1"/>
        <pt x="752" y="542" on="0"/>
        <pt x="679" y="614" on="0"/>
        <pt x="621" y="614" on="1"/>
        <pt x="553" y="614" on="1"/>
      </contour>
    </TTGlyph>
    <TTGlyph name="afii10019" xMin="33" yMin="0" xMax="1270" yMax="1462">
      <component glyphName="B" x="0" y="0" flags="0x204"/>
    </TTGlyph>
    <TTGlyph name="afii10020" xMin="33" yMin="0" xMax="1204" yMax="1462">
      <component glyphName="Gamma" x="0" y="0" flags="0x204"/>
    </TTGlyph>
    <TTGlyph name="afii10021" xMin="-215" yMin="-457" xMax="1534" yMax="1462">
      <contour>
        <pt x="987" y="-457" on="1"/>
        <pt x="1085" y="0" on="1"/>
        <pt x="264" y="0" on="1"/>
        <pt x="166" y="-457" on="1"/>
        <pt x="-215" y="-457" on="1"/>
        <pt x="-53" y="324" on="1"/>
        <pt x="125" y="324" on="1"/>
        <pt x="276" y="557" on="0"/>
        <pt x="547" y="1165" on="0"/>
        <pt x="631" y="1462" on="1"/>
        <pt x="1530" y="1462" on="1"/>
        <pt x="1288" y="324" on="1"/>
        <pt x="1534" y="324" on="1"/>
        <pt x="1368" y="-457" on="1"/>
      </contour>
      <contour>
        <pt x="1073" y="1139" on="1"/>
        <pt x="903" y="1139" on="1"/>
        <pt x="768" y="705" on="0"/>
        <pt x="555" y="324" on="1"/>
        <pt x="897" y="324" on="1"/>
      </contour>
    </TTGlyph>
    <TTGlyph name="afii10022" xMin="33" yMin="0" xMax="1210" yMax="1462">
      <component glyphName="E" x="0" y="0" flags="0x204"/>
    </TTGlyph>
    <TTGlyph name="afii10023" xMin="33" yMin="0" xMax="1217" yMax="1909">
      <component glyphName="E" x="0" y="0" flags="0x204"/>
      <component glyphName="dieresis" x="25" y="338" flags="0x4"/>
    </TTGlyph>
    <TTGlyph name="afii10024" xMin="-131" yMin="0" xMax="2062" yMax="1462">
      <contour>
        <pt x="772" y="719" on="1"/>
        <pt x="315" y="0" on="1"/>
        <pt x="-131" y="0" on="1"/>
        <pt x="397" y="760" on="1"/>
        <pt x="197" y="1462" on="1"/>
        <pt x="606" y="1462" on="1"/>
        <pt x="784" y="778" on="1"/>
        <pt x="928" y="1462" on="1"/>
        <pt x="1313" y="1462" on="1"/>
        <pt x="1167" y="778" on="1"/>
        <pt x="1626" y="1462" on="1"/>
        <pt x="2062" y="1462" on="1"/>
        <pt x="1542" y="737" on="1"/>
        <pt x="1765" y="0" on="1"/>
        <pt x="1335" y="0" on="1"/>
        <pt x="1155" y="719" on="1"/>
        <pt x="1004" y="0" on="1"/>
        <pt x="618" y="0" on="1"/>
      </contour>
    </TTGlyph>
    <TTGlyph name="afii10025" xMin="25" yMin="-20" xMax="1231" yMax="1483">
      <contour>
        <pt x="1231" y="1133" on="1"/>
        <pt x="1231" y="979" on="0"/>
        <pt x="1028" y="786" on="0"/>
        <pt x="854" y="772" on="1"/>
        <pt x="854" y="764" on="1"/>
        <pt x="978" y="736" on="0"/>
        <pt x="1114" y="572" on="0"/>
        <pt x="1114" y="449" on="1"/>
        <pt x="1114" y="218" on="0"/>
        <pt x="794" y="-20" on="0"/>
        <pt x="487" y="-20" on="1"/>
        <pt x="333" y="-20" on="0"/>
        <pt x="88" y="22" on="0"/>
        <pt x="25" y="59" on="1"/>
        <pt x="25" y="385" on="1"/>
        <pt x="100" y="343" on="0"/>
        <pt x="320" y="291" on="0"/>
        <pt x="436" y="291" on="1"/>
        <pt x="592" y="291" on="0"/>
        <pt x="719" y="378" on="0"/>
        <pt x="719" y="469" on="1"/>
        <pt x="719" y="541" on="0"/>
        <pt x="599" y="608" on="0"/>
        <pt x="469" y="608" on="1"/>
        <pt x="348" y="608" on="1"/>
        <pt x="416" y="920" on="1"/>
        <pt x="547" y="920" on="1"/>
        <pt x="688" y="920" on="0"/>
        <pt x="823" y="988" on="0"/>
        <pt x="823" y="1061" on="1"/>
        <pt x="823" y="1107" on="0"/>
        <pt x="750" y="1171" on="0"/>
        <pt x="668" y="1171" on="1"/>
        <pt x="513" y="1171" on="0"/>
        <pt x="336" y="1047" on="1"/>
        <pt x="195" y="1323" on="1"/>
        <pt x="335" y="1409" on="0"/>
        <pt x="610" y="1483" on="0"/>
        <pt x="766" y="1483" on="1"/>
        <pt x="976" y="1483" on="0"/>
        <pt x="1231" y="1292" on="0"/>
      </contour>
    </TTGlyph>
    <TTGlyph name="afii10026" xMin="33" yMin="0" xMax="1638" yMax="1462">
      <contour>
        <pt x="342" y="1462" on="1"/>
        <pt x="698" y="1462" on="1"/>
        <pt x="567" y="850" on="1"/>
        <pt x="541" y="721" on="0"/>
        <pt x="477" y="494" on="1"/>
        <pt x="485" y="494" on="1"/>
        <pt x="1149" y="1462" on="1"/>
        <pt x="1638" y="1462" on="1"/>
        <pt x="1329" y="0" on="1"/>
        <pt x="973" y="0" on="1"/>
        <pt x="1100" y="606" on="1"/>
        <pt x="1132" y="770" on="0"/>
        <pt x="1192" y="989" on="1"/>
        <pt x="1184" y="989" on="1"/>
        <pt x="522" y="0" on="1"/>
        <pt x="33" y="0" on="1"/>
      </contour>
    </TTGlyph>
    <TTGlyph name="afii10027" xMin="33" yMin="0" xMax="1638" yMax="1960">
      <component glyphName="afii10026" x="0" y="0" flags="0x204"/>
      <component glyphName="cyrillicbreve" x="205" y="338" flags="0x4"/>
    </TTGlyph>
    <TTGlyph name="afii10028" xMin="33" yMin="0" xMax="1483" yMax="1462">
      <contour>
        <pt x="1186" y="0" on="1"/>
        <pt x="756" y="0" on="1"/>
        <pt x="575" y="719" on="1"/>
        <pt x="424" y="0" on="1"/>
        <pt x="33" y="0" on="1"/>
        <pt x="342" y="1462" on="1"/>
        <pt x="733" y="1462" on="1"/>
        <pt x="588" y="778" on="1"/>
        <pt x="1047" y="1462" on="1"/>
        <pt x="1483" y="1462" on="1"/>
        <pt x="963" y="737" on="1"/>
      </contour>
    </TTGlyph>
    <TTGlyph name="afii10029" xMin="-92" yMin="-20" xMax="1462" yMax="1462">
      <contour>
        <pt x="766" y="0" on="1"/>
        <pt x="1006" y="1151" on="1"/>
        <pt x="807" y="1151" on="1"/>
        <pt x="645" y="555" on="0"/>
        <pt x="592" y="430" on="1"/>
        <pt x="520" y="252" on="0"/>
        <pt x="381" y="64" on="0"/>
        <pt x="202" y="-20" on="0"/>
        <pt x="63" y="-20" on="1"/>
        <pt x="-18" y="-20" on="0"/>
        <pt x="-92" y="6" on="1"/>
        <pt x="-92" y="311" on="1"/>
        <pt x="-47" y="296" on="0"/>
        <pt x="-9" y="291" on="0"/>
        <pt x="10" y="291" on="1"/>
        <pt x="63" y="291" on="0"/>
        <pt x="125" y="335" on="0"/>
        <pt x="189" y="434" on="0"/>
        <pt x="223" y="520" on="1"/>
        <pt x="325" y="777" on="0"/>
        <pt x="502" y="1462" on="1"/>
        <pt x="1462" y="1462" on="1"/>
        <pt x="1157" y="0" on="1"/>
      </contour>
    </TTGlyph>
    <TTGlyph name="afii10030" xMin="33" yMin="0" xMax="1872" yMax="1462">
      <component glyphName="M" x="0" y="0" flags="0x204"/>
    </TTGlyph>
    <TTGlyph name="afii10031" xMin="33" yMin="0" xMax="1473" yMax="1462">
      <component glyphName="H" x="0" y="0" flags="0x204"/>
    </TTGlyph>
    <TTGlyph name="afii10032" xMin="104" yMin="-20" xMax="1446" yMax="1485">
      <component glyphName="O" x="0" y="0" flags="0x204"/>
    </TTGlyph>
    <TTGlyph name="afii10033" xMin="33" yMin="0" xMax="1473" yMax="1462">
      <component glyphName="Pi" x="0" y="0" flags="0x204"/>
    </TTGlyph>
    <TTGlyph name="afii10034" xMin="33" yMin="0" xMax="1251" yMax="1462">
      <component glyphName="P" x="0" y="0" flags="0x204"/>
    </TTGlyph>
    <TTGlyph name="afii10035" xMin="104" yMin="-20" xMax="1362" yMax="1485">
      <component glyphName="C" x="0" y="0" flags="0x204"/>
    </TTGlyph>
    <TTGlyph name="afii10036" xMin="156" yMin="0" xMax="1253" yMax="1462">
      <component glyphName="T" x="0" y="0" flags="0x204"/>
    </TTGlyph>
    <TTGlyph name="afii10037" xMin="68" yMin="-20" xMax="1460" yMax="1462">
      <contour>
        <pt x="698" y="756" on="1"/>
        <pt x="707" y="756" on="1"/>
        <pt x="729" y="817" on="0"/>
        <pt x="774" y="920" on="1"/>
        <pt x="1028" y="1462" on="1"/>
        <pt x="1460" y="1462" on="1"/>
        <pt x="823" y="330" on="1"/>
        <pt x="713" y="134" on="0"/>
        <pt x="471" y="-20" on="0"/>
        <pt x="281" y="-20" on="1"/>
        <pt x="180" y="-20" on="0"/>
        <pt x="68" y="8" on="1"/>
        <pt x="68" y="315" on="1"/>
        <pt x="167" y="291" on="0"/>
        <pt x="240" y="291" on="1"/>
        <pt x="323" y="291" on="0"/>
        <pt x="406" y="339" on="0"/>
        <pt x="446" y="420" on="1"/>
        <pt x="166" y="1462" on="1"/>
        <pt x="565" y="1462" on="1"/>
        <pt x="674" y="926" on="1"/>
        <pt x="684" y="878" on="0"/>
      </contour>
    </TTGlyph>
    <TTGlyph name="afii10038" xMin="92" yMin="-20" xMax="1679" yMax="1483">
      <component glyphName="Phi" x="0" y="0" flags="0x204"/>
    </TTGlyph>
    <TTGlyph name="afii10039" xMin="-125" yMin="0" xMax="1511" yMax="1462">
      <component glyphName="X" x="0" y="0" flags="0x204"/>
    </TTGlyph>
    <TTGlyph name="afii10040" xMin="33" yMin="-457" xMax="1473" yMax="1462">
      <contour>
        <pt x="1227" y="305" on="1"/>
        <pt x="1473" y="305" on="1"/>
        <pt x="1309" y="-457" on="1"/>
        <pt x="928" y="-457" on="1"/>
        <pt x="1028" y="0" on="1"/>
        <pt x="33" y="0" on="1"/>
        <pt x="342" y="1462" on="1"/>
        <pt x="733" y="1462" on="1"/>
        <pt x="492" y="324" on="1"/>
        <pt x="840" y="324" on="1"/>
        <pt x="1081" y="1462" on="1"/>
        <pt x="1473" y="1462" on="1"/>
      </contour>
    </TTGlyph>
    <TTGlyph name="afii10041" xMin="147" yMin="0" xMax="1436" yMax="1462">
      <contour>
        <pt x="739" y="0" on="1"/>
        <pt x="854" y="535" on="1"/>
        <pt x="702" y="451" on="0"/>
        <pt x="508" y="451" on="1"/>
        <pt x="335" y="451" on="0"/>
        <pt x="147" y="632" on="0"/>
        <pt x="147" y="799" on="1"/>
        <pt x="147" y="848" on="0"/>
        <pt x="160" y="922" on="1"/>
        <pt x="264" y="1462" on="1"/>
        <pt x="657" y="1462" on="1"/>
        <pt x="559" y="973" on="1"/>
        <pt x="549" y="927" on="0"/>
        <pt x="549" y="895" on="1"/>
        <pt x="549" y="836" on="0"/>
        <pt x="624" y="774" on="0"/>
        <pt x="684" y="774" on="1"/>
        <pt x="738" y="774" on="0"/>
        <pt x="861" y="812" on="0"/>
        <pt x="915" y="844" on="1"/>
        <pt x="1044" y="1462" on="1"/>
        <pt x="1436" y="1462" on="1"/>
        <pt x="1130" y="0" on="1"/>
      </contour>
    </TTGlyph>
    <TTGlyph name="afii10042" xMin="33" yMin="0" xMax="2068" yMax="1462">
      <contour>
        <pt x="33" y="0" on="1"/>
        <pt x="336" y="1462" on="1"/>
        <pt x="727" y="1462" on="1"/>
        <pt x="492" y="324" on="1"/>
        <pt x="774" y="324" on="1"/>
        <pt x="1010" y="1462" on="1"/>
        <pt x="1395" y="1462" on="1"/>
        <pt x="1159" y="324" on="1"/>
        <pt x="1442" y="324" on="1"/>
        <pt x="1677" y="1462" on="1"/>
        <pt x="2068" y="1462" on="1"/>
        <pt x="1765" y="0" on="1"/>
      </contour>
    </TTGlyph>
    <TTGlyph name="afii10043" xMin="33" yMin="-457" xMax="2075" yMax="1462">
      <contour>
        <pt x="1630" y="0" on="1"/>
        <pt x="33" y="0" on="1"/>
        <pt x="336" y="1462" on="1"/>
        <pt x="727" y="1462" on="1"/>
        <pt x="492" y="324" on="1"/>
        <pt x="774" y="324" on="1"/>
        <pt x="1010" y="1462" on="1"/>
        <pt x="1395" y="1462" on="1"/>
        <pt x="1159" y="324" on="1"/>
        <pt x="1442" y="324" on="1"/>
        <pt x="1677" y="1462" on="1"/>
        <pt x="2068" y="1462" on="1"/>
        <pt x="1829" y="305" on="1"/>
        <pt x="2075" y="305" on="1"/>
        <pt x="1911" y="-457" on="1"/>
        <pt x="1530" y="-457" on="1"/>
      </contour>
    </TTGlyph>
    <TTGlyph name="afii10044" xMin="156" yMin="0" xMax="1343" yMax="1462">
      <contour>
        <pt x="690" y="305" on="1"/>
        <pt x="768" y="305" on="1"/>
        <pt x="856" y="305" on="0"/>
        <pt x="950" y="400" on="0"/>
        <pt x="950" y="483" on="1"/>
        <pt x="950" y="542" on="0"/>
        <pt x="877" y="614" on="0"/>
        <pt x="819" y="614" on="1"/>
        <pt x="752" y="614" on="1"/>
      </contour>
      <contour>
        <pt x="817" y="920" on="1"/>
        <pt x="846" y="920" on="1"/>
        <pt x="1082" y="920" on="0"/>
        <pt x="1343" y="698" on="0"/>
        <pt x="1343" y="504" on="1"/>
        <pt x="1343" y="266" on="0"/>
        <pt x="1031" y="0" on="0"/>
        <pt x="748" y="0" on="1"/>
        <pt x="231" y="0" on="1"/>
        <pt x="473" y="1139" on="1"/>
        <pt x="156" y="1139" on="1"/>
        <pt x="225" y="1462" on="1"/>
        <pt x="930" y="1462" on="1"/>
      </contour>
    </TTGlyph>
    <TTGlyph name="afii10045" xMin="33" yMin="0" xMax="1942" yMax="1462">
      <contour>
        <pt x="1145" y="504" on="1"/>
        <pt x="1145" y="268" on="0"/>
        <pt x="834" y="0" on="0"/>
        <pt x="549" y="0" on="1"/>
        <pt x="33" y="0" on="1"/>
        <pt x="340" y="1462" on="1"/>
        <pt x="731" y="1462" on="1"/>
        <pt x="618" y="920" on="1"/>
        <pt x="647" y="920" on="1"/>
        <pt x="883" y="920" on="0"/>
        <pt x="1145" y="697" on="0"/>
      </contour>
      <contour>
        <pt x="492" y="305" on="1"/>
        <pt x="569" y="305" on="1"/>
        <pt x="657" y="305" on="0"/>
        <pt x="752" y="400" on="0"/>
        <pt x="752" y="483" on="1"/>
        <pt x="752" y="542" on="0"/>
        <pt x="679" y="614" on="0"/>
        <pt x="621" y="614" on="1"/>
        <pt x="553" y="614" on="1"/>
      </contour>
      <contour>
        <pt x="1241" y="0" on="1"/>
        <pt x="1550" y="1462" on="1"/>
        <pt x="1942" y="1462" on="1"/>
        <pt x="1632" y="0" on="1"/>
      </contour>
    </TTGlyph>
    <TTGlyph name="afii10046" xMin="33" yMin="0" xMax="1145" yMax="1462">
      <contour>
        <pt x="1145" y="504" on="1"/>
        <pt x="1145" y="268" on="0"/>
        <pt x="834" y="0" on="0"/>
        <pt x="549" y="0" on="1"/>
        <pt x="33" y="0" on="1"/>
        <pt x="342" y="1462" on="1"/>
        <pt x="731" y="1462" on="1"/>
        <pt x="618" y="920" on="1"/>
        <pt x="647" y="920" on="1"/>
        <pt x="883" y="920" on="0"/>
        <pt x="1145" y="697" on="0"/>
      </contour>
      <contour>
        <pt x="492" y="305" on="1"/>
        <pt x="569" y="305" on="1"/>
        <pt x="657" y="305" on="0"/>
        <pt x="752" y="400" on="0"/>
        <pt x="752" y="483" on="1"/>
        <pt x="752" y="542" on="0"/>
        <pt x="679" y="614" on="0"/>
        <pt x="621" y="614" on="1"/>
        <pt x="553" y="614" on="1"/>
      </contour>
    </TTGlyph>
    <TTGlyph name="afii10047" xMin="31" yMin="-20" xMax="1227" yMax="1485">
      <contour>
        <pt x="391" y="303" on="1"/>
        <pt x="529" y="303" on="0"/>
        <pt x="729" y="451" on="0"/>
        <pt x="780" y="586" on="1"/>
        <pt x="295" y="586" on="1"/>
        <pt x="362" y="897" on="1"/>
        <pt x="838" y="897" on="1"/>
        <pt x="838" y="913" on="1"/>
        <pt x="838" y="1045" on="0"/>
        <pt x="734" y="1159" on="0"/>
        <pt x="616" y="1159" on="1"/>
        <pt x="463" y="1159" on="0"/>
        <pt x="309" y="1071" on="1"/>
        <pt x="205" y="1384" on="1"/>
        <pt x="295" y="1428" on="0"/>
        <pt x="561" y="1485" on="0"/>
        <pt x="686" y="1485" on="1"/>
        <pt x="948" y="1485" on="0"/>
        <pt x="1227" y="1191" on="0"/>
        <pt x="1227" y="918" on="1"/>
        <pt x="1227" y="734" on="0"/>
        <pt x="1102" y="370" on="0"/>
        <pt x="894" y="117" on="0"/>
        <pt x="601" y="-20" on="0"/>
        <pt x="424" y="-20" on="1"/>
        <pt x="179" y="-20" on="0"/>
        <pt x="31" y="66" on="1"/>
        <pt x="31" y="393" on="1"/>
        <pt x="107" y="351" on="0"/>
        <pt x="305" y="303" on="0"/>
      </contour>
    </TTGlyph>
    <TTGlyph name="afii10048" xMin="33" yMin="-20" xMax="2142" yMax="1485">
      <contour>
        <pt x="1593" y="1485" on="1"/>
        <pt x="1855" y="1485" on="0"/>
        <pt x="2142" y="1187" on="0"/>
        <pt x="2142" y="922" on="1"/>
        <pt x="2142" y="656" on="0"/>
        <pt x="1943" y="215" on="0"/>
        <pt x="1592" y="-20" on="0"/>
        <pt x="1362" y="-20" on="1"/>
        <pt x="1094" y="-20" on="0"/>
        <pt x="801" y="276" on="0"/>
        <pt x="801" y="543" on="1"/>
        <pt x="801" y="596" on="1"/>
        <pt x="551" y="596" on="1"/>
        <pt x="424" y="0" on="1"/>
        <pt x="33" y="0" on="1"/>
        <pt x="342" y="1462" on="1"/>
        <pt x="733" y="1462" on="1"/>
        <pt x="621" y="920" on="1"/>
        <pt x="860" y="920" on="1"/>
        <pt x="950" y="1190" on="0"/>
        <pt x="1334" y="1485" on="0"/>
      </contour>
      <contour>
        <pt x="1747" y="918" on="1"/>
        <pt x="1747" y="1032" on="0"/>
        <pt x="1652" y="1161" on="0"/>
        <pt x="1561" y="1161" on="1"/>
        <pt x="1461" y="1161" on="0"/>
        <pt x="1294" y="993" on="0"/>
        <pt x="1196" y="697" on="0"/>
        <pt x="1196" y="545" on="1"/>
        <pt x="1196" y="303" on="0"/>
        <pt x="1397" y="303" on="1"/>
        <pt x="1491" y="303" on="0"/>
        <pt x="1654" y="469" on="0"/>
        <pt x="1747" y="752" on="0"/>
      </contour>
    </TTGlyph>
    <TTGlyph name="afii10049" xMin="-139" yMin="0" xMax="1341" yMax="1462">
      <contour>
        <pt x="684" y="532" on="1"/>
        <pt x="328" y="0" on="1"/>
        <pt x="-139" y="0" on="1"/>
        <pt x="365" y="655" on="1"/>
        <pt x="292" y="716" on="0"/>
        <pt x="227" y="867" on="0"/>
        <pt x="227" y="969" on="1"/>
        <pt x="227" y="1195" on="0"/>
        <pt x="536" y="1462" on="0"/>
        <pt x="809" y="1462" on="1"/>
        <pt x="1341" y="1462" on="1"/>
        <pt x="1030" y="0" on="1"/>
        <pt x="639" y="0" on="1"/>
        <pt x="754" y="532" on="1"/>
      </contour>
      <contour>
        <pt x="887" y="1163" on="1"/>
        <pt x="795" y="1163" on="1"/>
        <pt x="718" y="1163" on="0"/>
        <pt x="618" y="1058" on="0"/>
        <pt x="618" y="975" on="1"/>
        <pt x="618" y="898" on="0"/>
        <pt x="695" y="829" on="0"/>
        <pt x="754" y="829" on="1"/>
        <pt x="815" y="829" on="1"/>
      </contour>
    </TTGlyph>
    <TTGlyph name="afii10050" xMin="33" yMin="0" xMax="1266" yMax="1778">
      <contour>
        <pt x="666" y="1143" on="1"/>
        <pt x="424" y="0" on="1"/>
        <pt x="33" y="0" on="1"/>
        <pt x="342" y="1462" on="1"/>
        <pt x="850" y="1462" on="1"/>
        <pt x="918" y="1778" on="1"/>
        <pt x="1266" y="1778" on="1"/>
        <pt x="1137" y="1143" on="1"/>
      </contour>
    </TTGlyph>
    <TTGlyph name="afii10051" xMin="156" yMin="-20" xMax="1464" yMax="1462">
      <contour>
        <pt x="1075" y="543" on="1"/>
        <pt x="1075" y="593" on="0"/>
        <pt x="1023" y="635" on="0"/>
        <pt x="975" y="635" on="1"/>
        <pt x="758" y="635" on="1"/>
        <pt x="627" y="0" on="1"/>
        <pt x="236" y="0" on="1"/>
        <pt x="473" y="1139" on="1"/>
        <pt x="156" y="1139" on="1"/>
        <pt x="225" y="1462" on="1"/>
        <pt x="1253" y="1462" on="1"/>
        <pt x="1182" y="1139" on="1"/>
        <pt x="864" y="1139" on="1"/>
        <pt x="825" y="958" on="1"/>
        <pt x="1077" y="958" on="1"/>
        <pt x="1257" y="958" on="0"/>
        <pt x="1464" y="790" on="0"/>
        <pt x="1464" y="649" on="1"/>
        <pt x="1464" y="471" on="0"/>
        <pt x="1373" y="126" on="0"/>
        <pt x="1194" y="-20" on="0"/>
        <pt x="1016" y="-20" on="1"/>
        <pt x="955" y="-20" on="0"/>
        <pt x="821" y="8" on="0"/>
        <pt x="782" y="31" on="1"/>
        <pt x="782" y="324" on="1"/>
        <pt x="848" y="291" on="0"/>
        <pt x="926" y="291" on="1"/>
        <pt x="988" y="291" on="0"/>
        <pt x="1044" y="348" on="0"/>
        <pt x="1055" y="410" on="1"/>
        <pt x="1065" y="463" on="1"/>
        <pt x="1075" y="507" on="0"/>
      </contour>
    </TTGlyph>
    <TTGlyph name="afii10052" xMin="33" yMin="0" xMax="1299" yMax="1907">
      <component glyphName="Gamma" x="0" y="0" flags="0x204"/>
      <component glyphName="acute" x="125" y="338" flags="0x4"/>
    </TTGlyph>
    <TTGlyph name="afii10053" xMin="104" yMin="-20" xMax="1364" yMax="1485">
      <contour>
        <pt x="881" y="1159" on="1"/>
        <pt x="781" y="1159" on="0"/>
        <pt x="616" y="1025" on="0"/>
        <pt x="563" y="897" on="1"/>
        <pt x="1036" y="897" on="1"/>
        <pt x="969" y="586" on="1"/>
        <pt x="500" y="586" on="1"/>
        <pt x="500" y="553" on="1"/>
        <pt x="500" y="434" on="0"/>
        <pt x="601" y="303" on="0"/>
        <pt x="694" y="303" on="1"/>
        <pt x="777" y="303" on="0"/>
        <pt x="934" y="339" on="0"/>
        <pt x="1085" y="393" on="1"/>
        <pt x="1085" y="70" on="1"/>
        <pt x="882" y="-20" on="0"/>
        <pt x="645" y="-20" on="1"/>
        <pt x="385" y="-20" on="0"/>
        <pt x="104" y="277" on="0"/>
        <pt x="104" y="549" on="1"/>
        <pt x="104" y="815" on="0"/>
        <pt x="307" y="1259" on="0"/>
        <pt x="656" y="1485" on="0"/>
        <pt x="881" y="1485" on="1"/>
        <pt x="1027" y="1485" on="0"/>
        <pt x="1261" y="1426" on="0"/>
        <pt x="1364" y="1364" on="1"/>
        <pt x="1214" y="1049" on="1"/>
        <pt x="1121" y="1104" on="0"/>
        <pt x="965" y="1159" on="0"/>
      </contour>
    </TTGlyph>
    <TTGlyph name="afii10054" xMin="43" yMin="-20" xMax="1143" yMax="1483">
      <component glyphName="S" x="0" y="0" flags="0x204"/>
    </TTGlyph>
    <TTGlyph name="afii10055" xMin="31" yMin="0" xMax="737" yMax="1462">
      <component glyphName="I" x="0" y="0" flags="0x204"/>
    </TTGlyph>
    <TTGlyph name="afii10055.alt" xMin="-74" yMin="0" xMax="985" yMax="1462">
      <component glyphName="I.alt" x="0" y="0" flags="0x204"/>
    </TTGlyph>
    <TTGlyph name="afii10056" xMin="31" yMin="0" xMax="1015" yMax="1909">
      <component glyphName="I" x="0" y="0" flags="0x204"/>
      <component glyphName="dieresis" x="-177" y="338" flags="0x4"/>
    </TTGlyph>
    <TTGlyph name="afii10056.alt" xMin="-74" yMin="0" xMax="1082" yMax="1909">
      <component glyphName="I.alt" x="0" y="0" flags="0x204"/>
      <component glyphName="dieresis" x="-110" y="338" flags="0x4"/>
    </TTGlyph>
    <TTGlyph name="afii10057" xMin="-328" yMin="-461" xMax="772" yMax="1462">
      <component glyphName="J" x="0" y="0" flags="0x204"/>
    </TTGlyph>
    <TTGlyph name="afii10058" xMin="-92" yMin="-20" xMax="1870" yMax="1462">
      <contour>
        <pt x="1870" y="504" on="1"/>
        <pt x="1870" y="268" on="0"/>
        <pt x="1559" y="0" on="0"/>
        <pt x="1274" y="0" on="1"/>
        <pt x="758" y="0" on="1"/>
        <pt x="1001" y="1151" on="1"/>
        <pt x="807" y="1151" on="1"/>
        <pt x="645" y="555" on="0"/>
        <pt x="592" y="430" on="1"/>
        <pt x="520" y="252" on="0"/>
        <pt x="381" y="64" on="0"/>
        <pt x="202" y="-20" on="0"/>
        <pt x="63" y="-20" on="1"/>
        <pt x="-18" y="-20" on="0"/>
        <pt x="-92" y="6" on="1"/>
        <pt x="-92" y="311" on="1"/>
        <pt x="-47" y="296" on="0"/>
        <pt x="-9" y="291" on="0"/>
        <pt x="10" y="291" on="1"/>
        <pt x="63" y="291" on="0"/>
        <pt x="125" y="335" on="0"/>
        <pt x="189" y="434" on="0"/>
        <pt x="223" y="520" on="1"/>
        <pt x="325" y="777" on="0"/>
        <pt x="502" y="1462" on="1"/>
        <pt x="1456" y="1462" on="1"/>
        <pt x="1343" y="920" on="1"/>
        <pt x="1372" y="920" on="1"/>
        <pt x="1608" y="920" on="0"/>
        <pt x="1870" y="697" on="0"/>
      </contour>
      <contour>
        <pt x="1217" y="305" on="1"/>
        <pt x="1294" y="305" on="1"/>
        <pt x="1382" y="305" on="0"/>
        <pt x="1477" y="400" on="0"/>
        <pt x="1477" y="483" on="1"/>
        <pt x="1477" y="542" on="0"/>
        <pt x="1404" y="614" on="0"/>
        <pt x="1346" y="614" on="1"/>
        <pt x="1278" y="614" on="1"/>
      </contour>
    </TTGlyph>
    <TTGlyph name="afii10059" xMin="33" yMin="0" xMax="1870" yMax="1462">
      <contour>
        <pt x="1870" y="504" on="1"/>
        <pt x="1870" y="268" on="0"/>
        <pt x="1559" y="0" on="0"/>
        <pt x="1274" y="0" on="1"/>
        <pt x="758" y="0" on="1"/>
        <pt x="883" y="596" on="1"/>
        <pt x="551" y="596" on="1"/>
        <pt x="424" y="0" on="1"/>
        <pt x="33" y="0" on="1"/>
        <pt x="342" y="1462" on="1"/>
        <pt x="733" y="1462" on="1"/>
        <pt x="621" y="920" on="1"/>
        <pt x="952" y="920" on="1"/>
        <pt x="1067" y="1462" on="1"/>
        <pt x="1456" y="1462" on="1"/>
        <pt x="1343" y="920" on="1"/>
        <pt x="1372" y="920" on="1"/>
        <pt x="1608" y="920" on="0"/>
        <pt x="1870" y="697" on="0"/>
      </contour>
      <contour>
        <pt x="1217" y="305" on="1"/>
        <pt x="1294" y="305" on="1"/>
        <pt x="1382" y="305" on="0"/>
        <pt x="1477" y="400" on="0"/>
        <pt x="1477" y="483" on="1"/>
        <pt x="1477" y="542" on="0"/>
        <pt x="1404" y="614" on="0"/>
        <pt x="1346" y="614" on="1"/>
        <pt x="1278" y="614" on="1"/>
      </contour>
    </TTGlyph>
    <TTGlyph name="afii10060" xMin="156" yMin="0" xMax="1423" yMax="1462">
      <contour>
        <pt x="825" y="958" on="1"/>
        <pt x="1036" y="958" on="1"/>
        <pt x="1222" y="958" on="0"/>
        <pt x="1423" y="772" on="0"/>
        <pt x="1423" y="598" on="1"/>
        <pt x="1423" y="533" on="0"/>
        <pt x="1399" y="403" on="1"/>
        <pt x="1321" y="0" on="1"/>
        <pt x="930" y="0" on="1"/>
        <pt x="1024" y="463" on="1"/>
        <pt x="1034" y="507" on="0"/>
        <pt x="1034" y="543" on="1"/>
        <pt x="1034" y="593" on="0"/>
        <pt x="982" y="635" on="0"/>
        <pt x="934" y="635" on="1"/>
        <pt x="758" y="635" on="1"/>
        <pt x="627" y="0" on="1"/>
        <pt x="236" y="0" on="1"/>
        <pt x="473" y="1139" on="1"/>
        <pt x="156" y="1139" on="1"/>
        <pt x="225" y="1462" on="1"/>
        <pt x="1253" y="1462" on="1"/>
        <pt x="1182" y="1139" on="1"/>
        <pt x="864" y="1139" on="1"/>
      </contour>
    </TTGlyph>
    <TTGlyph name="afii10061" xMin="33" yMin="0" xMax="1483" yMax="1907">
      <component glyphName="afii10028" x="0" y="0" flags="0x204"/>
      <component glyphName="acute" x="238" y="338" flags="0x4"/>
    </TTGlyph>
    <TTGlyph name="afii10062" xMin="68" yMin="-20" xMax="1460" yMax="1960">
      <component glyphName="afii10037" x="0" y="0" flags="0x204"/>
      <component glyphName="cyrillicbreve" x="47" y="338" flags="0x4"/>
    </TTGlyph>
    <TTGlyph name="afii10065" xMin="84" yMin="-20" xMax="1221" yMax="1153">
      <component glyphName="a" x="0" y="0" flags="0x204"/>
    </TTGlyph>
    <TTGlyph name="afii10066" xMin="86" yMin="-20" xMax="1300" yMax="1569">
      <contour>
        <pt x="1262" y="1569" on="1"/>
        <pt x="1300" y="1241" on="1"/>
        <pt x="1198" y="1231" on="1"/>
        <pt x="901" y="1201" on="0"/>
        <pt x="684" y="1136" on="0"/>
        <pt x="564" y="1011" on="0"/>
        <pt x="537" y="903" on="1"/>
        <pt x="545" y="903" on="1"/>
        <pt x="596" y="974" on="0"/>
        <pt x="744" y="1057" on="0"/>
        <pt x="834" y="1057" on="1"/>
        <pt x="987" y="1057" on="0"/>
        <pt x="1145" y="850" on="0"/>
        <pt x="1145" y="659" on="1"/>
        <pt x="1145" y="471" on="0"/>
        <pt x="984" y="150" on="0"/>
        <pt x="708" y="-20" on="0"/>
        <pt x="530" y="-20" on="1"/>
        <pt x="318" y="-20" on="0"/>
        <pt x="86" y="248" on="0"/>
        <pt x="86" y="498" on="1"/>
        <pt x="86" y="713" on="0"/>
        <pt x="261" y="1207" on="0"/>
        <pt x="596" y="1484" on="0"/>
        <pt x="844" y="1522" on="1"/>
        <pt x="996" y="1545" on="0"/>
      </contour>
      <contour>
        <pt x="557" y="291" on="1"/>
        <pt x="604" y="291" on="0"/>
        <pt x="696" y="395" on="0"/>
        <pt x="754" y="571" on="0"/>
        <pt x="754" y="664" on="1"/>
        <pt x="754" y="716" on="0"/>
        <pt x="723" y="774" on="0"/>
        <pt x="680" y="774" on="1"/>
        <pt x="646" y="774" on="0"/>
        <pt x="548" y="700" on="0"/>
        <pt x="500" y="637" on="1"/>
        <pt x="493" y="612" on="0"/>
        <pt x="477" y="517" on="0"/>
        <pt x="477" y="477" on="1"/>
        <pt x="477" y="291" on="0"/>
      </contour>
    </TTGlyph>
    <TTGlyph name="afii10067" xMin="84" yMin="-20" xMax="1165" yMax="1153">
      <contour>
        <pt x="733" y="1153" on="1"/>
        <pt x="931" y="1153" on="0"/>
        <pt x="1165" y="982" on="0"/>
        <pt x="1165" y="838" on="1"/>
        <pt x="1165" y="739" on="0"/>
        <pt x="1048" y="606" on="0"/>
        <pt x="915" y="571" on="1"/>
        <pt x="915" y="563" on="1"/>
        <pt x="1003" y="545" on="0"/>
        <pt x="1102" y="423" on="0"/>
        <pt x="1102" y="340" on="1"/>
        <pt x="1102" y="168" on="0"/>
        <pt x="839" y="-20" on="0"/>
        <pt x="567" y="-20" on="1"/>
        <pt x="340" y="-20" on="0"/>
        <pt x="84" y="217" on="0"/>
        <pt x="84" y="432" on="1"/>
        <pt x="84" y="640" on="0"/>
        <pt x="251" y="976" on="0"/>
        <pt x="545" y="1153" on="0"/>
      </contour>
      <contour>
        <pt x="473" y="475" on="1"/>
        <pt x="469" y="439" on="0"/>
        <pt x="469" y="408" on="1"/>
        <pt x="469" y="242" on="0"/>
        <pt x="592" y="242" on="1"/>
        <pt x="643" y="242" on="0"/>
        <pt x="709" y="295" on="0"/>
        <pt x="709" y="352" on="1"/>
        <pt x="709" y="475" on="0"/>
        <pt x="586" y="475" on="1"/>
      </contour>
      <contour>
        <pt x="643" y="725" on="1"/>
        <pt x="780" y="725" on="0"/>
        <pt x="780" y="819" on="1"/>
        <pt x="780" y="853" on="0"/>
        <pt x="741" y="891" on="0"/>
        <pt x="709" y="891" on="1"/>
        <pt x="652" y="891" on="0"/>
        <pt x="563" y="817" on="0"/>
        <pt x="528" y="725" on="1"/>
      </contour>
    </TTGlyph>
    <TTGlyph name="afii10068" xMin="25" yMin="-20" xMax="991" yMax="1153">
      <contour>
        <pt x="168" y="1059" on="1"/>
        <pt x="249" y="1104" on="0"/>
        <pt x="468" y="1153" on="0"/>
        <pt x="575" y="1153" on="1"/>
        <pt x="771" y="1153" on="0"/>
        <pt x="991" y="986" on="0"/>
        <pt x="991" y="836" on="1"/>
        <pt x="991" y="718" on="0"/>
        <pt x="910" y="567" on="0"/>
        <pt x="723" y="453" on="0"/>
        <pt x="539" y="395" on="1"/>
        <pt x="455" y="369" on="0"/>
        <pt x="420" y="339" on="0"/>
        <pt x="420" y="313" on="1"/>
        <pt x="420" y="290" on="0"/>
        <pt x="463" y="264" on="0"/>
        <pt x="522" y="264" on="1"/>
        <pt x="580" y="264" on="0"/>
        <pt x="766" y="314" on="0"/>
        <pt x="856" y="356" on="1"/>
        <pt x="856" y="72" on="1"/>
        <pt x="764" y="25" on="0"/>
        <pt x="561" y="-20" on="0"/>
        <pt x="432" y="-20" on="1"/>
        <pt x="235" y="-20" on="0"/>
        <pt x="25" y="159" on="0"/>
        <pt x="25" y="324" on="1"/>
        <pt x="25" y="468" on="0"/>
        <pt x="218" y="653" on="0"/>
        <pt x="432" y="715" on="1"/>
        <pt x="498" y="733" on="0"/>
        <pt x="572" y="767" on="0"/>
        <pt x="602" y="801" on="0"/>
        <pt x="602" y="834" on="1"/>
        <pt x="602" y="889" on="0"/>
        <pt x="514" y="889" on="1"/>
        <pt x="404" y="889" on="0"/>
        <pt x="260" y="811" on="1"/>
      </contour>
    </TTGlyph>
    <TTGlyph name="afii10069" xMin="84" yMin="-20" xMax="1223" yMax="1577">
      <contour>
        <pt x="1223" y="924" on="1"/>
        <pt x="1223" y="626" on="0"/>
        <pt x="1058" y="193" on="0"/>
        <pt x="760" y="-20" on="0"/>
        <pt x="549" y="-20" on="1"/>
        <pt x="325" y="-20" on="0"/>
        <pt x="84" y="211" on="0"/>
        <pt x="84" y="422" on="1"/>
        <pt x="84" y="604" on="0"/>
        <pt x="201" y="892" on="0"/>
        <pt x="412" y="1051" on="0"/>
        <pt x="545" y="1051" on="1"/>
        <pt x="631" y="1051" on="0"/>
        <pt x="779" y="953" on="0"/>
        <pt x="821" y="868" on="1"/>
        <pt x="829" y="868" on="1"/>
        <pt x="831" y="904" on="1"/>
        <pt x="831" y="934" on="1"/>
        <pt x="831" y="1114" on="0"/>
        <pt x="717" y="1266" on="0"/>
        <pt x="578" y="1266" on="1"/>
        <pt x="489" y="1266" on="0"/>
        <pt x="381" y="1223" on="1"/>
        <pt x="305" y="1518" on="1"/>
        <pt x="410" y="1551" on="0"/>
        <pt x="575" y="1577" on="0"/>
        <pt x="672" y="1577" on="1"/>
        <pt x="942" y="1577" on="0"/>
        <pt x="1223" y="1248" on="0"/>
      </contour>
      <contour>
        <pt x="588" y="291" on="1"/>
        <pt x="660" y="291" on="0"/>
        <pt x="766" y="477" on="0"/>
        <pt x="795" y="655" on="1"/>
        <pt x="745" y="760" on="0"/>
        <pt x="655" y="760" on="1"/>
        <pt x="578" y="760" on="0"/>
        <pt x="473" y="569" on="0"/>
        <pt x="473" y="420" on="1"/>
        <pt x="473" y="361" on="0"/>
        <pt x="535" y="291" on="0"/>
      </contour>
    </TTGlyph>
    <TTGlyph name="afii10070" xMin="84" yMin="-20" xMax="1141" yMax="1153">
      <component glyphName="e" x="0" y="0" flags="0x204"/>
    </TTGlyph>
    <TTGlyph name="afii10071" xMin="84" yMin="-20" xMax="1192" yMax="1571">
      <component glyphName="e" x="0" y="0" flags="0x204"/>
      <component glyphName="dieresis" x="0" y="0" flags="0x4"/>
    </TTGlyph>
    <TTGlyph name="afii10072" xMin="-25" yMin="-20" xMax="2154" yMax="1153">
      <contour>
        <pt x="133" y="1118" on="1"/>
        <pt x="208" y="1153" on="0"/>
        <pt x="324" y="1153" on="1"/>
        <pt x="525" y="1153" on="0"/>
        <pt x="734" y="922" on="0"/>
        <pt x="737" y="702" on="1"/>
        <pt x="905" y="702" on="1"/>
        <pt x="999" y="1133" on="1"/>
        <pt x="1372" y="1133" on="1"/>
        <pt x="1278" y="702" on="1"/>
        <pt x="1427" y="702" on="1"/>
        <pt x="1484" y="911" on="0"/>
        <pt x="1784" y="1153" on="0"/>
        <pt x="1991" y="1153" on="1"/>
        <pt x="2068" y="1153" on="0"/>
        <pt x="2154" y="1139" on="1"/>
        <pt x="2085" y="838" on="1"/>
        <pt x="2034" y="846" on="0"/>
        <pt x="2009" y="846" on="1"/>
        <pt x="1906" y="846" on="0"/>
        <pt x="1774" y="611" on="0"/>
        <pt x="1774" y="438" on="1"/>
        <pt x="1774" y="291" on="0"/>
        <pt x="1872" y="291" on="1"/>
        <pt x="1922" y="291" on="0"/>
        <pt x="1997" y="322" on="1"/>
        <pt x="1997" y="14" on="1"/>
        <pt x="1921" y="-20" on="0"/>
        <pt x="1806" y="-20" on="1"/>
        <pt x="1601" y="-20" on="0"/>
        <pt x="1393" y="215" on="0"/>
        <pt x="1393" y="440" on="1"/>
        <pt x="1221" y="440" on="1"/>
        <pt x="1126" y="0" on="1"/>
        <pt x="754" y="0" on="1"/>
        <pt x="848" y="440" on="1"/>
        <pt x="705" y="440" on="1"/>
        <pt x="647" y="226" on="0"/>
        <pt x="348" y="-20" on="0"/>
        <pt x="139" y="-20" on="1"/>
        <pt x="64" y="-20" on="0"/>
        <pt x="-25" y="-6" on="1"/>
        <pt x="45" y="295" on="1"/>
        <pt x="96" y="287" on="0"/>
        <pt x="121" y="287" on="1"/>
        <pt x="223" y="287" on="0"/>
        <pt x="356" y="519" on="0"/>
        <pt x="356" y="694" on="1"/>
        <pt x="356" y="842" on="0"/>
        <pt x="258" y="842" on="1"/>
        <pt x="208" y="842" on="0"/>
        <pt x="133" y="811" on="1"/>
      </contour>
    </TTGlyph>
    <TTGlyph name="afii10073" xMin="33" yMin="-20" xMax="1118" yMax="1153">
      <contour>
        <pt x="518" y="711" on="1"/>
        <pt x="634" y="711" on="0"/>
        <pt x="733" y="753" on="0"/>
        <pt x="733" y="795" on="1"/>
        <pt x="733" y="836" on="0"/>
        <pt x="677" y="870" on="0"/>
        <pt x="610" y="870" on="1"/>
        <pt x="537" y="870" on="0"/>
        <pt x="342" y="826" on="0"/>
        <pt x="260" y="788" on="1"/>
        <pt x="176" y="1067" on="1"/>
        <pt x="427" y="1153" on="0"/>
        <pt x="666" y="1153" on="1"/>
        <pt x="890" y="1153" on="0"/>
        <pt x="1118" y="1006" on="0"/>
        <pt x="1118" y="864" on="1"/>
        <pt x="1118" y="762" on="0"/>
        <pt x="997" y="630" on="0"/>
        <pt x="866" y="590" on="1"/>
        <pt x="866" y="582" on="1"/>
        <pt x="960" y="557" on="0"/>
        <pt x="1053" y="439" on="0"/>
        <pt x="1053" y="358" on="1"/>
        <pt x="1053" y="176" on="0"/>
        <pt x="743" y="-20" on="0"/>
        <pt x="459" y="-20" on="1"/>
        <pt x="318" y="-20" on="0"/>
        <pt x="101" y="28" on="0"/>
        <pt x="33" y="66" on="1"/>
        <pt x="33" y="360" on="1"/>
        <pt x="230" y="270" on="0"/>
        <pt x="432" y="270" on="1"/>
        <pt x="659" y="270" on="0"/>
        <pt x="659" y="365" on="1"/>
        <pt x="659" y="420" on="0"/>
        <pt x="554" y="465" on="0"/>
        <pt x="451" y="465" on="1"/>
        <pt x="311" y="465" on="1"/>
        <pt x="365" y="711" on="1"/>
      </contour>
    </TTGlyph>
    <TTGlyph name="afii10074" xMin="96" yMin="-20" xMax="1251" yMax="1133">
      <component glyphName="u" x="0" y="0" flags="0x204"/>
    </TTGlyph>
    <TTGlyph name="afii10075" xMin="96" yMin="-20" xMax="1311" yMax="1622">
      <component glyphName="u" x="0" y="0" flags="0x204"/>
      <component glyphName="cyrillicbreve" x="-22" y="0" flags="0x4"/>
    </TTGlyph>
    <TTGlyph name="afii10076" xMin="23" yMin="0" xMax="1368" yMax="1133">
      <contour>
        <pt x="928" y="1133" on="1"/>
        <pt x="1368" y="1133" on="1"/>
        <pt x="924" y="563" on="1"/>
        <pt x="1151" y="0" on="1"/>
        <pt x="727" y="0" on="1"/>
        <pt x="522" y="543" on="1"/>
        <pt x="410" y="0" on="1"/>
        <pt x="23" y="0" on="1"/>
        <pt x="258" y="1133" on="1"/>
        <pt x="645" y="1133" on="1"/>
        <pt x="537" y="612" on="1"/>
      </contour>
    </TTGlyph>
    <TTGlyph name="afii10077" xMin="-37" yMin="-20" xMax="1329" yMax="1153">
      <contour>
        <pt x="1108" y="0" on="1"/>
        <pt x="721" y="0" on="1"/>
        <pt x="899" y="856" on="1"/>
        <pt x="872" y="862" on="0"/>
        <pt x="844" y="862" on="1"/>
        <pt x="771" y="862" on="0"/>
        <pt x="685" y="787" on="0"/>
        <pt x="606" y="614" on="0"/>
        <pt x="557" y="446" on="1"/>
        <pt x="497" y="240" on="0"/>
        <pt x="391" y="58" on="0"/>
        <pt x="245" y="-20" on="0"/>
        <pt x="125" y="-20" on="1"/>
        <pt x="39" y="-20" on="0"/>
        <pt x="-37" y="10" on="1"/>
        <pt x="-37" y="311" on="1"/>
        <pt x="0" y="291" on="0"/>
        <pt x="43" y="291" on="1"/>
        <pt x="89" y="291" on="0"/>
        <pt x="152" y="394" on="0"/>
        <pt x="215" y="596" on="1"/>
        <pt x="276" y="789" on="0"/>
        <pt x="388" y="983" on="0"/>
        <pt x="532" y="1097" on="0"/>
        <pt x="728" y="1153" on="0"/>
        <pt x="862" y="1153" on="1"/>
        <pt x="992" y="1153" on="0"/>
        <pt x="1243" y="1109" on="0"/>
        <pt x="1329" y="1073" on="1"/>
      </contour>
    </TTGlyph>
    <TTGlyph name="afii10078" xMin="33" yMin="0" xMax="1745" yMax="1133">
      <contour>
        <pt x="584" y="0" on="1"/>
        <pt x="537" y="719" on="1"/>
        <pt x="528" y="719" on="1"/>
        <pt x="494" y="441" on="0"/>
        <pt x="467" y="324" on="1"/>
        <pt x="395" y="0" on="1"/>
        <pt x="33" y="0" on="1"/>
        <pt x="272" y="1133" on="1"/>
        <pt x="784" y="1133" on="1"/>
        <pt x="831" y="393" on="1"/>
        <pt x="840" y="393" on="1"/>
        <pt x="1204" y="1133" on="1"/>
        <pt x="1745" y="1133" on="1"/>
        <pt x="1503" y="0" on="1"/>
        <pt x="1139" y="0" on="1"/>
        <pt x="1210" y="332" on="1"/>
        <pt x="1238" y="462" on="0"/>
        <pt x="1272" y="596" on="1"/>
        <pt x="1295" y="690" on="0"/>
        <pt x="1300" y="719" on="1"/>
        <pt x="1292" y="719" on="1"/>
        <pt x="946" y="0" on="1"/>
      </contour>
    </TTGlyph>
    <TTGlyph name="afii10079" xMin="23" yMin="0" xMax="1262" yMax="1133">
      <contour>
        <pt x="651" y="1133" on="1"/>
        <pt x="565" y="723" on="1"/>
        <pt x="786" y="723" on="1"/>
        <pt x="874" y="1133" on="1"/>
        <pt x="1262" y="1133" on="1"/>
        <pt x="1022" y="0" on="1"/>
        <pt x="635" y="0" on="1"/>
        <pt x="727" y="440" on="1"/>
        <pt x="504" y="440" on="1"/>
        <pt x="410" y="0" on="1"/>
        <pt x="23" y="0" on="1"/>
        <pt x="264" y="1133" on="1"/>
      </contour>
    </TTGlyph>
    <TTGlyph name="afii10080" xMin="84" yMin="-20" xMax="1159" yMax="1153">
      <component glyphName="o" x="0" y="0" flags="0x204"/>
    </TTGlyph>
    <TTGlyph name="afii10081" xMin="23" yMin="0" xMax="1178" yMax="1153">
      <component glyphName="n" x="0" y="0" flags="0x204"/>
    </TTGlyph>
    <TTGlyph name="afii10082" xMin="-82" yMin="-492" xMax="1159" yMax="1153">
      <component glyphName="p" x="0" y="0" flags="0x204"/>
    </TTGlyph>
    <TTGlyph name="afii10083" xMin="84" yMin="-20" xMax="1057" yMax="1153">
      <component glyphName="c" x="0" y="0" flags="0x204"/>
    </TTGlyph>
    <TTGlyph name="afii10084" xMin="23" yMin="0" xMax="1800" yMax="1153">
      <component glyphName="m" x="0" y="0" flags="0x204"/>
    </TTGlyph>
    <TTGlyph name="afii10085" xMin="-129" yMin="-492" xMax="1229" yMax="1133">
      <component glyphName="y" x="0" y="0" flags="0x204"/>
    </TTGlyph>
    <TTGlyph name="afii10086" xMin="84" yMin="-492" xMax="1647" yMax="1556">
      <contour>
        <pt x="555" y="-16" on="1"/>
        <pt x="323" y="19" on="0"/>
        <pt x="84" y="278" on="0"/>
        <pt x="84" y="485" on="1"/>
        <pt x="84" y="1088" on="0"/>
        <pt x="803" y="1151" on="1"/>
        <pt x="887" y="1556" on="1"/>
        <pt x="1260" y="1556" on="1"/>
        <pt x="1176" y="1151" on="1"/>
        <pt x="1408" y="1116" on="0"/>
        <pt x="1647" y="857" on="0"/>
        <pt x="1647" y="649" on="1"/>
        <pt x="1647" y="48" on="0"/>
        <pt x="928" y="-16" on="1"/>
        <pt x="829" y="-492" on="1"/>
        <pt x="457" y="-492" on="1"/>
      </contour>
      <contour>
        <pt x="991" y="274" on="1"/>
        <pt x="1106" y="287" on="0"/>
        <pt x="1257" y="493" on="0"/>
        <pt x="1257" y="635" on="1"/>
        <pt x="1257" y="722" on="0"/>
        <pt x="1181" y="845" on="0"/>
        <pt x="1112" y="860" on="1"/>
      </contour>
      <contour>
        <pt x="739" y="860" on="1"/>
        <pt x="620" y="847" on="0"/>
        <pt x="473" y="647" on="0"/>
        <pt x="473" y="500" on="1"/>
        <pt x="473" y="410" on="0"/>
        <pt x="551" y="289" on="0"/>
        <pt x="618" y="274" on="1"/>
      </contour>
    </TTGlyph>
    <TTGlyph name="afii10087" xMin="-119" yMin="0" xMax="1290" yMax="1133">
      <component glyphName="x" x="0" y="0" flags="0x204"/>
    </TTGlyph>
    <TTGlyph name="afii10088" xMin="96" yMin="-416" xMax="1251" yMax="1133">
      <contour>
        <pt x="1090" y="-416" on="1"/>
        <pt x="721" y="-416" on="1"/>
        <pt x="840" y="31" on="1"/>
        <pt x="751" y="71" on="0"/>
        <pt x="735" y="190" on="1"/>
        <pt x="727" y="190" on="1"/>
        <pt x="665" y="84" on="0"/>
        <pt x="504" y="-20" on="0"/>
        <pt x="395" y="-20" on="1"/>
        <pt x="254" y="-20" on="0"/>
        <pt x="96" y="151" on="0"/>
        <pt x="96" y="301" on="1"/>
        <pt x="96" y="407" on="0"/>
        <pt x="121" y="530" on="1"/>
        <pt x="248" y="1133" on="1"/>
        <pt x="635" y="1133" on="1"/>
        <pt x="506" y="516" on="1"/>
        <pt x="487" y="434" on="0"/>
        <pt x="487" y="375" on="1"/>
        <pt x="487" y="331" on="0"/>
        <pt x="532" y="289" on="0"/>
        <pt x="563" y="289" on="1"/>
        <pt x="622" y="289" on="0"/>
        <pt x="719" y="446" on="0"/>
        <pt x="748" y="582" on="1"/>
        <pt x="864" y="1133" on="1"/>
        <pt x="1251" y="1133" on="1"/>
        <pt x="1106" y="446" on="1"/>
        <pt x="1092" y="379" on="0"/>
        <pt x="1092" y="350" on="1"/>
        <pt x="1092" y="289" on="0"/>
        <pt x="1163" y="289" on="1"/>
        <pt x="1193" y="289" on="0"/>
        <pt x="1237" y="301" on="1"/>
      </contour>
    </TTGlyph>
    <TTGlyph name="afii10089" xMin="139" yMin="0" xMax="1223" yMax="1133">
      <contour>
        <pt x="530" y="711" on="1"/>
        <pt x="530" y="667" on="0"/>
        <pt x="575" y="625" on="0"/>
        <pt x="606" y="625" on="1"/>
        <pt x="727" y="625" on="0"/>
        <pt x="791" y="918" on="1"/>
        <pt x="836" y="1133" on="1"/>
        <pt x="1223" y="1133" on="1"/>
        <pt x="983" y="0" on="1"/>
        <pt x="596" y="0" on="1"/>
        <pt x="682" y="412" on="1"/>
        <pt x="672" y="412" on="1"/>
        <pt x="561" y="315" on="0"/>
        <pt x="399" y="315" on="1"/>
        <pt x="322" y="315" on="0"/>
        <pt x="203" y="393" on="0"/>
        <pt x="139" y="529" on="0"/>
        <pt x="139" y="608" on="1"/>
        <pt x="139" y="743" on="0"/>
        <pt x="164" y="866" on="1"/>
        <pt x="219" y="1133" on="1"/>
        <pt x="606" y="1133" on="1"/>
        <pt x="549" y="852" on="1"/>
        <pt x="530" y="770" on="0"/>
      </contour>
    </TTGlyph>
    <TTGlyph name="afii10090" xMin="96" yMin="-20" xMax="1874" yMax="1133">
      <contour>
        <pt x="1251" y="1133" on="1"/>
        <pt x="1120" y="502" on="1"/>
        <pt x="1106" y="418" on="0"/>
        <pt x="1106" y="381" on="1"/>
        <pt x="1106" y="287" on="0"/>
        <pt x="1178" y="287" on="1"/>
        <pt x="1245" y="287" on="0"/>
        <pt x="1335" y="430" on="0"/>
        <pt x="1368" y="582" on="1"/>
        <pt x="1487" y="1133" on="1"/>
        <pt x="1874" y="1133" on="1"/>
        <pt x="1634" y="0" on="1"/>
        <pt x="1325" y="0" on="1"/>
        <pt x="1341" y="186" on="1"/>
        <pt x="1333" y="186" on="1"/>
        <pt x="1274" y="77" on="0"/>
        <pt x="1125" y="-20" on="0"/>
        <pt x="1006" y="-20" on="1"/>
        <pt x="889" y="-20" on="0"/>
        <pt x="761" y="86" on="0"/>
        <pt x="735" y="186" on="1"/>
        <pt x="727" y="186" on="1"/>
        <pt x="662" y="80" on="0"/>
        <pt x="494" y="-20" on="0"/>
        <pt x="383" y="-20" on="1"/>
        <pt x="243" y="-20" on="0"/>
        <pt x="96" y="148" on="0"/>
        <pt x="96" y="313" on="1"/>
        <pt x="96" y="408" on="0"/>
        <pt x="119" y="518" on="1"/>
        <pt x="244" y="1133" on="1"/>
        <pt x="631" y="1133" on="1"/>
        <pt x="502" y="502" on="1"/>
        <pt x="487" y="442" on="0"/>
        <pt x="487" y="369" on="1"/>
        <pt x="487" y="328" on="0"/>
        <pt x="525" y="287" on="0"/>
        <pt x="557" y="287" on="1"/>
        <pt x="631" y="287" on="0"/>
        <pt x="723" y="438" on="0"/>
        <pt x="754" y="590" on="1"/>
        <pt x="864" y="1133" on="1"/>
      </contour>
    </TTGlyph>
    <TTGlyph name="afii10091" xMin="96" yMin="-416" xMax="1874" yMax="1133">
      <contour>
        <pt x="1333" y="186" on="1"/>
        <pt x="1274" y="77" on="0"/>
        <pt x="1125" y="-20" on="0"/>
        <pt x="1006" y="-20" on="1"/>
        <pt x="889" y="-20" on="0"/>
        <pt x="761" y="86" on="0"/>
        <pt x="735" y="186" on="1"/>
        <pt x="727" y="186" on="1"/>
        <pt x="662" y="80" on="0"/>
        <pt x="494" y="-20" on="0"/>
        <pt x="383" y="-20" on="1"/>
        <pt x="243" y="-20" on="0"/>
        <pt x="96" y="148" on="0"/>
        <pt x="96" y="313" on="1"/>
        <pt x="96" y="408" on="0"/>
        <pt x="119" y="518" on="1"/>
        <pt x="244" y="1133" on="1"/>
        <pt x="631" y="1133" on="1"/>
        <pt x="502" y="502" on="1"/>
        <pt x="487" y="442" on="0"/>
        <pt x="487" y="369" on="1"/>
        <pt x="487" y="328" on="0"/>
        <pt x="525" y="287" on="0"/>
        <pt x="557" y="287" on="1"/>
        <pt x="631" y="287" on="0"/>
        <pt x="723" y="438" on="0"/>
        <pt x="754" y="590" on="1"/>
        <pt x="864" y="1133" on="1"/>
        <pt x="1251" y="1133" on="1"/>
        <pt x="1120" y="502" on="1"/>
        <pt x="1106" y="418" on="0"/>
        <pt x="1106" y="381" on="1"/>
        <pt x="1106" y="287" on="0"/>
        <pt x="1178" y="287" on="1"/>
        <pt x="1245" y="287" on="0"/>
        <pt x="1335" y="430" on="0"/>
        <pt x="1368" y="582" on="1"/>
        <pt x="1487" y="1133" on="1"/>
        <pt x="1874" y="1133" on="1"/>
        <pt x="1729" y="446" on="1"/>
        <pt x="1714" y="374" on="0"/>
        <pt x="1714" y="350" on="1"/>
        <pt x="1714" y="289" on="0"/>
        <pt x="1786" y="289" on="1"/>
        <pt x="1816" y="289" on="0"/>
        <pt x="1860" y="301" on="1"/>
        <pt x="1712" y="-416" on="1"/>
        <pt x="1343" y="-416" on="1"/>
        <pt x="1462" y="31" on="1"/>
        <pt x="1416" y="52" on="0"/>
        <pt x="1349" y="135" on="0"/>
        <pt x="1341" y="186" on="1"/>
      </contour>
    </TTGlyph>
    <TTGlyph name="afii10092" xMin="78" yMin="-20" xMax="1307" yMax="1133">
      <contour>
        <pt x="745" y="700" on="1"/>
        <pt x="818" y="721" on="0"/>
        <pt x="911" y="721" on="1"/>
        <pt x="1030" y="721" on="0"/>
        <pt x="1209" y="641" on="0"/>
        <pt x="1307" y="496" on="0"/>
        <pt x="1307" y="403" on="1"/>
        <pt x="1307" y="196" on="0"/>
        <pt x="1025" y="-20" on="0"/>
        <pt x="739" y="-20" on="1"/>
        <pt x="526" y="-20" on="0"/>
        <pt x="291" y="144" on="0"/>
        <pt x="291" y="299" on="1"/>
        <pt x="291" y="383" on="0"/>
        <pt x="317" y="500" on="1"/>
        <pt x="393" y="850" on="1"/>
        <pt x="78" y="850" on="1"/>
        <pt x="139" y="1133" on="1"/>
        <pt x="842" y="1133" on="1"/>
      </contour>
      <contour>
        <pt x="811" y="459" on="1"/>
        <pt x="739" y="459" on="0"/>
        <pt x="690" y="442" on="1"/>
        <pt x="668" y="349" on="0"/>
        <pt x="668" y="315" on="1"/>
        <pt x="668" y="280" on="0"/>
        <pt x="733" y="242" on="0"/>
        <pt x="788" y="242" on="1"/>
        <pt x="844" y="242" on="0"/>
        <pt x="915" y="298" on="0"/>
        <pt x="915" y="352" on="1"/>
        <pt x="915" y="402" on="0"/>
        <pt x="857" y="459" on="0"/>
      </contour>
    </TTGlyph>
    <TTGlyph name="afii10093" xMin="84" yMin="-20" xMax="1800" yMax="1133">
      <contour>
        <pt x="539" y="700" on="1"/>
        <pt x="606" y="721" on="0"/>
        <pt x="694" y="721" on="1"/>
        <pt x="864" y="721" on="0"/>
        <pt x="1067" y="545" on="0"/>
        <pt x="1067" y="403" on="1"/>
        <pt x="1067" y="196" on="0"/>
        <pt x="795" y="-20" on="0"/>
        <pt x="518" y="-20" on="1"/>
        <pt x="312" y="-20" on="0"/>
        <pt x="84" y="142" on="0"/>
        <pt x="84" y="299" on="1"/>
        <pt x="84" y="388" on="0"/>
        <pt x="111" y="500" on="1"/>
        <pt x="248" y="1133" on="1"/>
        <pt x="635" y="1133" on="1"/>
      </contour>
      <contour>
        <pt x="586" y="459" on="1"/>
        <pt x="526" y="459" on="0"/>
        <pt x="483" y="442" on="1"/>
        <pt x="461" y="349" on="0"/>
        <pt x="461" y="315" on="1"/>
        <pt x="461" y="280" on="0"/>
        <pt x="516" y="242" on="0"/>
        <pt x="565" y="242" on="1"/>
        <pt x="613" y="242" on="0"/>
        <pt x="676" y="298" on="0"/>
        <pt x="676" y="352" on="1"/>
        <pt x="676" y="400" on="0"/>
        <pt x="627" y="459" on="0"/>
      </contour>
      <contour>
        <pt x="1559" y="0" on="1"/>
        <pt x="1171" y="0" on="1"/>
        <pt x="1411" y="1133" on="1"/>
        <pt x="1800" y="1133" on="1"/>
      </contour>
    </TTGlyph>
    <TTGlyph name="afii10094" xMin="84" yMin="-20" xMax="1100" yMax="1133">
      <contour>
        <pt x="539" y="700" on="1"/>
        <pt x="610" y="721" on="0"/>
        <pt x="705" y="721" on="1"/>
        <pt x="885" y="721" on="0"/>
        <pt x="1100" y="545" on="0"/>
        <pt x="1100" y="403" on="1"/>
        <pt x="1100" y="196" on="0"/>
        <pt x="818" y="-20" on="0"/>
        <pt x="532" y="-20" on="1"/>
        <pt x="319" y="-20" on="0"/>
        <pt x="84" y="144" on="0"/>
        <pt x="84" y="299" on="1"/>
        <pt x="84" y="388" on="0"/>
        <pt x="111" y="500" on="1"/>
        <pt x="248" y="1133" on="1"/>
        <pt x="635" y="1133" on="1"/>
      </contour>
      <contour>
        <pt x="604" y="459" on="1"/>
        <pt x="532" y="459" on="0"/>
        <pt x="483" y="442" on="1"/>
        <pt x="461" y="349" on="0"/>
        <pt x="461" y="315" on="1"/>
        <pt x="461" y="280" on="0"/>
        <pt x="526" y="242" on="0"/>
        <pt x="582" y="242" on="1"/>
        <pt x="637" y="242" on="0"/>
        <pt x="709" y="298" on="0"/>
        <pt x="709" y="352" on="1"/>
        <pt x="709" y="400" on="0"/>
        <pt x="653" y="459" on="0"/>
      </contour>
    </TTGlyph>
    <TTGlyph name="afii10095" xMin="45" yMin="-20" xMax="948" yMax="1153">
      <contour>
        <pt x="520" y="1153" on="1"/>
        <pt x="726" y="1153" on="0"/>
        <pt x="948" y="916" on="0"/>
        <pt x="948" y="702" on="1"/>
        <pt x="948" y="488" on="0"/>
        <pt x="793" y="160" on="0"/>
        <pt x="499" y="-20" on="0"/>
        <pt x="299" y="-20" on="1"/>
        <pt x="231" y="-20" on="0"/>
        <pt x="95" y="9" on="0"/>
        <pt x="45" y="37" on="1"/>
        <pt x="45" y="334" on="1"/>
        <pt x="134" y="270" on="0"/>
        <pt x="276" y="270" on="1"/>
        <pt x="353" y="270" on="0"/>
        <pt x="475" y="355" on="0"/>
        <pt x="512" y="440" on="1"/>
        <pt x="221" y="440" on="1"/>
        <pt x="272" y="686" on="1"/>
        <pt x="557" y="686" on="1"/>
        <pt x="553" y="870" on="0"/>
        <pt x="432" y="870" on="1"/>
        <pt x="381" y="870" on="0"/>
        <pt x="296" y="839" on="0"/>
        <pt x="248" y="811" on="1"/>
        <pt x="150" y="1063" on="1"/>
        <pt x="323" y="1153" on="0"/>
      </contour>
    </TTGlyph>
    <TTGlyph name="afii10096" xMin="23" yMin="-20" xMax="1745" yMax="1153">
      <contour>
        <pt x="1106" y="-20" on="1"/>
        <pt x="897" y="-20" on="0"/>
        <pt x="670" y="206" on="0"/>
        <pt x="670" y="416" on="1"/>
        <pt x="670" y="440" on="1"/>
        <pt x="504" y="440" on="1"/>
        <pt x="410" y="0" on="1"/>
        <pt x="23" y="0" on="1"/>
        <pt x="264" y="1133" on="1"/>
        <pt x="651" y="1133" on="1"/>
        <pt x="565" y="723" on="1"/>
        <pt x="719" y="723" on="1"/>
        <pt x="788" y="925" on="0"/>
        <pt x="1098" y="1153" on="0"/>
        <pt x="1309" y="1153" on="1"/>
        <pt x="1518" y="1153" on="0"/>
        <pt x="1745" y="927" on="0"/>
        <pt x="1745" y="717" on="1"/>
        <pt x="1745" y="507" on="0"/>
        <pt x="1586" y="168" on="0"/>
        <pt x="1298" y="-20" on="0"/>
      </contour>
      <contour>
        <pt x="1264" y="862" on="1"/>
        <pt x="1182" y="862" on="0"/>
        <pt x="1065" y="583" on="0"/>
        <pt x="1065" y="403" on="1"/>
        <pt x="1065" y="270" on="0"/>
        <pt x="1149" y="270" on="1"/>
        <pt x="1230" y="270" on="0"/>
        <pt x="1350" y="548" on="0"/>
        <pt x="1350" y="729" on="1"/>
        <pt x="1350" y="795" on="0"/>
        <pt x="1304" y="862" on="0"/>
      </contour>
    </TTGlyph>
    <TTGlyph name="afii10097" xMin="-6" yMin="-20" xMax="1247" yMax="1133">
      <contour>
        <pt x="688" y="403" on="1"/>
        <pt x="630" y="403" on="0"/>
        <pt x="552" y="330" on="0"/>
        <pt x="485" y="203" on="1"/>
        <pt x="435" y="109" on="0"/>
        <pt x="348" y="22" on="0"/>
        <pt x="230" y="-20" on="0"/>
        <pt x="141" y="-20" on="1"/>
        <pt x="69" y="-20" on="0"/>
        <pt x="-6" y="6" on="1"/>
        <pt x="-6" y="305" on="1"/>
        <pt x="25" y="291" on="0"/>
        <pt x="51" y="291" on="1"/>
        <pt x="91" y="291" on="0"/>
        <pt x="141" y="332" on="0"/>
        <pt x="174" y="379" on="1"/>
        <pt x="210" y="433" on="0"/>
        <pt x="296" y="493" on="0"/>
        <pt x="362" y="504" on="1"/>
        <pt x="288" y="539" on="0"/>
        <pt x="201" y="657" on="0"/>
        <pt x="201" y="729" on="1"/>
        <pt x="201" y="926" on="0"/>
        <pt x="485" y="1133" on="0"/>
        <pt x="752" y="1133" on="1"/>
        <pt x="1247" y="1133" on="1"/>
        <pt x="1008" y="0" on="1"/>
        <pt x="621" y="0" on="1"/>
        <pt x="709" y="403" on="1"/>
      </contour>
      <contour>
        <pt x="758" y="874" on="1"/>
        <pt x="592" y="874" on="0"/>
        <pt x="592" y="739" on="1"/>
        <pt x="592" y="649" on="0"/>
        <pt x="702" y="649" on="1"/>
        <pt x="760" y="649" on="1"/>
        <pt x="807" y="874" on="1"/>
      </contour>
    </TTGlyph>
    <TTGlyph name="afii10098" xMin="23" yMin="0" xMax="1153" yMax="1423">
      <contour>
        <pt x="1024" y="821" on="1"/>
        <pt x="584" y="821" on="1"/>
        <pt x="410" y="0" on="1"/>
        <pt x="23" y="0" on="1"/>
        <pt x="262" y="1133" on="1"/>
        <pt x="741" y="1133" on="1"/>
        <pt x="801" y="1423" on="1"/>
        <pt x="1153" y="1423" on="1"/>
      </contour>
    </TTGlyph>
    <TTGlyph name="afii10099" xMin="23" yMin="-492" xMax="1157" yMax="1556">
      <contour>
        <pt x="766" y="657" on="1"/>
        <pt x="766" y="701" on="0"/>
        <pt x="721" y="743" on="0"/>
        <pt x="690" y="743" on="1"/>
        <pt x="622" y="743" on="0"/>
        <pt x="535" y="593" on="0"/>
        <pt x="506" y="451" on="1"/>
        <pt x="410" y="0" on="1"/>
        <pt x="23" y="0" on="1"/>
        <pt x="268" y="1167" on="1"/>
        <pt x="100" y="1167" on="1"/>
        <pt x="152" y="1409" on="1"/>
        <pt x="319" y="1409" on="1"/>
        <pt x="352" y="1556" on="1"/>
        <pt x="739" y="1556" on="1"/>
        <pt x="709" y="1409" on="1"/>
        <pt x="977" y="1409" on="1"/>
        <pt x="926" y="1167" on="1"/>
        <pt x="657" y="1167" on="1"/>
        <pt x="626" y="1040" on="0"/>
        <pt x="578" y="922" on="1"/>
        <pt x="586" y="922" on="1"/>
        <pt x="685" y="1051" on="0"/>
        <pt x="858" y="1051" on="1"/>
        <pt x="998" y="1051" on="0"/>
        <pt x="1157" y="880" on="0"/>
        <pt x="1157" y="729" on="1"/>
        <pt x="1157" y="618" on="0"/>
        <pt x="1133" y="500" on="1"/>
        <pt x="1010" y="-86" on="1"/>
        <pt x="968" y="-290" on="0"/>
        <pt x="736" y="-492" on="0"/>
        <pt x="553" y="-492" on="1"/>
        <pt x="443" y="-492" on="0"/>
        <pt x="346" y="-465" on="1"/>
        <pt x="346" y="-162" on="1"/>
        <pt x="402" y="-180" on="0"/>
        <pt x="457" y="-180" on="1"/>
        <pt x="526" y="-180" on="0"/>
        <pt x="617" y="-102" on="0"/>
        <pt x="633" y="-31" on="1"/>
        <pt x="748" y="516" on="1"/>
        <pt x="766" y="594" on="0"/>
      </contour>
    </TTGlyph>
    <TTGlyph name="afii10100" xMin="25" yMin="-20" xMax="1126" yMax="1569">
      <component glyphName="afii10068" x="0" y="0" flags="0x204"/>
      <component glyphName="acute" x="-48" y="0" flags="0x4"/>
    </TTGlyph>
    <TTGlyph name="afii10101" xMin="84" yMin="-20" xMax="1057" yMax="1153">
      <contour>
        <pt x="506" y="-20" on="1"/>
        <pt x="308" y="-20" on="0"/>
        <pt x="84" y="216" on="0"/>
        <pt x="84" y="432" on="1"/>
        <pt x="84" y="638" on="0"/>
        <pt x="238" y="971" on="0"/>
        <pt x="516" y="1153" on="0"/>
        <pt x="690" y="1153" on="1"/>
        <pt x="801" y="1153" on="0"/>
        <pt x="972" y="1113" on="0"/>
        <pt x="1057" y="1069" on="1"/>
        <pt x="948" y="811" on="1"/>
        <pt x="898" y="834" on="0"/>
        <pt x="789" y="870" on="0"/>
        <pt x="723" y="870" on="1"/>
        <pt x="578" y="870" on="0"/>
        <pt x="518" y="686" on="1"/>
        <pt x="811" y="686" on="1"/>
        <pt x="760" y="440" on="1"/>
        <pt x="473" y="440" on="1"/>
        <pt x="473" y="362" on="0"/>
        <pt x="539" y="264" on="0"/>
        <pt x="598" y="264" on="1"/>
        <pt x="670" y="264" on="0"/>
        <pt x="805" y="316" on="0"/>
        <pt x="881" y="356" on="1"/>
        <pt x="881" y="70" on="1"/>
        <pt x="801" y="26" on="0"/>
        <pt x="624" y="-20" on="0"/>
      </contour>
    </TTGlyph>
    <TTGlyph name="afii10102" xMin="31" yMin="-20" xMax="987" yMax="1153">
      <component glyphName="s" x="0" y="0" flags="0x204"/>
    </TTGlyph>
    <TTGlyph name="afii10103" xMin="23" yMin="0" xMax="725" yMax="1591">
      <component glyphName="i" x="0" y="0" flags="0x204"/>
    </TTGlyph>
    <TTGlyph name="afii10104" xMin="23" yMin="0" xMax="947" yMax="1571">
      <component glyphName="dotlessi" x="0" y="0" flags="0x204"/>
      <component glyphName="dieresis" x="-245" y="0" flags="0x4"/>
    </TTGlyph>
    <TTGlyph name="afii10105" xMin="-264" yMin="-492" xMax="733" yMax="1591">
      <component glyphName="j" x="0" y="0" flags="0x204"/>
    </TTGlyph>
    <TTGlyph name="afii10106" xMin="-37" yMin="-20" xMax="1798" yMax="1153">
      <contour>
        <pt x="1237" y="700" on="1"/>
        <pt x="1308" y="721" on="0"/>
        <pt x="1403" y="721" on="1"/>
        <pt x="1583" y="721" on="0"/>
        <pt x="1798" y="545" on="0"/>
        <pt x="1798" y="403" on="1"/>
        <pt x="1798" y="196" on="0"/>
        <pt x="1517" y="-20" on="0"/>
        <pt x="1231" y="-20" on="1"/>
        <pt x="1017" y="-20" on="0"/>
        <pt x="782" y="143" on="0"/>
        <pt x="782" y="299" on="1"/>
        <pt x="782" y="379" on="0"/>
        <pt x="809" y="500" on="1"/>
        <pt x="887" y="858" on="1"/>
        <pt x="844" y="862" on="1"/>
        <pt x="771" y="862" on="0"/>
        <pt x="685" y="787" on="0"/>
        <pt x="606" y="614" on="0"/>
        <pt x="557" y="446" on="1"/>
        <pt x="497" y="240" on="0"/>
        <pt x="391" y="58" on="0"/>
        <pt x="245" y="-20" on="0"/>
        <pt x="125" y="-20" on="1"/>
        <pt x="39" y="-20" on="0"/>
        <pt x="-37" y="10" on="1"/>
        <pt x="-37" y="311" on="1"/>
        <pt x="0" y="291" on="0"/>
        <pt x="43" y="291" on="1"/>
        <pt x="89" y="291" on="0"/>
        <pt x="152" y="394" on="0"/>
        <pt x="215" y="596" on="1"/>
        <pt x="276" y="789" on="0"/>
        <pt x="388" y="983" on="0"/>
        <pt x="532" y="1097" on="0"/>
        <pt x="728" y="1153" on="0"/>
        <pt x="862" y="1153" on="1"/>
        <pt x="1007" y="1153" on="0"/>
        <pt x="1242" y="1105" on="0"/>
        <pt x="1319" y="1073" on="1"/>
      </contour>
      <contour>
        <pt x="1303" y="459" on="1"/>
        <pt x="1231" y="459" on="0"/>
        <pt x="1182" y="442" on="1"/>
        <pt x="1159" y="355" on="0"/>
        <pt x="1159" y="315" on="1"/>
        <pt x="1159" y="280" on="0"/>
        <pt x="1224" y="242" on="0"/>
        <pt x="1280" y="242" on="1"/>
        <pt x="1336" y="242" on="0"/>
        <pt x="1407" y="298" on="0"/>
        <pt x="1407" y="352" on="1"/>
        <pt x="1407" y="400" on="0"/>
        <pt x="1351" y="459" on="0"/>
      </contour>
    </TTGlyph>
    <TTGlyph name="afii10107" xMin="23" yMin="-20" xMax="1724" yMax="1133">
      <contour>
        <pt x="1163" y="700" on="1"/>
        <pt x="1234" y="721" on="0"/>
        <pt x="1329" y="721" on="1"/>
        <pt x="1509" y="721" on="0"/>
        <pt x="1724" y="545" on="0"/>
        <pt x="1724" y="403" on="1"/>
        <pt x="1724" y="196" on="0"/>
        <pt x="1443" y="-20" on="0"/>
        <pt x="1157" y="-20" on="1"/>
        <pt x="944" y="-20" on="0"/>
        <pt x="709" y="144" on="0"/>
        <pt x="709" y="299" on="1"/>
        <pt x="709" y="374" on="0"/>
        <pt x="723" y="440" on="1"/>
        <pt x="504" y="440" on="1"/>
        <pt x="410" y="0" on="1"/>
        <pt x="23" y="0" on="1"/>
        <pt x="264" y="1133" on="1"/>
        <pt x="651" y="1133" on="1"/>
        <pt x="565" y="723" on="1"/>
        <pt x="782" y="723" on="1"/>
        <pt x="872" y="1133" on="1"/>
        <pt x="1260" y="1133" on="1"/>
      </contour>
      <contour>
        <pt x="1229" y="459" on="1"/>
        <pt x="1157" y="459" on="0"/>
        <pt x="1108" y="442" on="1"/>
        <pt x="1085" y="345" on="0"/>
        <pt x="1085" y="315" on="1"/>
        <pt x="1085" y="280" on="0"/>
        <pt x="1150" y="242" on="0"/>
        <pt x="1206" y="242" on="1"/>
        <pt x="1262" y="242" on="0"/>
        <pt x="1333" y="298" on="0"/>
        <pt x="1333" y="352" on="1"/>
        <pt x="1333" y="400" on="0"/>
        <pt x="1277" y="459" on="0"/>
      </contour>
    </TTGlyph>
    <TTGlyph name="afii10108" xMin="23" yMin="0" xMax="1157" yMax="1556">
      <component glyphName="hbar" x="0" y="0" flags="0x204"/>
    </TTGlyph>
    <TTGlyph name="afii10109" xMin="23" yMin="0" xMax="1369" yMax="1569">
      <component glyphName="afii10076" x="0" y="0" flags="0x204"/>
      <component glyphName="acute" x="195" y="0" flags="0x4"/>
    </TTGlyph>
    <TTGlyph name="afii10110" xMin="-129" yMin="-492" xMax="1229" yMax="1622">
      <component glyphName="y" x="0" y="0" flags="0x204"/>
      <component glyphName="cyrillicbreve" x="-136" y="0" flags="0x4"/>
    </TTGlyph>
    <TTGlyph name="afii10145" xMin="33" yMin="-457" xMax="1473" yMax="1462">
      <contour>
        <pt x="342" y="1462" on="1"/>
        <pt x="733" y="1462" on="1"/>
        <pt x="496" y="324" on="1"/>
        <pt x="842" y="324" on="1"/>
        <pt x="1081" y="1462" on="1"/>
        <pt x="1473" y="1462" on="1"/>
        <pt x="1163" y="0" on="1"/>
        <pt x="786" y="0" on="1"/>
        <pt x="690" y="-457" on="1"/>
        <pt x="309" y="-457" on="1"/>
        <pt x="410" y="0" on="1"/>
        <pt x="33" y="0" on="1"/>
      </contour>
    </TTGlyph>
    <TTGlyph name="afii10193" xMin="96" yMin="-492" xMax="1251" yMax="1133">
      <contour>
        <pt x="604" y="-57" on="1"/>
        <pt x="659" y="-57" on="1"/>
        <pt x="592" y="-492" on="1"/>
        <pt x="240" y="-492" on="1"/>
        <pt x="340" y="-141" on="1"/>
      </contour>
      <contour>
        <pt x="487" y="375" on="1"/>
        <pt x="487" y="331" on="0"/>
        <pt x="532" y="289" on="0"/>
        <pt x="563" y="289" on="1"/>
        <pt x="622" y="289" on="0"/>
        <pt x="719" y="446" on="0"/>
        <pt x="748" y="582" on="1"/>
        <pt x="864" y="1133" on="1"/>
        <pt x="1251" y="1133" on="1"/>
        <pt x="1012" y="0" on="1"/>
        <pt x="702" y="0" on="1"/>
        <pt x="715" y="158" on="1"/>
        <pt x="707" y="158" on="1"/>
        <pt x="653" y="65" on="0"/>
        <pt x="504" y="-20" on="0"/>
        <pt x="395" y="-20" on="1"/>
        <pt x="254" y="-20" on="0"/>
        <pt x="96" y="151" on="0"/>
        <pt x="96" y="301" on="1"/>
        <pt x="96" y="407" on="0"/>
        <pt x="121" y="530" on="1"/>
        <pt x="248" y="1133" on="1"/>
        <pt x="635" y="1133" on="1"/>
        <pt x="506" y="516" on="1"/>
        <pt x="487" y="434" on="0"/>
      </contour>
    </TTGlyph>
    <TTGlyph name="afii61248" xMin="76" yMin="-20" xMax="1501" yMax="1483">
      <contour>
        <pt x="1450" y="1462" on="1"/>
        <pt x="371" y="0" on="1"/>
        <pt x="76" y="0" on="1"/>
        <pt x="1159" y="1462" on="1"/>
      </contour>
      <contour>
        <pt x="1501" y="442" on="1"/>
        <pt x="1501" y="235" on="0"/>
        <pt x="1283" y="-20" on="0"/>
        <pt x="1102" y="-20" on="1"/>
        <pt x="974" y="-20" on="0"/>
        <pt x="819" y="135" on="0"/>
        <pt x="819" y="268" on="1"/>
        <pt x="819" y="481" on="0"/>
        <pt x="1033" y="737" on="0"/>
        <pt x="1219" y="737" on="1"/>
        <pt x="1351" y="737" on="0"/>
        <pt x="1501" y="581" on="0"/>
      </contour>
      <contour>
        <pt x="1190" y="535" on="1"/>
        <pt x="1151" y="535" on="0"/>
        <pt x="1077" y="359" on="0"/>
        <pt x="1077" y="264" on="1"/>
        <pt x="1077" y="222" on="0"/>
        <pt x="1104" y="182" on="0"/>
        <pt x="1124" y="182" on="1"/>
        <pt x="1172" y="182" on="0"/>
        <pt x="1243" y="354" on="0"/>
        <pt x="1243" y="451" on="1"/>
        <pt x="1243" y="501" on="0"/>
        <pt x="1215" y="535" on="0"/>
      </contour>
      <contour>
        <pt x="373" y="725" on="1"/>
        <pt x="243" y="725" on="0"/>
        <pt x="88" y="877" on="0"/>
        <pt x="88" y="1010" on="1"/>
        <pt x="88" y="1217" on="0"/>
        <pt x="289" y="1483" on="0"/>
        <pt x="453" y="1483" on="1"/>
        <pt x="526" y="1483" on="0"/>
        <pt x="620" y="1465" on="0"/>
        <pt x="680" y="1440" on="1"/>
        <pt x="612" y="1243" on="1"/>
        <pt x="580" y="1257" on="0"/>
        <pt x="512" y="1280" on="0"/>
        <pt x="469" y="1280" on="1"/>
        <pt x="435" y="1280" on="0"/>
        <pt x="381" y="1217" on="0"/>
        <pt x="346" y="1091" on="0"/>
        <pt x="346" y="1032" on="1"/>
        <pt x="346" y="980" on="0"/>
        <pt x="390" y="928" on="0"/>
        <pt x="428" y="928" on="1"/>
        <pt x="465" y="928" on="0"/>
        <pt x="533" y="948" on="0"/>
        <pt x="592" y="981" on="1"/>
        <pt x="592" y="780" on="1"/>
        <pt x="477" y="725" on="0"/>
      </contour>
    </TTGlyph>
    <TTGlyph name="afii61289" xMin="55" yMin="-16" xMax="1098" yMax="1479">
      <contour>
        <pt x="707" y="240" on="1"/>
        <pt x="759" y="240" on="0"/>
        <pt x="799" y="343" on="0"/>
        <pt x="799" y="434" on="1"/>
        <pt x="1098" y="434" on="1"/>
        <pt x="1098" y="192" on="0"/>
        <pt x="877" y="-16" on="0"/>
        <pt x="639" y="-16" on="1"/>
        <pt x="448" y="-16" on="0"/>
        <pt x="231" y="215" on="0"/>
        <pt x="231" y="420" on="1"/>
        <pt x="231" y="479" on="1"/>
        <pt x="55" y="432" on="1"/>
        <pt x="55" y="686" on="1"/>
        <pt x="231" y="733" on="1"/>
        <pt x="231" y="1049" on="1"/>
        <pt x="231" y="1260" on="0"/>
        <pt x="462" y="1479" on="0"/>
        <pt x="680" y="1479" on="1"/>
        <pt x="879" y="1479" on="0"/>
        <pt x="1094" y="1278" on="0"/>
        <pt x="1094" y="1092" on="1"/>
        <pt x="1094" y="724" on="0"/>
        <pt x="610" y="580" on="1"/>
        <pt x="610" y="397" on="1"/>
        <pt x="610" y="310" on="0"/>
        <pt x="656" y="240" on="0"/>
      </contour>
      <contour>
        <pt x="748" y="1102" on="1"/>
        <pt x="748" y="1171" on="0"/>
        <pt x="717" y="1239" on="0"/>
        <pt x="680" y="1239" on="1"/>
        <pt x="642" y="1239" on="0"/>
        <pt x="610" y="1184" on="0"/>
        <pt x="610" y="1124" on="1"/>
        <pt x="610" y="844" on="1"/>
        <pt x="748" y="909" on="0"/>
      </contour>
    </TTGlyph>
    <TTGlyph name="afii61352" xMin="33" yMin="0" xMax="2130" yMax="1462">
      <contour>
        <pt x="1114" y="0" on="1"/>
        <pt x="739" y="0" on="1"/>
        <pt x="549" y="907" on="1"/>
        <pt x="538" y="828" on="1"/>
        <pt x="502" y="591" on="0"/>
        <pt x="485" y="508" on="1"/>
        <pt x="377" y="0" on="1"/>
        <pt x="33" y="0" on="1"/>
        <pt x="342" y="1462" on="1"/>
        <pt x="715" y="1462" on="1"/>
        <pt x="903" y="537" on="1"/>
        <pt x="908" y="600" on="0"/>
        <pt x="953" y="870" on="0"/>
        <pt x="971" y="946" on="1"/>
        <pt x="1079" y="1462" on="1"/>
        <pt x="1423" y="1462" on="1"/>
      </contour>
      <contour>
        <pt x="2130" y="731" on="1"/>
        <pt x="2130" y="524" on="0"/>
        <pt x="1896" y="276" on="0"/>
        <pt x="1698" y="276" on="1"/>
        <pt x="1556" y="276" on="0"/>
        <pt x="1395" y="424" on="0"/>
        <pt x="1395" y="553" on="1"/>
        <pt x="1395" y="766" on="0"/>
        <pt x="1628" y="1028" on="0"/>
        <pt x="1829" y="1028" on="1"/>
        <pt x="1970" y="1028" on="0"/>
        <pt x="2130" y="871" on="0"/>
      </contour>
      <contour>
        <pt x="1305" y="0" on="1"/>
        <pt x="1350" y="217" on="1"/>
        <pt x="2019" y="217" on="1"/>
        <pt x="1974" y="0" on="1"/>
      </contour>
      <contour>
        <pt x="1858" y="731" on="1"/>
        <pt x="1858" y="776" on="0"/>
        <pt x="1834" y="823" on="0"/>
        <pt x="1802" y="823" on="1"/>
        <pt x="1742" y="823" on="0"/>
        <pt x="1667" y="677" on="0"/>
        <pt x="1667" y="565" on="1"/>
        <pt x="1667" y="481" on="0"/>
        <pt x="1722" y="481" on="1"/>
        <pt x="1784" y="481" on="0"/>
        <pt x="1858" y="627" on="0"/>
      </contour>
    </TTGlyph>
    <TTGlyph name="agrave" xMin="84" yMin="-20" xMax="1221" yMax="1569">
      <component glyphName="a" x="0" y="0" flags="0x204"/>
      <component glyphName="grave" x="-85" y="0" flags="0x4"/>
    </TTGlyph>
    <TTGlyph name="alpha" xMin="84" yMin="-20" xMax="1290" yMax="1153">
      <contour>
        <pt x="592" y="1153" on="1"/>
        <pt x="648" y="1153" on="0"/>
        <pt x="731" y="1121" on="0"/>
        <pt x="799" y="1060" on="0"/>
        <pt x="850" y="987" on="1"/>
        <pt x="858" y="987" on="1"/>
        <pt x="902" y="1081" on="0"/>
        <pt x="954" y="1133" on="1"/>
        <pt x="1290" y="1133" on="1"/>
        <pt x="1238" y="1052" on="0"/>
        <pt x="1141" y="806" on="0"/>
        <pt x="1114" y="684" on="1"/>
        <pt x="1061" y="446" on="1"/>
        <pt x="1047" y="390" on="0"/>
        <pt x="1047" y="350" on="1"/>
        <pt x="1047" y="289" on="0"/>
        <pt x="1110" y="289" on="1"/>
        <pt x="1136" y="289" on="0"/>
        <pt x="1176" y="301" on="1"/>
        <pt x="1176" y="12" on="1"/>
        <pt x="1095" y="-20" on="0"/>
        <pt x="969" y="-20" on="1"/>
        <pt x="863" y="-20" on="0"/>
        <pt x="730" y="50" on="0"/>
        <pt x="696" y="123" on="1"/>
        <pt x="682" y="123" on="1"/>
        <pt x="635" y="63" on="0"/>
        <pt x="562" y="9" on="0"/>
        <pt x="473" y="-20" on="0"/>
        <pt x="410" y="-20" on="1"/>
        <pt x="255" y="-20" on="0"/>
        <pt x="84" y="204" on="0"/>
        <pt x="84" y="412" on="1"/>
        <pt x="84" y="596" on="0"/>
        <pt x="228" y="962" on="0"/>
        <pt x="452" y="1153" on="0"/>
      </contour>
      <contour>
        <pt x="563" y="291" on="1"/>
        <pt x="610" y="291" on="0"/>
        <pt x="699" y="402" on="0"/>
        <pt x="752" y="590" on="0"/>
        <pt x="752" y="698" on="1"/>
        <pt x="752" y="765" on="0"/>
        <pt x="722" y="842" on="0"/>
        <pt x="678" y="842" on="1"/>
        <pt x="629" y="842" on="0"/>
        <pt x="536" y="723" on="0"/>
        <pt x="479" y="529" on="0"/>
        <pt x="479" y="434" on="1"/>
        <pt x="479" y="363" on="0"/>
        <pt x="525" y="291" on="0"/>
      </contour>
    </TTGlyph>
    <TTGlyph name="alphatonos" xMin="84" yMin="-20" xMax="1290" yMax="1630">
      <component glyphName="alpha" x="0" y="0" flags="0x204"/>
      <component glyphName="tonos" x="92" y="0" flags="0x4"/>
    </TTGlyph>
    <TTGlyph name="amacron" xMin="84" yMin="-20" xMax="1221" yMax="1477">
      <component glyphName="a" x="0" y="0" flags="0x204"/>
      <component glyphName="macron" x="35" y="0" flags="0x4"/>
    </TTGlyph>
    <TTGlyph name="ampersand" xMin="8" yMin="-20" xMax="1489" yMax="1485">
      <contour>
        <pt x="8" y="385" on="1"/>
        <pt x="8" y="544" on="0"/>
        <pt x="183" y="755" on="0"/>
        <pt x="367" y="815" on="1"/>
        <pt x="330" y="861" on="0"/>
        <pt x="283" y="1006" on="0"/>
        <pt x="283" y="1065" on="1"/>
        <pt x="283" y="1262" on="0"/>
        <pt x="535" y="1485" on="0"/>
        <pt x="764" y="1485" on="1"/>
        <pt x="953" y="1485" on="0"/>
        <pt x="1180" y="1309" on="0"/>
        <pt x="1180" y="1161" on="1"/>
        <pt x="1180" y="1031" on="0"/>
        <pt x="1020" y="825" on="0"/>
        <pt x="838" y="731" on="1"/>
        <pt x="967" y="545" on="1"/>
        <pt x="1003" y="581" on="0"/>
        <pt x="1082" y="738" on="0"/>
        <pt x="1106" y="821" on="1"/>
        <pt x="1489" y="821" on="1"/>
        <pt x="1443" y="660" on="0"/>
        <pt x="1278" y="371" on="0"/>
        <pt x="1171" y="262" on="1"/>
        <pt x="1362" y="0" on="1"/>
        <pt x="920" y="0" on="1"/>
        <pt x="877" y="61" on="1"/>
        <pt x="722" y="-20" on="0"/>
        <pt x="528" y="-20" on="1"/>
        <pt x="284" y="-20" on="0"/>
        <pt x="8" y="193" on="0"/>
      </contour>
      <contour>
        <pt x="745" y="1221" on="1"/>
        <pt x="696" y="1221" on="0"/>
        <pt x="635" y="1152" on="0"/>
        <pt x="635" y="1092" on="1"/>
        <pt x="635" y="1016" on="0"/>
        <pt x="686" y="948" on="1"/>
        <pt x="758" y="979" on="0"/>
        <pt x="827" y="1076" on="0"/>
        <pt x="827" y="1135" on="1"/>
        <pt x="827" y="1170" on="0"/>
        <pt x="783" y="1221" on="0"/>
      </contour>
      <contour>
        <pt x="571" y="287" on="1"/>
        <pt x="648" y="287" on="0"/>
        <pt x="709" y="313" on="1"/>
        <pt x="516" y="592" on="1"/>
        <pt x="399" y="540" on="0"/>
        <pt x="399" y="424" on="1"/>
        <pt x="399" y="362" on="0"/>
        <pt x="494" y="287" on="0"/>
      </contour>
    </TTGlyph>
    <TTGlyph name="anoteleia" xMin="115" yMin="530" xMax="539" yMax="915">
      <component glyphName="periodcentered" x="0" y="0" flags="0x204"/>
    </TTGlyph>
    <TTGlyph name="aogonek" xMin="84" yMin="-524" xMax="1221" yMax="1153">
      <component glyphName="a" x="0" y="0" flags="0x204"/>
      <component glyphName="ogonek" x="690" y="0" flags="0x4"/>
    </TTGlyph>
    <TTGlyph name="approxequal" xMin="78" yMin="293" xMax="1092" yMax="1145">
      <contour>
        <pt x="311" y="874" on="1"/>
        <pt x="203" y="874" on="0"/>
        <pt x="78" y="754" on="1"/>
        <pt x="78" y="1034" on="1"/>
        <pt x="183" y="1143" on="0"/>
        <pt x="342" y="1143" on="1"/>
        <pt x="420" y="1143" on="0"/>
        <pt x="546" y="1111" on="0"/>
        <pt x="623" y="1079" on="1"/>
        <pt x="756" y="1024" on="0"/>
        <pt x="860" y="1024" on="1"/>
        <pt x="910" y="1024" on="0"/>
        <pt x="1036" y="1089" on="0"/>
        <pt x="1092" y="1145" on="1"/>
        <pt x="1092" y="864" on="1"/>
        <pt x="986" y="756" on="0"/>
        <pt x="827" y="756" on="1"/>
        <pt x="758" y="756" on="0"/>
        <pt x="634" y="784" on="0"/>
        <pt x="547" y="819" on="1"/>
        <pt x="416" y="874" on="0"/>
      </contour>
      <contour>
        <pt x="311" y="414" on="1"/>
        <pt x="204" y="414" on="0"/>
        <pt x="78" y="293" on="1"/>
        <pt x="78" y="573" on="1"/>
        <pt x="183" y="682" on="0"/>
        <pt x="342" y="682" on="1"/>
        <pt x="420" y="682" on="0"/>
        <pt x="546" y="650" on="0"/>
        <pt x="623" y="618" on="1"/>
        <pt x="761" y="563" on="0"/>
        <pt x="860" y="563" on="1"/>
        <pt x="910" y="563" on="0"/>
        <pt x="1036" y="628" on="0"/>
        <pt x="1092" y="684" on="1"/>
        <pt x="1092" y="403" on="1"/>
        <pt x="986" y="295" on="0"/>
        <pt x="827" y="295" on="1"/>
        <pt x="758" y="295" on="0"/>
        <pt x="634" y="323" on="0"/>
        <pt x="547" y="358" on="1"/>
        <pt x="414" y="414" on="0"/>
      </contour>
    </TTGlyph>
    <TTGlyph name="aring" xMin="84" yMin="-20" xMax="1221" yMax="1743">
      <component glyphName="a" x="0" y="0" flags="0x204"/>
      <component glyphName="ring" x="-34" y="0" flags="0x4"/>
    </TTGlyph>
    <TTGlyph name="aringacute" xMin="84" yMin="-20" xMax="1321" yMax="1962">
      <contour>
        <pt x="676" y="1780" on="1"/>
        <pt x="804" y="1873" on="0"/>
        <pt x="893" y="1962" on="1"/>
        <pt x="1321" y="1962" on="1"/>
        <pt x="1321" y="1950" on="1"/>
        <pt x="1261" y="1904" on="0"/>
        <pt x="1054" y="1802" on="0"/>
        <pt x="954" y="1769" on="1"/>
        <pt x="676" y="1769" on="1"/>
      </contour>
      <contour>
        <pt x="1024" y="1454" on="1"/>
        <pt x="1024" y="1341" on="0"/>
        <pt x="875" y="1200" on="0"/>
        <pt x="756" y="1200" on="1"/>
        <pt x="635" y="1200" on="0"/>
        <pt x="487" y="1337" on="0"/>
        <pt x="487" y="1452" on="1"/>
        <pt x="487" y="1566" on="0"/>
        <pt x="634" y="1706" on="0"/>
        <pt x="756" y="1706" on="1"/>
        <pt x="874" y="1706" on="0"/>
        <pt x="1024" y="1565" on="0"/>
      </contour>
      <contour>
        <pt x="844" y="1452" on="1"/>
        <pt x="844" y="1490" on="0"/>
        <pt x="791" y="1538" on="0"/>
        <pt x="756" y="1538" on="1"/>
        <pt x="721" y="1538" on="0"/>
        <pt x="668" y="1490" on="0"/>
        <pt x="668" y="1452" on="1"/>
        <pt x="668" y="1415" on="0"/>
        <pt x="714" y="1368" on="0"/>
        <pt x="756" y="1368" on="1"/>
        <pt x="795" y="1368" on="0"/>
        <pt x="844" y="1418" on="0"/>
      </contour>
      <contour>
        <pt x="565" y="291" on="1"/>
        <pt x="615" y="291" on="0"/>
        <pt x="706" y="408" on="0"/>
        <pt x="760" y="604" on="0"/>
        <pt x="760" y="698" on="1"/>
        <pt x="760" y="763" on="0"/>
        <pt x="720" y="842" on="0"/>
        <pt x="678" y="842" on="1"/>
        <pt x="602" y="842" on="0"/>
        <pt x="479" y="589" on="0"/>
        <pt x="479" y="434" on="1"/>
        <pt x="479" y="291" on="0"/>
      </contour>
      <contour>
        <pt x="981" y="0" on="1"/>
        <pt x="672" y="0" on="1"/>
        <pt x="682" y="123" on="1"/>
        <pt x="674" y="123" on="1"/>
        <pt x="618" y="45" on="0"/>
        <pt x="488" y="-20" on="0"/>
        <pt x="406" y="-20" on="1"/>
        <pt x="248" y="-20" on="0"/>
        <pt x="84" y="203" on="0"/>
        <pt x="84" y="412" on="1"/>
        <pt x="84" y="591" on="0"/>
        <pt x="230" y="963" on="0"/>
        <pt x="453" y="1153" on="0"/>
        <pt x="588" y="1153" on="1"/>
        <pt x="672" y="1153" on="0"/>
        <pt x="800" y="1078" on="0"/>
        <pt x="850" y="993" on="1"/>
        <pt x="858" y="993" on="1"/>
        <pt x="911" y="1133" on="1"/>
        <pt x="1221" y="1133" on="1"/>
      </contour>
    </TTGlyph>
    <TTGlyph name="asciicircum" xMin="-6" yMin="502" xMax="1081" yMax="1462">
      <contour>
        <pt x="-6" y="502" on="1"/>
        <pt x="625" y="1462" on="1"/>
        <pt x="797" y="1462" on="1"/>
        <pt x="1081" y="502" on="1"/>
        <pt x="807" y="502" on="1"/>
        <pt x="651" y="1071" on="1"/>
        <pt x="291" y="502" on="1"/>
      </contour>
    </TTGlyph>
    <TTGlyph name="asciitilde" xMin="96" yMin="524" xMax="1071" yMax="920">
      <contour>
        <pt x="336" y="645" on="1"/>
        <pt x="284" y="645" on="0"/>
        <pt x="159" y="585" on="0"/>
        <pt x="96" y="524" on="1"/>
        <pt x="96" y="809" on="1"/>
        <pt x="203" y="918" on="0"/>
        <pt x="358" y="918" on="1"/>
        <pt x="419" y="918" on="0"/>
        <pt x="518" y="895" on="0"/>
        <pt x="621" y="854" on="1"/>
        <pt x="688" y="826" on="0"/>
        <pt x="782" y="799" on="0"/>
        <pt x="834" y="799" on="1"/>
        <pt x="885" y="799" on="0"/>
        <pt x="1014" y="863" on="0"/>
        <pt x="1071" y="920" on="1"/>
        <pt x="1071" y="635" on="1"/>
        <pt x="964" y="526" on="0"/>
        <pt x="809" y="526" on="1"/>
        <pt x="747" y="526" on="0"/>
        <pt x="644" y="551" on="0"/>
        <pt x="547" y="590" on="1"/>
        <pt x="472" y="621" on="0"/>
        <pt x="385" y="645" on="0"/>
      </contour>
    </TTGlyph>
    <TTGlyph name="asterisk" xMin="152" yMin="551" xMax="1161" yMax="1571">
      <contour>
        <pt x="909" y="1509" on="1"/>
        <pt x="793" y="1178" on="1"/>
        <pt x="1161" y="1208" on="1"/>
        <pt x="1139" y="907" on="1"/>
        <pt x="829" y="948" on="1"/>
        <pt x="977" y="637" on="1"/>
        <pt x="692" y="551" on="1"/>
        <pt x="612" y="854" on="1"/>
        <pt x="446" y="610" on="1"/>
        <pt x="197" y="795" on="1"/>
        <pt x="451" y="1024" on="1"/>
        <pt x="152" y="1108" on="1"/>
        <pt x="252" y="1386" on="1"/>
        <pt x="571" y="1221" on="1"/>
        <pt x="602" y="1571" on="1"/>
      </contour>
    </TTGlyph>
    <TTGlyph name="at" xMin="82" yMin="-186" xMax="1774" yMax="1483">
      <contour>
        <pt x="1774" y="827" on="1"/>
        <pt x="1774" y="657" on="0"/>
        <pt x="1635" y="369" on="0"/>
        <pt x="1392" y="207" on="0"/>
        <pt x="1247" y="207" on="1"/>
        <pt x="1077" y="207" on="0"/>
        <pt x="1028" y="336" on="1"/>
        <pt x="1018" y="336" on="1"/>
        <pt x="970" y="271" on="0"/>
        <pt x="843" y="207" on="0"/>
        <pt x="750" y="207" on="1"/>
        <pt x="633" y="207" on="0"/>
        <pt x="485" y="374" on="0"/>
        <pt x="485" y="512" on="1"/>
        <pt x="485" y="668" on="0"/>
        <pt x="633" y="945" on="0"/>
        <pt x="878" y="1090" on="0"/>
        <pt x="1032" y="1090" on="1"/>
        <pt x="1187" y="1090" on="0"/>
        <pt x="1368" y="1020" on="1"/>
        <pt x="1268" y="606" on="1"/>
        <pt x="1245" y="512" on="0"/>
        <pt x="1245" y="469" on="1"/>
        <pt x="1245" y="428" on="0"/>
        <pt x="1284" y="428" on="1"/>
        <pt x="1348" y="428" on="0"/>
        <pt x="1452" y="525" on="0"/>
        <pt x="1511" y="705" on="0"/>
        <pt x="1511" y="821" on="1"/>
        <pt x="1511" y="1034" on="0"/>
        <pt x="1244" y="1253" on="0"/>
        <pt x="995" y="1253" on="1"/>
        <pt x="808" y="1253" on="0"/>
        <pt x="509" y="1070" on="0"/>
        <pt x="344" y="737" on="0"/>
        <pt x="344" y="524" on="1"/>
        <pt x="344" y="379" on="0"/>
        <pt x="454" y="161" on="0"/>
        <pt x="651" y="43" on="0"/>
        <pt x="776" y="43" on="1"/>
        <pt x="879" y="43" on="0"/>
        <pt x="1141" y="92" on="0"/>
        <pt x="1255" y="137" on="1"/>
        <pt x="1255" y="-88" on="1"/>
        <pt x="1165" y="-131" on="0"/>
        <pt x="898" y="-186" on="0"/>
        <pt x="780" y="-186" on="1"/>
        <pt x="571" y="-186" on="0"/>
        <pt x="254" y="-19" on="0"/>
        <pt x="82" y="294" on="0"/>
        <pt x="82" y="500" on="1"/>
        <pt x="82" y="788" on="0"/>
        <pt x="316" y="1234" on="0"/>
        <pt x="753" y="1483" on="0"/>
        <pt x="1020" y="1483" on="1"/>
        <pt x="1375" y="1483" on="0"/>
        <pt x="1774" y="1135" on="0"/>
      </contour>
      <contour>
        <pt x="1012" y="868" on="1"/>
        <pt x="939" y="868" on="0"/>
        <pt x="828" y="773" on="0"/>
        <pt x="764" y="614" on="0"/>
        <pt x="764" y="532" on="1"/>
        <pt x="764" y="428" on="0"/>
        <pt x="842" y="428" on="1"/>
        <pt x="903" y="428" on="0"/>
        <pt x="980" y="531" on="0"/>
        <pt x="1016" y="668" on="1"/>
        <pt x="1063" y="858" on="1"/>
        <pt x="1040" y="868" on="0"/>
      </contour>
    </TTGlyph>
    <TTGlyph name="atilde" xMin="84" yMin="-20" xMax="1221" yMax="1581">
      <component glyphName="a" x="0" y="0" flags="0x204"/>
      <component glyphName="tilde" x="0" y="0" flags="0x4"/>
    </TTGlyph>
    <TTGlyph name="b" xMin="23" yMin="-20" xMax="1159" yMax="1556">
      <contour>
        <pt x="657" y="-20" on="1"/>
        <pt x="574" y="-20" on="0"/>
        <pt x="450" y="44" on="0"/>
        <pt x="387" y="125" on="1"/>
        <pt x="379" y="125" on="1"/>
        <pt x="330" y="0" on="1"/>
        <pt x="23" y="0" on="1"/>
        <pt x="352" y="1556" on="1"/>
        <pt x="739" y="1556" on="1"/>
        <pt x="690" y="1325" on="1"/>
        <pt x="652" y="1150" on="0"/>
        <pt x="600" y="1024" on="1"/>
        <pt x="608" y="1024" on="1"/>
        <pt x="656" y="1083" on="0"/>
        <pt x="715" y="1128" on="0"/>
        <pt x="789" y="1153" on="0"/>
        <pt x="838" y="1153" on="1"/>
        <pt x="993" y="1153" on="0"/>
        <pt x="1159" y="930" on="0"/>
        <pt x="1159" y="721" on="1"/>
        <pt x="1159" y="543" on="0"/>
        <pt x="1018" y="175" on="0"/>
        <pt x="794" y="-20" on="0"/>
      </contour>
      <contour>
        <pt x="678" y="842" on="1"/>
        <pt x="628" y="842" on="0"/>
        <pt x="538" y="728" on="0"/>
        <pt x="485" y="534" on="0"/>
        <pt x="485" y="434" on="1"/>
        <pt x="485" y="369" on="0"/>
        <pt x="523" y="291" on="0"/>
        <pt x="563" y="291" on="1"/>
        <pt x="612" y="291" on="0"/>
        <pt x="706" y="409" on="0"/>
        <pt x="764" y="603" on="0"/>
        <pt x="764" y="698" on="1"/>
        <pt x="764" y="842" on="0"/>
      </contour>
    </TTGlyph>
    <TTGlyph name="backslash" xMin="221" yMin="-20" xMax="778" yMax="1483">
      <contour>
        <pt x="530" y="1483" on="1"/>
        <pt x="778" y="-20" on="1"/>
        <pt x="459" y="-20" on="1"/>
        <pt x="221" y="1483" on="1"/>
      </contour>
    </TTGlyph>
    <TTGlyph name="bar" xMin="442" yMin="-465" xMax="713" yMax="1548">
      <contour>
        <pt x="442" y="1548" on="1"/>
        <pt x="713" y="1548" on="1"/>
        <pt x="713" y="-465" on="1"/>
        <pt x="442" y="-465" on="1"/>
      </contour>
    </TTGlyph>
    <TTGlyph name="beta" xMin="-78" yMin="-492" xMax="1282" yMax="1567">
      <contour>
        <pt x="-78" y="-492" on="1"/>
        <pt x="242" y="1038" on="1"/>
        <pt x="298" y="1311" on="0"/>
        <pt x="575" y="1567" on="0"/>
        <pt x="813" y="1567" on="1"/>
        <pt x="1043" y="1567" on="0"/>
        <pt x="1282" y="1378" on="0"/>
        <pt x="1282" y="1198" on="1"/>
        <pt x="1282" y="1035" on="0"/>
        <pt x="1087" y="823" on="0"/>
        <pt x="924" y="809" on="1"/>
        <pt x="1047" y="791" on="0"/>
        <pt x="1202" y="603" on="0"/>
        <pt x="1202" y="465" on="1"/>
        <pt x="1202" y="234" on="0"/>
        <pt x="932" y="-20" on="0"/>
        <pt x="680" y="-20" on="1"/>
        <pt x="512" y="-20" on="0"/>
        <pt x="422" y="43" on="1"/>
        <pt x="309" y="-492" on="1"/>
      </contour>
      <contour>
        <pt x="487" y="340" on="1"/>
        <pt x="513" y="318" on="0"/>
        <pt x="594" y="291" on="0"/>
        <pt x="637" y="291" on="1"/>
        <pt x="714" y="291" on="0"/>
        <pt x="813" y="398" on="0"/>
        <pt x="813" y="481" on="1"/>
        <pt x="813" y="571" on="0"/>
        <pt x="726" y="662" on="0"/>
        <pt x="651" y="662" on="1"/>
        <pt x="637" y="662" on="1"/>
        <pt x="698" y="952" on="1"/>
        <pt x="729" y="952" on="1"/>
        <pt x="803" y="952" on="0"/>
        <pt x="899" y="1063" on="0"/>
        <pt x="899" y="1147" on="1"/>
        <pt x="899" y="1204" on="0"/>
        <pt x="847" y="1264" on="0"/>
        <pt x="803" y="1264" on="1"/>
        <pt x="737" y="1264" on="0"/>
        <pt x="663" y="1164" on="0"/>
        <pt x="639" y="1053" on="1"/>
      </contour>
    </TTGlyph>
    <TTGlyph name="braceleft" xMin="-16" yMin="-324" xMax="883" yMax="1462">
      <contour>
        <pt x="432" y="45" on="1"/>
        <pt x="432" y="-43" on="0"/>
        <pt x="545" y="-43" on="1"/>
        <pt x="545" y="-324" on="1"/>
        <pt x="463" y="-324" on="1"/>
        <pt x="280" y="-324" on="0"/>
        <pt x="102" y="-187" on="0"/>
        <pt x="102" y="-47" on="1"/>
        <pt x="102" y="16" on="0"/>
        <pt x="117" y="80" on="1"/>
        <pt x="154" y="254" on="1"/>
        <pt x="160" y="278" on="0"/>
        <pt x="160" y="297" on="1"/>
        <pt x="160" y="372" on="0"/>
        <pt x="76" y="434" on="0"/>
        <pt x="-16" y="434" on="1"/>
        <pt x="37" y="721" on="1"/>
        <pt x="156" y="721" on="0"/>
        <pt x="268" y="798" on="0"/>
        <pt x="289" y="893" on="1"/>
        <pt x="344" y="1139" on="1"/>
        <pt x="372" y="1263" on="0"/>
        <pt x="469" y="1395" on="0"/>
        <pt x="632" y="1462" on="0"/>
        <pt x="754" y="1462" on="1"/>
        <pt x="883" y="1462" on="1"/>
        <pt x="821" y="1182" on="1"/>
        <pt x="740" y="1180" on="0"/>
        <pt x="662" y="1125" on="0"/>
        <pt x="645" y="1053" on="1"/>
        <pt x="592" y="795" on="1"/>
        <pt x="572" y="699" on="0"/>
        <pt x="441" y="588" on="0"/>
        <pt x="313" y="573" on="1"/>
        <pt x="313" y="565" on="1"/>
        <pt x="403" y="536" on="0"/>
        <pt x="483" y="420" on="0"/>
        <pt x="483" y="332" on="1"/>
        <pt x="483" y="315" on="0"/>
        <pt x="473" y="258" on="1"/>
        <pt x="438" y="94" on="1"/>
        <pt x="432" y="64" on="0"/>
      </contour>
    </TTGlyph>
    <TTGlyph name="braceright" xMin="-123" yMin="-324" xMax="748" yMax="1462">
      <contour>
        <pt x="-49" y="-324" on="1"/>
        <pt x="-123" y="-324" on="1"/>
        <pt x="-123" y="-43" on="1"/>
        <pt x="-50" y="-40" on="0"/>
        <pt x="22" y="-19" on="0"/>
        <pt x="58" y="27" on="0"/>
        <pt x="70" y="86" on="1"/>
        <pt x="123" y="344" on="1"/>
        <pt x="144" y="443" on="0"/>
        <pt x="278" y="553" on="0"/>
        <pt x="401" y="565" on="1"/>
        <pt x="401" y="573" on="1"/>
        <pt x="231" y="628" on="0"/>
        <pt x="231" y="807" on="1"/>
        <pt x="231" y="819" on="0"/>
        <pt x="242" y="881" on="1"/>
        <pt x="276" y="1044" on="1"/>
        <pt x="283" y="1073" on="0"/>
        <pt x="283" y="1094" on="1"/>
        <pt x="283" y="1182" on="0"/>
        <pt x="147" y="1182" on="1"/>
        <pt x="201" y="1462" on="1"/>
        <pt x="262" y="1462" on="1"/>
        <pt x="430" y="1462" on="0"/>
        <pt x="612" y="1321" on="0"/>
        <pt x="612" y="1188" on="1"/>
        <pt x="612" y="1119" on="0"/>
        <pt x="598" y="1059" on="1"/>
        <pt x="561" y="885" on="1"/>
        <pt x="555" y="859" on="0"/>
        <pt x="555" y="842" on="1"/>
        <pt x="555" y="776" on="0"/>
        <pt x="644" y="707" on="0"/>
        <pt x="748" y="707" on="1"/>
        <pt x="690" y="420" on="1"/>
        <pt x="569" y="420" on="0"/>
        <pt x="446" y="339" on="0"/>
        <pt x="426" y="246" on="1"/>
        <pt x="371" y="0" on="1"/>
        <pt x="334" y="-171" on="0"/>
        <pt x="133" y="-324" on="0"/>
      </contour>
    </TTGlyph>
    <TTGlyph name="bracketleft" xMin="-53" yMin="-344" xMax="870" yMax="1503">
      <contour>
        <pt x="477" y="-344" on="1"/>
        <pt x="-53" y="-344" on="1"/>
        <pt x="340" y="1503" on="1"/>
        <pt x="870" y="1503" on="1"/>
        <pt x="815" y="1249" on="1"/>
        <pt x="600" y="1249" on="1"/>
        <pt x="315" y="-90" on="1"/>
        <pt x="530" y="-90" on="1"/>
      </contour>
      <contour>
        <pt x="491" y="1485" on="1"/>
      </contour>
      <contour>
        <pt x="182" y="-324" on="1"/>
      </contour>
    </TTGlyph>
    <TTGlyph name="bracketright" xMin="-133" yMin="-344" xMax="786" yMax="1503">
      <contour>
        <pt x="-80" y="-90" on="1"/>
        <pt x="133" y="-90" on="1"/>
        <pt x="418" y="1249" on="1"/>
        <pt x="203" y="1249" on="1"/>
        <pt x="258" y="1503" on="1"/>
        <pt x="786" y="1503" on="1"/>
        <pt x="393" y="-344" on="1"/>
        <pt x="-133" y="-344" on="1"/>
      </contour>
      <contour>
        <pt x="533" y="1485" on="1"/>
      </contour>
      <contour>
        <pt x="65" y="-324" on="1"/>
      </contour>
    </TTGlyph>
    <TTGlyph name="breve" xMin="399" yMin="1241" xMax="1210" yMax="1612">
      <contour>
        <pt x="1210" y="1612" on="1"/>
        <pt x="1179" y="1424" on="0"/>
        <pt x="955" y="1241" on="0"/>
        <pt x="756" y="1241" on="1"/>
        <pt x="589" y="1241" on="0"/>
        <pt x="399" y="1408" on="0"/>
        <pt x="399" y="1556" on="1"/>
        <pt x="399" y="1594" on="0"/>
        <pt x="408" y="1612" on="1"/>
        <pt x="625" y="1612" on="1"/>
        <pt x="625" y="1547" on="0"/>
        <pt x="714" y="1483" on="0"/>
        <pt x="788" y="1483" on="1"/>
        <pt x="873" y="1483" on="0"/>
        <pt x="968" y="1548" on="0"/>
        <pt x="989" y="1612" on="1"/>
      </contour>
    </TTGlyph>
    <TTGlyph name="breveacutecomb" xMin="-793" yMin="1241" xMax="18" yMax="1731">
      <contour>
        <pt x="18" y="1581" on="1"/>
        <pt x="-45" y="1241" on="0"/>
        <pt x="-428" y="1241" on="1"/>
        <pt x="-601" y="1241" on="0"/>
        <pt x="-793" y="1391" on="0"/>
        <pt x="-793" y="1522" on="1"/>
        <pt x="-793" y="1556" on="0"/>
        <pt x="-784" y="1581" on="1"/>
        <pt x="-604" y="1581" on="1"/>
        <pt x="-604" y="1501" on="0"/>
        <pt x="-511" y="1430" on="0"/>
        <pt x="-406" y="1430" on="1"/>
        <pt x="-202" y="1430" on="0"/>
        <pt x="-162" y="1581" on="1"/>
      </contour>
      <contour>
        <pt x="-526" y="1518" on="1"/>
        <pt x="-463" y="1581" on="0"/>
        <pt x="-373" y="1731" on="1"/>
        <pt x="-115" y="1731" on="1"/>
        <pt x="-115" y="1718" on="1"/>
        <pt x="-147" y="1677" on="0"/>
        <pt x="-304" y="1535" on="0"/>
        <pt x="-360" y="1503" on="1"/>
        <pt x="-526" y="1503" on="1"/>
      </contour>
    </TTGlyph>
    <TTGlyph name="brevegravecomb" xMin="-793" yMin="1241" xMax="18" yMax="1729">
      <contour>
        <pt x="18" y="1581" on="1"/>
        <pt x="-45" y="1241" on="0"/>
        <pt x="-428" y="1241" on="1"/>
        <pt x="-601" y="1241" on="0"/>
        <pt x="-793" y="1391" on="0"/>
        <pt x="-793" y="1522" on="1"/>
        <pt x="-793" y="1556" on="0"/>
        <pt x="-784" y="1581" on="1"/>
        <pt x="-604" y="1581" on="1"/>
        <pt x="-604" y="1501" on="0"/>
        <pt x="-511" y="1430" on="0"/>
        <pt x="-406" y="1430" on="1"/>
        <pt x="-202" y="1430" on="0"/>
        <pt x="-162" y="1581" on="1"/>
      </contour>
      <contour>
        <pt x="-434" y="1501" on="1"/>
        <pt x="-498" y="1556" on="0"/>
        <pt x="-597" y="1676" on="0"/>
        <pt x="-614" y="1718" on="1"/>
        <pt x="-612" y="1729" on="1"/>
        <pt x="-340" y="1729" on="1"/>
        <pt x="-329" y="1620" on="0"/>
        <pt x="-281" y="1513" on="1"/>
        <pt x="-281" y="1501" on="1"/>
      </contour>
    </TTGlyph>
    <TTGlyph name="brevehookcomb" xMin="-793" yMin="1241" xMax="18" yMax="1798">
      <contour>
        <pt x="18" y="1581" on="1"/>
        <pt x="-45" y="1241" on="0"/>
        <pt x="-428" y="1241" on="1"/>
        <pt x="-601" y="1241" on="0"/>
        <pt x="-793" y="1391" on="0"/>
        <pt x="-793" y="1522" on="1"/>
        <pt x="-793" y="1556" on="0"/>
        <pt x="-784" y="1581" on="1"/>
        <pt x="-604" y="1581" on="1"/>
        <pt x="-604" y="1501" on="0"/>
        <pt x="-511" y="1430" on="0"/>
        <pt x="-406" y="1430" on="1"/>
        <pt x="-202" y="1430" on="0"/>
        <pt x="-162" y="1581" on="1"/>
      </contour>
      <contour>
        <pt x="-494" y="1491" on="1"/>
        <pt x="-485" y="1597" on="1"/>
        <pt x="-391" y="1597" on="0"/>
        <pt x="-391" y="1642" on="1"/>
        <pt x="-391" y="1673" on="0"/>
        <pt x="-428" y="1673" on="1"/>
        <pt x="-469" y="1673" on="0"/>
        <pt x="-502" y="1659" on="1"/>
        <pt x="-502" y="1780" on="1"/>
        <pt x="-457" y="1798" on="0"/>
        <pt x="-379" y="1798" on="1"/>
        <pt x="-236" y="1798" on="0"/>
        <pt x="-236" y="1669" on="1"/>
        <pt x="-236" y="1572" on="0"/>
        <pt x="-362" y="1542" on="1"/>
        <pt x="-387" y="1491" on="1"/>
      </contour>
    </TTGlyph>
    <TTGlyph name="brevetildecomb" xMin="-793" yMin="1241" xMax="18" yMax="1817">
      <contour>
        <pt x="18" y="1561" on="1"/>
        <pt x="-13" y="1395" on="0"/>
        <pt x="-232" y="1241" on="0"/>
        <pt x="-428" y="1241" on="1"/>
        <pt x="-596" y="1241" on="0"/>
        <pt x="-793" y="1384" on="0"/>
        <pt x="-793" y="1507" on="1"/>
        <pt x="-793" y="1536" on="0"/>
        <pt x="-784" y="1561" on="1"/>
        <pt x="-604" y="1561" on="1"/>
        <pt x="-604" y="1488" on="0"/>
        <pt x="-521" y="1430" on="0"/>
        <pt x="-406" y="1430" on="1"/>
        <pt x="-322" y="1430" on="0"/>
        <pt x="-235" y="1456" on="0"/>
        <pt x="-175" y="1512" on="0"/>
        <pt x="-162" y="1561" on="1"/>
      </contour>
      <contour>
        <pt x="-256" y="1581" on="1"/>
        <pt x="-297" y="1581" on="0"/>
        <pt x="-357" y="1601" on="0"/>
        <pt x="-395" y="1620" on="1"/>
        <pt x="-460" y="1655" on="0"/>
        <pt x="-500" y="1655" on="1"/>
        <pt x="-524" y="1655" on="0"/>
        <pt x="-573" y="1619" on="0"/>
        <pt x="-578" y="1585" on="1"/>
        <pt x="-731" y="1585" on="1"/>
        <pt x="-706" y="1708" on="0"/>
        <pt x="-589" y="1817" on="0"/>
        <pt x="-479" y="1817" on="1"/>
        <pt x="-430" y="1817" on="0"/>
        <pt x="-354" y="1780" on="1"/>
        <pt x="-280" y="1743" on="0"/>
        <pt x="-248" y="1743" on="1"/>
        <pt x="-181" y="1743" on="0"/>
        <pt x="-154" y="1812" on="1"/>
        <pt x="0" y="1812" on="1"/>
        <pt x="-26" y="1693" on="0"/>
        <pt x="-142" y="1581" on="0"/>
      </contour>
    </TTGlyph>
    <TTGlyph name="brokenbar" xMin="444" yMin="-444" xMax="715" yMax="1546">
      <contour>
        <pt x="444" y="1546" on="1"/>
        <pt x="715" y="1546" on="1"/>
        <pt x="715" y="705" on="1"/>
        <pt x="444" y="705" on="1"/>
      </contour>
      <contour>
        <pt x="444" y="395" on="1"/>
        <pt x="715" y="395" on="1"/>
        <pt x="715" y="-444" on="1"/>
        <pt x="444" y="-444" on="1"/>
      </contour>
    </TTGlyph>
    <TTGlyph name="bullet" xMin="86" yMin="389" xMax="762" yMax="1133">
      <contour>
        <pt x="86" y="688" on="1"/>
        <pt x="86" y="806" on="0"/>
        <pt x="180" y="998" on="0"/>
        <pt x="353" y="1106" on="0"/>
        <pt x="467" y="1106" on="1"/>
        <pt x="615" y="1106" on="0"/>
        <pt x="762" y="951" on="0"/>
        <pt x="762" y="805" on="1"/>
        <pt x="762" y="611" on="0"/>
        <pt x="559" y="389" on="0"/>
        <pt x="379" y="389" on="1"/>
        <pt x="242" y="389" on="0"/>
        <pt x="86" y="549" on="0"/>
      </contour>
      <contour>
        <pt x="594" y="1133" on="1"/>
      </contour>
    </TTGlyph>
    <TTGlyph name="c" xMin="84" yMin="-20" xMax="1057" yMax="1153">
      <contour>
        <pt x="506" y="-20" on="1"/>
        <pt x="307" y="-20" on="0"/>
        <pt x="84" y="221" on="0"/>
        <pt x="84" y="442" on="1"/>
        <pt x="84" y="643" on="0"/>
        <pt x="237" y="970" on="0"/>
        <pt x="514" y="1153" on="0"/>
        <pt x="690" y="1153" on="1"/>
        <pt x="885" y="1153" on="0"/>
        <pt x="1057" y="1073" on="1"/>
        <pt x="934" y="786" on="1"/>
        <pt x="801" y="846" on="0"/>
        <pt x="709" y="846" on="1"/>
        <pt x="647" y="846" on="0"/>
        <pt x="541" y="750" on="0"/>
        <pt x="473" y="559" on="0"/>
        <pt x="473" y="467" on="1"/>
        <pt x="473" y="376" on="0"/>
        <pt x="533" y="291" on="0"/>
        <pt x="598" y="291" on="1"/>
        <pt x="670" y="291" on="0"/>
        <pt x="805" y="337" on="0"/>
        <pt x="881" y="377" on="1"/>
        <pt x="881" y="70" on="1"/>
        <pt x="801" y="26" on="0"/>
        <pt x="624" y="-20" on="0"/>
      </contour>
    </TTGlyph>
    <TTGlyph name="cacute" xMin="84" yMin="-20" xMax="1221" yMax="1569">
      <component glyphName="c" x="0" y="0" flags="0x204"/>
      <component glyphName="acute" x="47" y="0" flags="0x4"/>
    </TTGlyph>
    <TTGlyph name="caron" xMin="322" yMin="1241" xMax="1257" yMax="1569">
      <contour>
        <pt x="322" y="1569" on="1"/>
        <pt x="588" y="1569" on="1"/>
        <pt x="631" y="1531" on="0"/>
        <pt x="743" y="1395" on="1"/>
        <pt x="883" y="1505" on="0"/>
        <pt x="983" y="1569" on="1"/>
        <pt x="1257" y="1569" on="1"/>
        <pt x="1257" y="1546" on="1"/>
        <pt x="1122" y="1432" on="0"/>
        <pt x="948" y="1241" on="1"/>
        <pt x="502" y="1241" on="1"/>
        <pt x="471" y="1312" on="0"/>
        <pt x="358" y="1499" on="0"/>
        <pt x="322" y="1546" on="1"/>
      </contour>
    </TTGlyph>
    <TTGlyph name="caroncommaaccent" xMin="477" yMin="1229" xMax="950" yMax="1556">
      <contour>
        <pt x="477" y="1255" on="1"/>
        <pt x="546" y="1431" on="0"/>
        <pt x="588" y="1556" on="1"/>
        <pt x="950" y="1556" on="1"/>
        <pt x="950" y="1536" on="1"/>
        <pt x="900" y="1454" on="0"/>
        <pt x="784" y="1310" on="0"/>
        <pt x="715" y="1229" on="1"/>
        <pt x="477" y="1229" on="1"/>
      </contour>
    </TTGlyph>
    <TTGlyph name="ccaron" xMin="84" yMin="-20" xMax="1186" yMax="1569">
      <component glyphName="c" x="0" y="0" flags="0x204"/>
      <component glyphName="caron" x="-71" y="0" flags="0x4"/>
    </TTGlyph>
    <TTGlyph name="ccedilla" xMin="84" yMin="-492" xMax="1057" yMax="1153">
      <component glyphName="c" x="0" y="0" flags="0x204"/>
      <component glyphName="cedilla" x="397" y="0" flags="0x4"/>
    </TTGlyph>
    <TTGlyph name="ccircumflex" xMin="84" yMin="-20" xMax="1166" yMax="1569">
      <component glyphName="c" x="0" y="0" flags="0x204"/>
      <component glyphName="circumflex" x="-24" y="0" flags="0x4"/>
    </TTGlyph>
    <TTGlyph name="cdot" xMin="84" yMin="-20" xMax="1057" yMax="1591">
      <component glyphName="c" x="0" y="0" flags="0x204"/>
      <component glyphName="dotaccent" x="162" y="0" flags="0x4"/>
    </TTGlyph>
    <TTGlyph name="cedilla" xMin="-221" yMin="-492" xMax="287" yMax="0">
      <contour>
        <pt x="287" y="-236" on="1"/>
        <pt x="287" y="-357" on="0"/>
        <pt x="122" y="-492" on="0"/>
        <pt x="-29" y="-492" on="1"/>
        <pt x="-144" y="-492" on="0"/>
        <pt x="-221" y="-463" on="1"/>
        <pt x="-221" y="-258" on="1"/>
        <pt x="-191" y="-267" on="0"/>
        <pt x="-94" y="-285" on="0"/>
        <pt x="-70" y="-285" on="1"/>
        <pt x="-2" y="-285" on="0"/>
        <pt x="-2" y="-236" on="1"/>
        <pt x="-2" y="-163" on="0"/>
        <pt x="-147" y="-135" on="1"/>
        <pt x="-72" y="0" on="1"/>
        <pt x="133" y="0" on="1"/>
        <pt x="109" y="-41" on="1"/>
        <pt x="287" y="-78" on="0"/>
      </contour>
    </TTGlyph>
    <TTGlyph name="cent" xMin="154" yMin="-20" xMax="1126" yMax="1483">
      <contour>
        <pt x="602" y="-20" on="1"/>
        <pt x="373" y="-20" on="1"/>
        <pt x="424" y="188" on="1"/>
        <pt x="154" y="262" on="0"/>
        <pt x="154" y="586" on="1"/>
        <pt x="154" y="892" on="0"/>
        <pt x="435" y="1300" on="0"/>
        <pt x="666" y="1335" on="1"/>
        <pt x="698" y="1483" on="1"/>
        <pt x="928" y="1483" on="1"/>
        <pt x="895" y="1333" on="1"/>
        <pt x="1017" y="1314" on="0"/>
        <pt x="1126" y="1257" on="1"/>
        <pt x="1004" y="971" on="1"/>
        <pt x="925" y="1008" on="0"/>
        <pt x="827" y="1030" on="0"/>
        <pt x="778" y="1030" on="1"/>
        <pt x="715" y="1030" on="0"/>
        <pt x="611" y="931" on="0"/>
        <pt x="547" y="737" on="0"/>
        <pt x="547" y="627" on="1"/>
        <pt x="547" y="548" on="0"/>
        <pt x="609" y="479" on="0"/>
        <pt x="668" y="479" on="1"/>
        <pt x="740" y="479" on="0"/>
        <pt x="876" y="529" on="0"/>
        <pt x="950" y="569" on="1"/>
        <pt x="950" y="258" on="1"/>
        <pt x="805" y="180" on="0"/>
        <pt x="643" y="168" on="1"/>
      </contour>
    </TTGlyph>
    <TTGlyph name="chi" xMin="-303" yMin="-492" xMax="1325" yMax="1153">
      <contour>
        <pt x="326" y="1153" on="1"/>
        <pt x="469" y="1153" on="0"/>
        <pt x="617" y="1014" on="0"/>
        <pt x="647" y="852" on="1"/>
        <pt x="664" y="764" on="1"/>
        <pt x="887" y="1133" on="1"/>
        <pt x="1325" y="1133" on="1"/>
        <pt x="758" y="352" on="1"/>
        <pt x="831" y="-90" on="1"/>
        <pt x="839" y="-139" on="0"/>
        <pt x="882" y="-180" on="0"/>
        <pt x="922" y="-180" on="1"/>
        <pt x="971" y="-180" on="0"/>
        <pt x="1038" y="-164" on="1"/>
        <pt x="1038" y="-455" on="1"/>
        <pt x="920" y="-492" on="0"/>
        <pt x="791" y="-492" on="1"/>
        <pt x="649" y="-492" on="0"/>
        <pt x="510" y="-346" on="0"/>
        <pt x="483" y="-174" on="1"/>
        <pt x="455" y="25" on="1"/>
        <pt x="135" y="-492" on="1"/>
        <pt x="-303" y="-492" on="1"/>
        <pt x="360" y="436" on="1"/>
        <pt x="307" y="719" on="1"/>
        <pt x="295" y="784" on="0"/>
        <pt x="248" y="842" on="0"/>
        <pt x="203" y="842" on="1"/>
        <pt x="174" y="842" on="0"/>
        <pt x="127" y="827" on="1"/>
        <pt x="66" y="1106" on="1"/>
        <pt x="112" y="1127" on="0"/>
        <pt x="265" y="1153" on="0"/>
      </contour>
    </TTGlyph>
    <TTGlyph name="circumflex" xMin="254" yMin="1241" xMax="1190" yMax="1569">
      <contour>
        <pt x="1190" y="1241" on="1"/>
        <pt x="924" y="1241" on="1"/>
        <pt x="878" y="1282" on="0"/>
        <pt x="768" y="1415" on="1"/>
        <pt x="628" y="1305" on="0"/>
        <pt x="528" y="1241" on="1"/>
        <pt x="254" y="1241" on="1"/>
        <pt x="254" y="1264" on="1"/>
        <pt x="333" y="1336" on="0"/>
        <pt x="515" y="1517" on="0"/>
        <pt x="563" y="1569" on="1"/>
        <pt x="1010" y="1569" on="1"/>
        <pt x="1036" y="1510" on="0"/>
        <pt x="1140" y="1329" on="0"/>
        <pt x="1190" y="1264" on="1"/>
      </contour>
    </TTGlyph>
    <TTGlyph name="circumflexacutecomb" xMin="-862" yMin="1241" xMax="362" yMax="1663">
      <contour>
        <pt x="-862" y="1262" on="1"/>
        <pt x="-776" y="1345" on="0"/>
        <pt x="-592" y="1563" on="1"/>
        <pt x="-201" y="1563" on="1"/>
        <pt x="-129" y="1390" on="0"/>
        <pt x="-45" y="1264" on="1"/>
        <pt x="-45" y="1241" on="1"/>
        <pt x="-279" y="1241" on="1"/>
        <pt x="-338" y="1320" on="1"/>
        <pt x="-408" y="1407" on="1"/>
        <pt x="-479" y="1343" on="0"/>
        <pt x="-618" y="1241" on="1"/>
        <pt x="-862" y="1241" on="1"/>
      </contour>
      <contour>
        <pt x="-90" y="1450" on="1"/>
        <pt x="-27" y="1513" on="0"/>
        <pt x="63" y="1663" on="1"/>
        <pt x="362" y="1663" on="1"/>
        <pt x="362" y="1651" on="1"/>
        <pt x="331" y="1611" on="0"/>
        <pt x="163" y="1469" on="0"/>
        <pt x="106" y="1436" on="1"/>
        <pt x="-90" y="1436" on="1"/>
      </contour>
    </TTGlyph>
    <TTGlyph name="circumflexgravecomb" xMin="-1092" yMin="1241" xMax="-45" yMax="1667">
      <contour>
        <pt x="-911" y="1440" on="1"/>
        <pt x="-974" y="1495" on="0"/>
        <pt x="-1076" y="1615" on="0"/>
        <pt x="-1092" y="1657" on="1"/>
        <pt x="-1090" y="1667" on="1"/>
        <pt x="-797" y="1667" on="1"/>
        <pt x="-786" y="1558" on="0"/>
        <pt x="-737" y="1452" on="1"/>
        <pt x="-737" y="1440" on="1"/>
      </contour>
      <contour>
        <pt x="-862" y="1262" on="1"/>
        <pt x="-776" y="1345" on="0"/>
        <pt x="-592" y="1563" on="1"/>
        <pt x="-201" y="1563" on="1"/>
        <pt x="-129" y="1390" on="0"/>
        <pt x="-45" y="1264" on="1"/>
        <pt x="-45" y="1241" on="1"/>
        <pt x="-279" y="1241" on="1"/>
        <pt x="-338" y="1320" on="1"/>
        <pt x="-408" y="1407" on="1"/>
        <pt x="-479" y="1343" on="0"/>
        <pt x="-618" y="1241" on="1"/>
        <pt x="-862" y="1241" on="1"/>
      </contour>
    </TTGlyph>
    <TTGlyph name="circumflexhookcomb" xMin="-877" yMin="1241" xMax="221" yMax="1800">
      <contour>
        <pt x="-88" y="1419" on="1"/>
        <pt x="-78" y="1550" on="1"/>
        <pt x="43" y="1550" on="0"/>
        <pt x="43" y="1608" on="1"/>
        <pt x="43" y="1647" on="0"/>
        <pt x="-2" y="1647" on="1"/>
        <pt x="-31" y="1647" on="0"/>
        <pt x="-86" y="1628" on="1"/>
        <pt x="-86" y="1778" on="1"/>
        <pt x="-36" y="1800" on="0"/>
        <pt x="51" y="1800" on="1"/>
        <pt x="128" y="1800" on="0"/>
        <pt x="221" y="1713" on="0"/>
        <pt x="221" y="1640" on="1"/>
        <pt x="221" y="1588" on="0"/>
        <pt x="151" y="1501" on="0"/>
        <pt x="70" y="1483" on="1"/>
        <pt x="41" y="1419" on="1"/>
      </contour>
      <contour>
        <pt x="-877" y="1262" on="1"/>
        <pt x="-786" y="1350" on="0"/>
        <pt x="-606" y="1563" on="1"/>
        <pt x="-215" y="1563" on="1"/>
        <pt x="-143" y="1390" on="0"/>
        <pt x="-59" y="1264" on="1"/>
        <pt x="-59" y="1241" on="1"/>
        <pt x="-293" y="1241" on="1"/>
        <pt x="-422" y="1407" on="1"/>
        <pt x="-506" y="1332" on="0"/>
        <pt x="-633" y="1241" on="1"/>
        <pt x="-877" y="1241" on="1"/>
      </contour>
    </TTGlyph>
    <TTGlyph name="circumflextildecomb" xMin="-883" yMin="1241" xMax="-37" yMax="1808">
      <contour>
        <pt x="-883" y="1262" on="1"/>
        <pt x="-812" y="1319" on="0"/>
        <pt x="-658" y="1462" on="0"/>
        <pt x="-612" y="1516" on="1"/>
        <pt x="-221" y="1516" on="1"/>
        <pt x="-171" y="1397" on="0"/>
        <pt x="-66" y="1264" on="1"/>
        <pt x="-66" y="1241" on="1"/>
        <pt x="-299" y="1241" on="1"/>
        <pt x="-375" y="1302" on="0"/>
        <pt x="-428" y="1360" on="1"/>
        <pt x="-524" y="1297" on="0"/>
        <pt x="-639" y="1241" on="1"/>
        <pt x="-883" y="1241" on="1"/>
      </contour>
      <contour>
        <pt x="-297" y="1554" on="1"/>
        <pt x="-338" y="1554" on="0"/>
        <pt x="-398" y="1575" on="0"/>
        <pt x="-436" y="1593" on="1"/>
        <pt x="-501" y="1628" on="0"/>
        <pt x="-541" y="1628" on="1"/>
        <pt x="-567" y="1628" on="0"/>
        <pt x="-614" y="1583" on="0"/>
        <pt x="-618" y="1552" on="1"/>
        <pt x="-772" y="1552" on="1"/>
        <pt x="-746" y="1679" on="0"/>
        <pt x="-621" y="1806" on="0"/>
        <pt x="-516" y="1806" on="1"/>
        <pt x="-487" y="1806" on="0"/>
        <pt x="-439" y="1793" on="0"/>
        <pt x="-391" y="1769" on="1"/>
        <pt x="-319" y="1733" on="0"/>
        <pt x="-285" y="1733" on="1"/>
        <pt x="-222" y="1733" on="0"/>
        <pt x="-190" y="1808" on="1"/>
        <pt x="-37" y="1808" on="1"/>
        <pt x="-65" y="1679" on="0"/>
        <pt x="-191" y="1554" on="0"/>
      </contour>
    </TTGlyph>
    <TTGlyph name="colon" xMin="0" yMin="-25" xMax="618" yMax="1147">
      <contour>
        <pt x="0" y="127" on="1"/>
        <pt x="0" y="236" on="0"/>
        <pt x="130" y="360" on="0"/>
        <pt x="244" y="360" on="1"/>
        <pt x="328" y="360" on="0"/>
        <pt x="424" y="280" on="0"/>
        <pt x="424" y="205" on="1"/>
        <pt x="424" y="87" on="0"/>
        <pt x="304" y="-25" on="0"/>
        <pt x="174" y="-25" on="1"/>
        <pt x="96" y="-25" on="0"/>
        <pt x="0" y="49" on="0"/>
      </contour>
      <contour>
        <pt x="195" y="915" on="1"/>
        <pt x="195" y="1025" on="0"/>
        <pt x="325" y="1147" on="0"/>
        <pt x="436" y="1147" on="1"/>
        <pt x="518" y="1147" on="0"/>
        <pt x="618" y="1072" on="0"/>
        <pt x="618" y="993" on="1"/>
        <pt x="618" y="874" on="0"/>
        <pt x="500" y="762" on="0"/>
        <pt x="369" y="762" on="1"/>
        <pt x="290" y="762" on="0"/>
        <pt x="195" y="837" on="0"/>
      </contour>
    </TTGlyph>
    <TTGlyph name="comma" xMin="-104" yMin="-264" xMax="440" yMax="238">
      <contour>
        <pt x="432" y="238" on="1"/>
        <pt x="440" y="215" on="1"/>
        <pt x="324" y="-47" on="0"/>
        <pt x="184" y="-264" on="1"/>
        <pt x="-104" y="-264" on="1"/>
        <pt x="-51" y="-143" on="0"/>
        <pt x="43" y="123" on="1"/>
        <pt x="84" y="238" on="1"/>
      </contour>
    </TTGlyph>
    <TTGlyph name="commaaccent" xMin="102" yMin="-453" xMax="573" yMax="-125">
      <contour>
        <pt x="102" y="-426" on="1"/>
        <pt x="179" y="-230" on="0"/>
        <pt x="211" y="-125" on="1"/>
        <pt x="573" y="-125" on="1"/>
        <pt x="573" y="-145" on="1"/>
        <pt x="484" y="-295" on="0"/>
        <pt x="340" y="-453" on="1"/>
        <pt x="102" y="-453" on="1"/>
      </contour>
    </TTGlyph>
    <TTGlyph name="commaaccentrotate" xMin="446" yMin="1241" xMax="920" yMax="1569">
      <contour>
        <pt x="920" y="1542" on="1"/>
        <pt x="903" y="1502" on="0"/>
        <pt x="829" y="1309" on="0"/>
        <pt x="809" y="1241" on="1"/>
        <pt x="446" y="1241" on="1"/>
        <pt x="446" y="1262" on="1"/>
        <pt x="523" y="1387" on="0"/>
        <pt x="682" y="1569" on="1"/>
        <pt x="920" y="1569" on="1"/>
      </contour>
    </TTGlyph>
</ttFont>
